<svg width="300" height="300" viewBox="0 0 300 300" fill="none" xmlns="http://www.w3.org/2000/svg">
<path fill-rule="evenodd" clip-rule="evenodd" d="M150 205C198.602 205 238 165.825 238 117.5C238 69.1751 198.602 30 150 30C101.399 30 62 69.1751 62 117.5C62 165.825 101.399 205 150 205ZM150.379 73.75C143.313 73.75 133.535 77.7679 128.538 82.7244L114.968 96.1859H182.608L205.224 73.75H150.379ZM171.348 152.276C166.352 157.232 156.573 161.249 149.507 161.249H94.6619L117.279 138.814H184.919L171.348 152.276ZM193.332 107.404H103.684L99.4494 111.611C89.4224 120.585 92.3962 127.596 106.439 127.596H196.329L200.565 123.389C210.494 114.468 207.373 107.404 193.332 107.404Z" fill="#0553F0"/>
<path d="M3 252.39L5.14821 248.987C6.13425 250.213 7.44549 251.245 9.08195 252.083C10.7188 252.921 12.4394 253.34 14.2437 253.34C16.3082 253.34 17.9171 252.86 19.0702 251.899C20.2419 250.939 20.8278 249.682 20.8278 248.128C20.8278 247.147 20.5117 246.319 19.8792 245.645C19.2467 244.97 18.4285 244.449 17.4241 244.081C16.4198 243.713 15.313 243.376 14.1042 243.069C12.8949 242.763 11.677 242.405 10.4494 241.996C9.24018 241.587 8.13339 241.087 7.12903 240.494C6.12467 239.901 5.30644 239.063 4.67393 237.98C4.04183 236.876 3.72537 235.568 3.72537 234.055C3.72537 231.561 4.63687 229.487 6.45946 227.831C8.28246 226.155 10.7842 225.317 13.9647 225.317C18.1682 225.317 21.5719 226.789 24.1756 229.732L22.1948 232.982C21.3391 231.837 20.1861 230.918 18.7354 230.223C17.303 229.507 15.7127 229.15 13.9647 229.15C12.1233 229.15 10.6447 229.609 9.52875 230.529C8.41238 231.429 7.8544 232.563 7.8544 233.933C7.8544 234.811 8.17086 235.558 8.80296 236.171C9.43547 236.763 10.2445 237.234 11.2306 237.581C12.2349 237.908 13.3413 238.225 14.5505 238.532C15.7781 238.818 16.9961 239.175 18.2053 239.605C19.4328 240.034 20.5396 240.565 21.5253 241.199C22.5296 241.812 23.3478 242.701 23.9804 243.866C24.6129 245.032 24.9289 246.411 24.9289 248.006C24.9289 250.663 23.9804 252.86 22.0832 254.597C20.2049 256.315 17.5545 257.173 14.1321 257.173C9.50085 257.173 5.78989 255.579 3 252.39Z" fill="#1F2937"/>
<path d="M28.4755 247.484V226.083H32.744V246.043C32.744 248.578 33.2745 250.366 34.3346 251.409C35.3948 252.431 36.9384 252.942 38.9659 252.942C40.5653 252.942 42.1093 252.502 43.5971 251.623C45.0849 250.744 46.2475 249.661 47.0844 248.373V226.083H51.3808V256.406H47.0844V252.145C45.9314 253.575 44.4898 254.771 42.7601 255.732C41.0304 256.692 39.1982 257.173 37.264 257.173C31.4048 257.173 28.4755 253.943 28.4755 247.484Z" fill="#1F2937"/>
<path d="M56.5176 256.406V226.083H60.7865V230.928C61.9766 229.252 63.3624 227.913 64.9435 226.911C66.5245 225.889 68.2076 225.378 69.9931 225.378V230.223C69.3236 230.141 68.7748 230.1 68.3471 230.1C67.0267 230.1 65.5943 230.601 64.0507 231.602C62.5067 232.583 61.4186 233.697 60.7865 234.944V256.406H56.5176Z" fill="#1F2937"/>
<path d="M70.3312 241.199C70.3312 238.296 70.9079 235.639 72.0609 233.227C73.2327 230.795 74.8604 228.874 76.9432 227.463C79.0265 226.032 81.3608 225.317 83.9462 225.317C86.6616 225.317 89.033 226.043 91.0604 227.494C93.0879 228.945 94.6128 230.897 95.6359 233.35C96.6773 235.782 97.1982 238.532 97.1982 241.598V242.793H74.9066C75.074 245.778 76.0413 248.271 77.8081 250.274C79.5936 252.278 81.9188 253.279 84.7832 253.279C86.4013 253.279 87.9541 252.942 89.4423 252.267C90.9489 251.593 92.2601 250.632 93.376 249.385L95.4127 252.451C92.4925 255.599 88.8377 257.173 84.4484 257.173C80.319 257.173 76.934 255.691 74.2928 252.727C71.6516 249.763 70.3312 245.921 70.3312 241.199ZM74.8508 239.267H92.9576C92.9388 238.102 92.7435 236.947 92.3717 235.803C92.0182 234.658 91.4881 233.585 90.7815 232.583C90.0748 231.582 89.1263 230.775 87.9358 230.161C86.7453 229.528 85.397 229.211 83.8904 229.211C82.4768 229.211 81.1934 229.517 80.04 230.131C78.887 230.744 77.9476 231.551 77.2222 232.553C76.5156 233.534 75.9576 234.607 75.5483 235.772C75.1394 236.917 74.9066 238.082 74.8508 239.267Z" fill="#1F2937"/>
<path d="M115.642 256.93V231.405H123.955V225.518H101.157V231.405H109.514V256.93H115.642Z" fill="#1F2937"/>
<path d="M150.183 256.93L143.712 244.968C146.797 244.167 150.012 241.153 150.012 235.643C150.012 229.804 146.326 225.518 140.369 225.518H126.999V256.93H133.085V245.768H137.541L143.155 256.93H150.183ZM139.513 239.882H133.085V231.405H139.513C141.912 231.405 143.755 233.006 143.755 235.596C143.755 238.281 141.912 239.882 139.513 239.882Z" fill="#1F2937"/>
<path d="M159.764 256.93V225.518H153.679V256.93H159.764Z" fill="#1F2937"/>
<path d="M178.466 257.495C183.608 257.495 187.679 255.187 190.593 251.608V239.552H176.966V245.392H184.508V249.159C183.351 250.337 180.994 251.561 178.466 251.561C173.238 251.561 169.467 247.181 169.467 241.247C169.467 235.314 173.238 230.934 178.466 230.934C181.466 230.934 183.908 232.818 185.237 235.031L190.25 232.017C188.108 228.297 184.38 225 178.466 225C170.067 225 163.21 231.311 163.21 241.247C163.21 251.137 170.067 257.495 178.466 257.495Z" fill="#1F2937"/>
<path d="M208.451 257.495C213.594 257.495 217.665 255.187 220.579 251.608V239.552H206.952V245.392H214.494V249.159C213.337 250.337 210.98 251.561 208.451 251.561C203.224 251.561 199.452 247.181 199.452 241.247C199.452 235.314 203.224 230.934 208.451 230.934C211.451 230.934 213.894 232.818 215.223 235.031L220.236 232.017C218.094 228.297 214.365 225 208.451 225C200.052 225 193.196 231.311 193.196 241.247C193.196 251.137 200.052 257.495 208.451 257.495Z" fill="#1F2937"/>
<path d="M244.78 256.93V251.043H230.638V243.885H244.48V237.998H230.638V231.405H244.78V225.518H224.553V256.93H244.78Z" fill="#1F2937"/>
<path d="M271.863 256.93L265.392 244.968C268.478 244.167 271.692 241.153 271.692 235.643C271.692 229.804 268.006 225.518 262.05 225.518H248.679V256.93H254.765V245.768H259.221L264.835 256.93H271.863ZM261.193 239.882H254.765V231.405H261.193C263.592 231.405 265.435 233.006 265.435 235.596C265.435 238.281 263.592 239.882 261.193 239.882Z" fill="#1F2937"/>
<path d="M285.558 257.495C293.229 257.495 297 253.162 297 247.417C297 235.69 280.587 239.034 280.587 234.089C280.587 232.205 282.044 230.981 284.615 230.981C287.529 230.981 290.615 232.064 292.929 234.419L296.315 229.427C293.486 226.554 289.715 225.047 285.173 225.047C278.445 225.047 274.331 229.38 274.331 234.607C274.331 246.428 290.786 242.613 290.786 248.076C290.786 249.912 289.201 251.561 285.815 251.561C281.873 251.561 278.745 249.583 276.73 247.275L273.388 252.503C276.087 255.47 280.03 257.495 285.558 257.495Z" fill="#1F2937"/>
</svg>
