<svg width="300" height="300" viewBox="0 0 300 300" fill="none" xmlns="http://www.w3.org/2000/svg">
<path fill-rule="evenodd" clip-rule="evenodd" d="M273 59.8C273 73.4967 261.842 84.6 248.077 84.6C236.464 84.6 226.706 76.6965 223.939 66H189.143C183.051 66 177.852 70.3825 176.85 76.3614L175.826 82.4771C174.854 88.2837 171.902 93.3373 167.727 97C171.902 100.663 174.854 105.716 175.826 111.523L176.85 117.639C177.852 123.618 183.051 128 189.143 128H199.016C201.783 117.303 211.541 109.4 223.154 109.4C236.919 109.4 248.077 120.503 248.077 134.2C248.077 147.897 236.919 159 223.154 159C211.541 159 201.783 151.097 199.016 140.4H189.143C176.959 140.4 166.562 131.635 164.559 119.677L163.534 113.561C162.533 107.582 157.334 103.2 151.242 103.2H141.077C137.966 113.368 128.467 120.767 117.231 120.767C105.995 120.767 96.4956 113.368 93.3846 103.2H78.7694C75.6584 113.368 66.1589 120.767 54.9231 120.767C41.1585 120.767 30 109.663 30 95.9668C30 82.27 41.1585 71.1668 54.9231 71.1668C66.9072 71.1668 76.9157 79.5833 79.3046 90.8H92.8494C95.2383 79.5833 105.247 71.1668 117.231 71.1668C129.215 71.1668 139.223 79.5833 141.612 90.8H151.242C157.334 90.8 162.533 86.4175 163.534 80.4386L164.559 74.3229C166.562 62.3646 176.959 53.6 189.143 53.6H223.939C226.706 42.9036 236.464 35 248.077 35C261.842 35 273 46.1033 273 59.8ZM260.538 59.8C260.538 66.6482 254.959 72.2 248.077 72.2C241.195 72.2 235.615 66.6482 235.615 59.8C235.615 52.9517 241.195 47.4 248.077 47.4C254.959 47.4 260.538 52.9517 260.538 59.8ZM54.9231 108.367C61.8055 108.367 67.3845 102.815 67.3845 95.9668C67.3845 89.1182 61.8055 83.5668 54.9231 83.5668C48.0408 83.5668 42.4615 89.1182 42.4615 95.9668C42.4615 102.815 48.0408 108.367 54.9231 108.367ZM117.231 108.367C124.113 108.367 129.692 102.815 129.692 95.9668C129.692 89.1182 124.113 83.5668 117.231 83.5668C110.349 83.5668 104.769 89.1182 104.769 95.9668C104.769 102.815 110.349 108.367 117.231 108.367ZM223.154 146.6C230.036 146.6 235.615 141.048 235.615 134.2C235.615 127.352 230.036 121.8 223.154 121.8C216.272 121.8 210.692 127.352 210.692 134.2C210.692 141.048 216.272 146.6 223.154 146.6Z" fill="#EA4B71"/>
<path d="M70 247H82.5863V220.963C82.5863 212.412 87.896 208.665 93.894 208.665C99.7937 208.665 104.415 212.508 104.415 220.386V247H117V217.888C117 205.302 109.527 198 97.8273 198C90.4525 198 86.3228 200.882 83.3727 204.629H82.5863L81.5045 198.961H70V247Z" fill="#101330"/>
<path d="M163.485 215.402V214.821C167.654 212.691 171.823 209.012 171.823 201.75C171.823 191.294 163.389 185 151.738 185C139.8 185 131.273 191.681 131.273 201.944C131.273 208.915 135.254 212.691 139.611 214.821V215.402C134.78 217.145 129 222.374 129 231.088C129 241.641 137.527 249 151.642 249C165.758 249 174 241.641 174 231.088C174 222.374 168.316 217.242 163.485 215.402ZM151.642 193.908C156.38 193.908 159.885 197.006 159.885 202.234C159.885 207.463 156.285 210.561 151.642 210.561C147 210.561 143.115 207.463 143.115 202.234C143.115 196.909 146.811 193.908 151.642 193.908ZM151.642 239.705C146.146 239.705 141.696 236.123 141.696 230.023C141.696 224.504 145.389 220.34 151.546 220.34C157.611 220.34 161.307 224.407 161.307 230.216C161.307 236.123 157.042 239.705 151.642 239.705Z" fill="#101330"/>
<path d="M186 247H198.586V220.963C198.586 212.412 203.895 208.665 209.895 208.665C215.795 208.665 220.414 212.508 220.414 220.386V247H233V217.888C233 205.302 225.527 198 213.827 198C206.454 198 202.323 200.882 199.373 204.629H198.586L197.504 198.961H186V247Z" fill="#101330"/>
</svg>
