<svg id="Layer_1" data-name="Layer 1" xmlns="http://www.w3.org/2000/svg" viewBox="0 0 300 300">
<defs>
<style>.cls-1{fill:#f1f6ff;}.cls-2{fill:#070045;}.cls-3{fill:#1daafc;}</style>
</defs>
<rect class="cls-1" width="300" height="300"/>
<polygon class="cls-2" points="63.94 72.43 125.53 177.84 186.39 72.43 161.08 72.43 126.51 137.18 101.43 94.09 128.7 94.09 138.44 72.43 63.94 72.43"/>
<polygon class="cls-3" points="148.94 177.84 174.22 177.84 236.06 72.43 209.76 72.43 148.94 177.84"/>
<path class="cls-2" d="M78.33,227.28h-8l-2-5.87H58l-2,5.87H48l9.46-28.83H68.87ZM67,215.45l-3.84-11.83-3.85,11.83Z"/>
<path class="cls-2" d="M91.34,222.4a3.86,3.86,0,0,0,2.76-1.31,4.16,4.16,0,0,0,1.08-2.88V206.38h7.59v20.9H95.43l-.25-2a9,9,0,0,1-1.92,1.34,8.53,8.53,0,0,1-1.8.68,7.48,7.48,0,0,1-1.57.25l-1.26,0a8.29,8.29,0,0,1-6.31-2.44C80.78,223.5,80,221.2,80,218.21V206.38H87.6v11.14a7.61,7.61,0,0,0,.31,2.37,4.46,4.46,0,0,0,.84,1.5,2.8,2.8,0,0,0,1.19.79A4.61,4.61,0,0,0,91.34,222.4Z"/>
<path class="cls-2" d="M117,227.57q-4,0-5.74-2.58a12.49,12.49,0,0,1-1.75-7.08v-6.35h-3.59v-5.18h3.59v-6.2l7.59-1.93v8.13h4.78v5.18h-4.78v7.16a2.82,2.82,0,0,0,.69,2,3,3,0,0,0,2.27.73H121a3.71,3.71,0,0,0,.94-.1V227a17,17,0,0,1-2.39.39C118.53,227.47,117.7,227.54,117,227.57Z"/>
<path class="cls-2" d="M136.77,227.57a15.9,15.9,0,0,1-5.81-.93,9.81,9.81,0,0,1-3.77-2.48,9.35,9.35,0,0,1-2-3.5,12.45,12.45,0,0,1,0-7.76,9.24,9.24,0,0,1,2-3.49,10.25,10.25,0,0,1,3.77-2.54,17.8,17.8,0,0,1,11.65,0,10.29,10.29,0,0,1,3.74,2.54,9.24,9.24,0,0,1,2,3.49,12.45,12.45,0,0,1,0,7.76,9.35,9.35,0,0,1-2,3.5,9.84,9.84,0,0,1-3.74,2.48A15.92,15.92,0,0,1,136.77,227.57Zm0-5.17a7.27,7.27,0,0,0,1.77-.22,3.2,3.2,0,0,0,1.48-.87,4.36,4.36,0,0,0,1-1.73,8.88,8.88,0,0,0,.37-2.82c0-2.12-.44-3.59-1.33-4.43a5,5,0,0,0-6.6,0c-.89.84-1.33,2.31-1.33,4.43a8.88,8.88,0,0,0,.37,2.82,4.36,4.36,0,0,0,1,1.73,3.2,3.2,0,0,0,1.48.87A7.21,7.21,0,0,0,136.77,222.4Z"/>
<path class="cls-3" d="M160.22,208.43a5.66,5.66,0,0,1,1.63-1.49,7,7,0,0,1,1.77-.73,9.06,9.06,0,0,1,1.7-.27c.55,0,1-.05,1.36-.05a8.42,8.42,0,0,1,6.36,2.46,9.62,9.62,0,0,1,2.36,6.93v12h-7.59V215.94c0-1.93-.33-3.23-1-3.89a3.4,3.4,0,0,0-2.49-1,3.7,3.7,0,0,0-1.47.31,4.54,4.54,0,0,0-1.31.87,4.66,4.66,0,0,0-.94,1.28,3.56,3.56,0,0,0-.37,1.58v12.17h-7.58v-20.9H160Z"/>
<path class="cls-3" d="M193.14,214a2.54,2.54,0,0,0-1-2.34,4.53,4.53,0,0,0-2.46-.61,10.89,10.89,0,0,0-1.87.17,2.11,2.11,0,0,0-1.58,1.25h-6.7a8.11,8.11,0,0,1,3.57-5.06,12.17,12.17,0,0,1,6.33-1.54,18.89,18.89,0,0,1,5.52.67,7.71,7.71,0,0,1,3.45,2,7.49,7.49,0,0,1,1.8,3.42,20.59,20.59,0,0,1,.52,4.91v10.38h-7.25l-.34-2a7.4,7.4,0,0,1-2,1.34,9.85,9.85,0,0,1-2,.68,10.15,10.15,0,0,1-1.87.25l-1.5,0a9.33,9.33,0,0,1-2.42-.34,7.2,7.2,0,0,1-2.34-1.11,6.06,6.06,0,0,1-1.75-2,6.34,6.34,0,0,1-.69-3.08,5.05,5.05,0,0,1,1.43-3.8,9.45,9.45,0,0,1,3.6-2.09,19.74,19.74,0,0,1,4.73-.91C190,214.09,191.63,214,193.14,214Zm-7,6.78a1.24,1.24,0,0,0,1.06,1.4,13.59,13.59,0,0,0,2.44.2,5.27,5.27,0,0,0,1.53-.33,6.61,6.61,0,0,0,2-1.07v-2.3c-.72,0-1.5,0-2.32.1a16,16,0,0,0-2.26.35,6.52,6.52,0,0,0-1.73.65A1.16,1.16,0,0,0,186.14,220.8Z"/>
<path class="cls-3" d="M240.24,227.28h-7.58V214.81a4.58,4.58,0,0,0-.74-2.68,2.74,2.74,0,0,0-2.42-1.06,2.56,2.56,0,0,0-1.55.44,3.31,3.31,0,0,0-1,1.11,5.54,5.54,0,0,0-.54,1.5,8.7,8.7,0,0,0-.17,1.68v11.48h-7.59V214.81a4.27,4.27,0,0,0-.81-2.68,2.88,2.88,0,0,0-2.44-1.06,2.56,2.56,0,0,0-1.55.44,3.31,3.31,0,0,0-1,1.11,4.66,4.66,0,0,0-.51,1.5,9.54,9.54,0,0,0-.15,1.68v11.48h-7.59v-20.9h7.49l.29,2a12,12,0,0,1,2.12-1.47,8.86,8.86,0,0,1,1.8-.72,7.47,7.47,0,0,1,1.41-.27c.39,0,.69-.05.88-.05a14.53,14.53,0,0,1,4,.48,6.7,6.7,0,0,1,3.21,2.38,8.65,8.65,0,0,1,1.87-1.65,8.33,8.33,0,0,1,1.77-.85,6.93,6.93,0,0,1,1.56-.31c.47,0,.89-.05,1.25-.05a7.82,7.82,0,0,1,3.3.67,6.92,6.92,0,0,1,2.52,1.89,8.86,8.86,0,0,1,1.6,2.9,11.78,11.78,0,0,1,.56,3.73Z"/>
<path class="cls-3" d="M244.43,197.91H252v5.91h-7.59Zm0,8.42H252v20.95h-7.59Z"/>
</svg>