<svg width="300" height="300" viewBox="0 0 300 300" fill="none" xmlns="http://www.w3.org/2000/svg">
<path d="M7.612 254.344C6.924 254.344 6.365 254.186 5.935 253.871C5.53367 253.556 5.29 253.14 5.204 252.624C5.118 252.079 5.21833 251.477 5.505 250.818L16.857 225.663C17.2297 224.832 17.674 224.244 18.19 223.9C18.7347 223.527 19.351 223.341 20.039 223.341C20.6983 223.341 21.286 223.527 21.802 223.9C22.3467 224.244 22.8053 224.832 23.178 225.663L34.573 250.818C34.8883 251.477 35.003 252.079 34.917 252.624C34.831 253.169 34.5873 253.599 34.186 253.914C33.7847 254.201 33.2543 254.344 32.595 254.344C31.7923 254.344 31.1617 254.158 30.703 253.785C30.273 253.384 29.886 252.782 29.542 251.979L26.747 245.486L29.069 246.991H10.923L13.245 245.486L10.493 251.979C10.1203 252.81 9.73333 253.412 9.332 253.785C8.93067 254.158 8.35733 254.344 7.612 254.344ZM19.953 229.662L13.933 243.981L12.815 242.605H27.177L26.102 243.981L20.039 229.662H19.953ZM46.404 254.43C44.6554 254.43 43.2077 254.115 42.061 253.484C40.9144 252.825 40.0544 251.85 39.481 250.56C38.9364 249.27 38.664 247.665 38.664 245.744V235.338C38.664 234.421 38.8934 233.747 39.352 233.317C39.8107 232.858 40.47 232.629 41.33 232.629C42.19 232.629 42.8494 232.858 43.308 233.317C43.7954 233.747 44.039 234.421 44.039 235.338V245.83C44.039 247.321 44.34 248.424 44.942 249.141C45.544 249.858 46.5044 250.216 47.823 250.216C49.2564 250.216 50.4317 249.729 51.349 248.754C52.2664 247.751 52.725 246.432 52.725 244.798V235.338C52.725 234.421 52.9544 233.747 53.413 233.317C53.8717 232.858 54.531 232.629 55.391 232.629C56.251 232.629 56.9104 232.858 57.369 233.317C57.8564 233.747 58.1 234.421 58.1 235.338V251.592C58.1 253.427 57.2257 254.344 55.477 254.344C54.6457 254.344 54.0007 254.115 53.542 253.656C53.0834 253.169 52.854 252.481 52.854 251.592V248.324L53.456 249.614C52.854 251.162 51.9367 252.352 50.704 253.183C49.5 254.014 48.0667 254.43 46.404 254.43ZM73.3264 254.43C71.4631 254.43 69.9007 254.115 68.6394 253.484C67.4067 252.853 66.4894 251.936 65.8874 250.732C65.2854 249.499 64.9844 247.98 64.9844 246.174V237.015H62.7484C62.0604 237.015 61.5301 236.843 61.1574 236.499C60.7847 236.126 60.5984 235.625 60.5984 234.994C60.5984 234.335 60.7847 233.833 61.1574 233.489C61.5301 233.145 62.0604 232.973 62.7484 232.973H64.9844V229.06C64.9844 228.171 65.2137 227.498 65.6724 227.039C66.1597 226.58 66.8334 226.351 67.6934 226.351C68.5534 226.351 69.2127 226.58 69.6714 227.039C70.1301 227.498 70.3594 228.171 70.3594 229.06V232.973H74.9174C75.6054 232.973 76.1357 233.145 76.5084 233.489C76.8811 233.833 77.0674 234.335 77.0674 234.994C77.0674 235.625 76.8811 236.126 76.5084 236.499C76.1357 236.843 75.6054 237.015 74.9174 237.015H70.3594V245.873C70.3594 247.249 70.6604 248.281 71.2624 248.969C71.8644 249.657 72.8391 250.001 74.1864 250.001C74.6737 250.001 75.1037 249.958 75.4764 249.872C75.8491 249.786 76.1787 249.729 76.4654 249.7C76.8094 249.671 77.0961 249.786 77.3254 250.044C77.5547 250.273 77.6694 250.761 77.6694 251.506C77.6694 252.079 77.5691 252.595 77.3684 253.054C77.1964 253.484 76.8667 253.785 76.3794 253.957C76.0067 254.072 75.5194 254.172 74.9174 254.258C74.3154 254.373 73.7851 254.43 73.3264 254.43ZM89.5764 254.43C87.3977 254.43 85.5057 253.986 83.9004 253.097C82.295 252.208 81.048 250.947 80.1594 249.313C79.2707 247.65 78.8264 245.701 78.8264 243.465C78.8264 241.774 79.07 240.269 79.5574 238.95C80.0734 237.603 80.8044 236.456 81.7504 235.51C82.6964 234.535 83.8287 233.804 85.1474 233.317C86.466 232.801 87.9424 232.543 89.5764 232.543C91.7551 232.543 93.6471 232.987 95.2524 233.876C96.8577 234.765 98.1047 236.026 98.9934 237.66C99.8821 239.294 100.326 241.229 100.326 243.465C100.326 245.156 100.068 246.676 99.5524 248.023C99.0651 249.37 98.3484 250.531 97.4024 251.506C96.4564 252.452 95.3241 253.183 94.0054 253.699C92.6867 254.186 91.2104 254.43 89.5764 254.43ZM89.5764 250.345C90.6371 250.345 91.5687 250.087 92.3714 249.571C93.1741 249.055 93.7904 248.295 94.2204 247.292C94.6791 246.26 94.9084 244.984 94.9084 243.465C94.9084 241.172 94.4211 239.466 93.4464 238.348C92.4717 237.201 91.1817 236.628 89.5764 236.628C88.5157 236.628 87.5841 236.886 86.7814 237.402C85.9787 237.889 85.348 238.649 84.8894 239.681C84.4594 240.684 84.2444 241.946 84.2444 243.465C84.2444 245.73 84.7317 247.45 85.7064 248.625C86.681 249.772 87.971 250.345 89.5764 250.345ZM107.515 254.344C106.655 254.344 105.995 254.115 105.537 253.656C105.078 253.169 104.849 252.481 104.849 251.592V235.338C104.849 234.449 105.078 233.776 105.537 233.317C105.995 232.858 106.64 232.629 107.472 232.629C108.303 232.629 108.948 232.858 109.407 233.317C109.865 233.776 110.095 234.449 110.095 235.338V238.477L109.622 237.187C110.195 235.754 111.084 234.621 112.288 233.79C113.492 232.959 114.925 232.543 116.588 232.543C118.279 232.543 119.669 232.944 120.759 233.747C121.848 234.55 122.608 235.782 123.038 237.445H122.436C123.009 235.926 123.955 234.736 125.274 233.876C126.592 232.987 128.112 232.543 129.832 232.543C131.437 232.543 132.756 232.858 133.788 233.489C134.848 234.12 135.637 235.08 136.153 236.37C136.669 237.631 136.927 239.237 136.927 241.186V251.592C136.927 252.481 136.683 253.169 136.196 253.656C135.737 254.115 135.078 254.344 134.218 254.344C133.358 254.344 132.698 254.115 132.24 253.656C131.781 253.169 131.552 252.481 131.552 251.592V241.401C131.552 239.796 131.279 238.62 130.735 237.875C130.219 237.13 129.33 236.757 128.069 236.757C126.664 236.757 125.56 237.259 124.758 238.262C123.955 239.237 123.554 240.598 123.554 242.347V251.592C123.554 252.481 123.324 253.169 122.866 253.656C122.407 254.115 121.748 254.344 120.888 254.344C120.028 254.344 119.354 254.115 118.867 253.656C118.408 253.169 118.179 252.481 118.179 251.592V241.401C118.179 239.796 117.906 238.62 117.362 237.875C116.846 237.13 115.971 236.757 114.739 236.757C113.334 236.757 112.23 237.259 111.428 238.262C110.625 239.237 110.224 240.598 110.224 242.347V251.592C110.224 253.427 109.321 254.344 107.515 254.344ZM149.395 254.43C147.875 254.43 146.514 254.143 145.31 253.57C144.134 252.968 143.203 252.165 142.515 251.162C141.855 250.159 141.526 249.026 141.526 247.765C141.526 246.217 141.927 244.999 142.73 244.11C143.532 243.193 144.837 242.533 146.643 242.132C148.449 241.731 150.871 241.53 153.91 241.53H156.06V244.626H153.953C152.175 244.626 150.756 244.712 149.696 244.884C148.635 245.056 147.875 245.357 147.417 245.787C146.987 246.188 146.772 246.762 146.772 247.507C146.772 248.453 147.101 249.227 147.761 249.829C148.42 250.431 149.337 250.732 150.513 250.732C151.459 250.732 152.29 250.517 153.007 250.087C153.752 249.628 154.34 249.012 154.77 248.238C155.2 247.464 155.415 246.575 155.415 245.572V240.627C155.415 239.194 155.099 238.162 154.469 237.531C153.838 236.9 152.777 236.585 151.287 236.585C150.455 236.585 149.552 236.685 148.578 236.886C147.632 237.087 146.628 237.431 145.568 237.918C145.023 238.176 144.536 238.248 144.106 238.133C143.704 238.018 143.389 237.789 143.16 237.445C142.93 237.072 142.816 236.671 142.816 236.241C142.816 235.811 142.93 235.395 143.16 234.994C143.389 234.564 143.776 234.249 144.321 234.048C145.639 233.503 146.901 233.116 148.105 232.887C149.337 232.658 150.455 232.543 151.459 232.543C153.523 232.543 155.214 232.858 156.533 233.489C157.88 234.12 158.883 235.08 159.543 236.37C160.202 237.631 160.532 239.265 160.532 241.272V251.592C160.532 252.481 160.317 253.169 159.887 253.656C159.457 254.115 158.84 254.344 158.038 254.344C157.235 254.344 156.604 254.115 156.146 253.656C155.716 253.169 155.501 252.481 155.501 251.592V249.528H155.845C155.644 250.531 155.243 251.406 154.641 252.151C154.067 252.868 153.336 253.427 152.448 253.828C151.559 254.229 150.541 254.43 149.395 254.43ZM175.619 254.43C173.756 254.43 172.194 254.115 170.932 253.484C169.7 252.853 168.782 251.936 168.18 250.732C167.578 249.499 167.277 247.98 167.277 246.174V237.015H165.041C164.353 237.015 163.823 236.843 163.45 236.499C163.078 236.126 162.891 235.625 162.891 234.994C162.891 234.335 163.078 233.833 163.45 233.489C163.823 233.145 164.353 232.973 165.041 232.973H167.277V229.06C167.277 228.171 167.507 227.498 167.965 227.039C168.453 226.58 169.126 226.351 169.986 226.351C170.846 226.351 171.506 226.58 171.964 227.039C172.423 227.498 172.652 228.171 172.652 229.06V232.973H177.21C177.898 232.973 178.429 233.145 178.801 233.489C179.174 233.833 179.36 234.335 179.36 234.994C179.36 235.625 179.174 236.126 178.801 236.499C178.429 236.843 177.898 237.015 177.21 237.015H172.652V245.873C172.652 247.249 172.953 248.281 173.555 248.969C174.157 249.657 175.132 250.001 176.479 250.001C176.967 250.001 177.397 249.958 177.769 249.872C178.142 249.786 178.472 249.729 178.758 249.7C179.102 249.671 179.389 249.786 179.618 250.044C179.848 250.273 179.962 250.761 179.962 251.506C179.962 252.079 179.862 252.595 179.661 253.054C179.489 253.484 179.16 253.785 178.672 253.957C178.3 254.072 177.812 254.172 177.21 254.258C176.608 254.373 176.078 254.43 175.619 254.43ZM191.869 254.43C189.691 254.43 187.799 253.986 186.193 253.097C184.588 252.208 183.341 250.947 182.452 249.313C181.564 247.65 181.119 245.701 181.119 243.465C181.119 241.774 181.363 240.269 181.85 238.95C182.366 237.603 183.097 236.456 184.043 235.51C184.989 234.535 186.122 233.804 187.44 233.317C188.759 232.801 190.235 232.543 191.869 232.543C194.048 232.543 195.94 232.987 197.545 233.876C199.151 234.765 200.398 236.026 201.286 237.66C202.175 239.294 202.619 241.229 202.619 243.465C202.619 245.156 202.361 246.676 201.845 248.023C201.358 249.37 200.641 250.531 199.695 251.506C198.749 252.452 197.617 253.183 196.298 253.699C194.98 254.186 193.503 254.43 191.869 254.43ZM191.869 250.345C192.93 250.345 193.862 250.087 194.664 249.571C195.467 249.055 196.083 248.295 196.513 247.292C196.972 246.26 197.201 244.984 197.201 243.465C197.201 241.172 196.714 239.466 195.739 238.348C194.765 237.201 193.475 236.628 191.869 236.628C190.809 236.628 189.877 236.886 189.074 237.402C188.272 237.889 187.641 238.649 187.182 239.681C186.752 240.684 186.537 241.946 186.537 243.465C186.537 245.73 187.025 247.45 187.999 248.625C188.974 249.772 190.264 250.345 191.869 250.345ZM209.808 254.344C208.919 254.344 208.231 254.115 207.744 253.656C207.285 253.169 207.056 252.481 207.056 251.592V235.338C207.056 234.449 207.285 233.776 207.744 233.317C208.202 232.858 208.847 232.629 209.679 232.629C210.51 232.629 211.155 232.858 211.614 233.317C212.072 233.776 212.302 234.449 212.302 235.338V238.047H211.872C212.273 236.327 213.061 235.023 214.237 234.134C215.412 233.245 216.974 232.715 218.924 232.543C219.526 232.486 219.999 232.643 220.343 233.016C220.715 233.36 220.93 233.905 220.988 234.65C221.045 235.367 220.873 235.954 220.472 236.413C220.099 236.843 219.526 237.101 218.752 237.187L217.806 237.273C216.057 237.445 214.738 237.99 213.85 238.907C212.961 239.796 212.517 241.057 212.517 242.691V251.592C212.517 252.481 212.287 253.169 211.829 253.656C211.37 254.115 210.696 254.344 209.808 254.344ZM235.075 254.344C234.301 254.344 233.67 254.158 233.183 253.785C232.724 253.412 232.351 252.825 232.065 252.022L223.078 226.609C222.762 225.692 222.82 224.918 223.25 224.287C223.708 223.656 224.468 223.341 225.529 223.341C226.303 223.341 226.905 223.527 227.335 223.9C227.765 224.244 228.109 224.803 228.367 225.577L236.107 248.539H234.387L242.471 225.62C242.757 224.846 243.116 224.273 243.546 223.9C243.976 223.527 244.535 223.341 245.223 223.341C245.911 223.341 246.455 223.527 246.857 223.9C247.258 224.273 247.602 224.86 247.889 225.663L255.715 248.539H254.21L262.079 225.577C262.337 224.832 262.681 224.273 263.111 223.9C263.541 223.527 264.128 223.341 264.874 223.341C265.791 223.341 266.465 223.656 266.895 224.287C267.325 224.918 267.382 225.692 267.067 226.609L257.994 252.065C257.707 252.839 257.334 253.412 256.876 253.785C256.417 254.158 255.801 254.344 255.027 254.344C254.253 254.344 253.636 254.158 253.178 253.785C252.719 253.412 252.346 252.825 252.06 252.022L244.578 230.694H245.567L237.999 252.065C237.712 252.839 237.339 253.412 236.881 253.785C236.451 254.158 235.849 254.344 235.075 254.344ZM275.034 254.344C274.145 254.344 273.457 254.1 272.97 253.613C272.511 253.097 272.282 252.395 272.282 251.506V226.48C272.282 225.563 272.525 224.875 273.013 224.416C273.5 223.929 274.188 223.685 275.077 223.685H285.44C288.765 223.685 291.331 224.516 293.137 226.179C294.943 227.842 295.846 230.164 295.846 233.145C295.846 236.126 294.943 238.463 293.137 240.154C291.331 241.817 288.765 242.648 285.44 242.648H277.786V251.506C277.786 252.395 277.556 253.097 277.098 253.613C276.639 254.1 275.951 254.344 275.034 254.344ZM277.786 238.305H284.58C286.529 238.305 288.005 237.875 289.009 237.015C290.012 236.126 290.514 234.836 290.514 233.145C290.514 231.454 290.012 230.178 289.009 229.318C288.005 228.458 286.529 228.028 284.58 228.028H277.786V238.305Z" fill="black"/>
<path d="M242 108.467C242 132.351 232.552 155.265 215.716 172.213C198.881 189.16 176.025 198.765 152.133 198.932C128.241 199.099 105.252 189.814 88.1813 173.104C71.1106 156.393 61.3429 133.613 61.0089 109.732C60.6748 85.8502 69.8016 62.8057 86.3984 45.6248C102.995 28.4438 125.715 18.5207 149.602 18.0199C173.49 17.5191 196.606 26.4813 213.909 42.9514C231.211 59.4216 241.297 82.0633 241.965 105.938" fill="#FEBD17"/>
<path d="M223.553 112.557C223.117 133.175 208.68 136.1 200.749 137.859C181.384 132.479 197.517 91.0257 205.428 90.3527C208.909 90.3168 223.555 97.2363 223.553 112.557Z" fill="#DADBDD"/>
<path d="M79.6286 112.557C80.0642 133.176 94.5012 136.101 102.433 137.859C121.797 132.479 105.664 91.0258 97.7539 90.3528C94.2721 90.3169 79.6263 97.2364 79.6286 112.557Z" fill="#DADBDD"/>
<path d="M153.934 50.8521H149.062C148.995 50.8521 148.942 56.9916 148.942 64.5651C148.942 72.1387 148.995 78.2782 149.062 78.2782H153.934C154 78.2782 154.053 72.1387 154.053 64.5651C154.053 56.9916 154 50.8521 153.934 50.8521Z" fill="#EEEFF1"/>
<path d="M140.668 162.375C125.111 162.375 112.41 174.225 110.965 189.386C123.73 195.818 137.838 199.067 152.132 198.999C165.994 198.893 179.646 195.606 192.036 189.391C190.625 174.195 177.91 162.375 162.328 162.375H140.668Z" fill="#EEEFF1"/>
<path d="M162.624 155.437H140.368C138.804 155.437 137.536 156.705 137.536 158.269V160.996C137.536 162.56 138.804 163.828 140.368 163.828H162.624C164.188 163.828 165.456 162.56 165.456 160.996V158.269C165.456 156.705 164.188 155.437 162.624 155.437Z" fill="#DADBDD"/>
<path d="M174.233 71.2369H128.934C107.388 71.2369 89.921 88.7035 89.921 110.25V118.052C89.921 139.598 107.388 157.065 128.934 157.065H174.233C195.779 157.065 213.246 139.598 213.246 118.052V110.25C213.246 88.7035 195.779 71.2369 174.233 71.2369Z" fill="#EEEFF1"/>
<path d="M169.257 80.4619H133.739C116.845 80.4619 103.151 94.1568 103.151 111.05V117.168C103.151 134.061 116.845 147.756 133.739 147.756H169.257C186.15 147.756 199.845 134.061 199.845 117.168V111.05C199.845 94.1568 186.15 80.4619 169.257 80.4619Z" fill="#353849"/>
<path d="M163.513 47.9093C163.513 51.0805 162.258 54.1229 160.023 56.3731C157.788 58.6233 154.753 59.8985 151.581 59.9207C148.408 59.9429 145.356 58.7102 143.089 56.4914C140.823 54.2727 139.526 51.2481 139.482 48.0772C139.437 44.9064 140.649 41.8466 142.853 39.5655C145.056 37.2843 148.073 35.9667 151.245 35.9002C154.416 35.8337 157.485 37.0237 159.783 39.2105C162.08 41.3973 163.419 44.4036 163.508 47.5735" fill="#F75B38"/>
<path d="M135.34 107.431C135.34 109.178 134.649 110.854 133.418 112.094C132.186 113.333 130.515 114.036 128.767 114.048C127.02 114.06 125.338 113.381 124.09 112.159C122.841 110.937 122.127 109.271 122.103 107.524C122.078 105.777 122.746 104.092 123.96 102.835C125.173 101.579 126.835 100.853 128.582 100.816C130.329 100.78 132.02 101.435 133.285 102.64C134.551 103.844 135.288 105.5 135.337 107.246" fill="#4CEEDF"/>
<path d="M180.866 107.431C180.866 109.178 180.175 110.854 178.943 112.093C177.712 113.333 176.041 114.035 174.293 114.047C172.546 114.059 170.864 113.38 169.616 112.158C168.367 110.936 167.653 109.27 167.629 107.523C167.604 105.777 168.272 104.091 169.485 102.835C170.699 101.578 172.361 100.852 174.108 100.816C175.855 100.779 177.546 101.435 178.811 102.639C180.077 103.844 180.814 105.5 180.863 107.246" fill="#4CEEDF"/>
<path d="M161.743 118.932C161.52 118.935 161.3 118.982 161.095 119.071C160.89 119.159 160.704 119.287 160.549 119.447C160.393 119.607 160.271 119.796 160.189 120.003C160.107 120.211 160.066 120.432 160.07 120.655C160.07 125.152 156.352 128.691 151.567 128.724C146.81 128.756 143.01 125.127 142.945 120.63C142.948 120.403 142.906 120.177 142.821 119.967C142.736 119.756 142.609 119.565 142.449 119.404C142.288 119.243 142.097 119.116 141.886 119.031C141.676 118.946 141.45 118.903 141.223 118.907C140.996 118.91 140.771 118.959 140.564 119.051C140.356 119.142 140.168 119.275 140.012 119.44C139.857 119.605 139.736 119.801 139.657 120.014C139.578 120.227 139.542 120.453 139.553 120.68C139.645 127.067 145.073 132.158 151.592 132.114C158.084 132.071 163.467 127.042 163.467 120.655C163.47 120.428 163.428 120.202 163.343 119.992C163.257 119.781 163.13 119.59 162.97 119.429C162.809 119.268 162.618 119.141 162.407 119.056C162.196 118.971 161.97 118.929 161.743 118.932Z" fill="#4CEEDF"/>
</svg>
