<svg id="Capa_1" enable-background="new 0 0 512 512" height="512" viewBox="0 0 512 512" width="512" xmlns="http://www.w3.org/2000/svg"><g><path d="m512 256v-191.203l-45.502 45.502c-46.217-66.645-123.253-110.299-210.498-110.299l-60 68.382 60 68.382c49.754 0 92.383 30.477 110.256 73.777l-45.459 45.459z" fill="#16a5d9"/><path d="m64.797 0 45.502 45.502c-66.645 46.217-110.299 123.253-110.299 210.498l68.382 45 68.382-45c0-49.754 30.477-92.383 73.778-110.256l45.458 45.459v-191.203z" fill="#4ad0ff"/><path d="m145.744 301.459 45.459-45.459h-191.203v191.203l45.502-45.502c46.217 66.645 123.253 110.299 210.498 110.299v-136.763c-49.754 0-92.383-30.478-110.256-73.778z" fill="#d0cdcd"/></g></svg>