<svg id="Layer_1" data-name="Layer 1" xmlns="http://www.w3.org/2000/svg" viewBox="0 0 300 300"><defs><style>.cls-1{fill:#ff7b01;}.cls-2{fill:#fff;}.cls-3{fill:#cfa756;}.cls-4{fill:none;}</style></defs><path class="cls-1" d="M243.18,159.54V68.92a14,14,0,0,0-7-12.09L157.71,11.51a14,14,0,0,0-14,0L65.26,56.84a14,14,0,0,0-7,12.09v90.62a14,14,0,0,0,7,12.09L143.75,217a14,14,0,0,0,14,0l78.48-45.32a14,14,0,0,0,7-12.09h0"/><path class="cls-2" d="M86.81,158.88a10.94,10.94,0,0,0-1.32-2.27s-6,3.78-11.52-4.34-3.78-34.36-3.78-34.36-10.57-.38-13-10.76,9.07-19.83,13.41-22.09c1.14-9.44,2.83-13.78,2.83-13.78s-11.89-5.67-9.25-22.85S86.05,22.19,99.08,32c27.75-20.4,63.44-21.71,89.3-6,8.31-5.66,20-7,29.83,4s3,24.73-.94,28.13a46.52,46.52,0,0,1,5.09,11s10.95,5.67,14.16,14.73-6,14-6,14,5.56,15,4.91,27.75c-.76,14.92-6.23,20.2-10.95,19.64a45.07,45.07,0,0,1-8.87,16.42c4.19,4.4,8.06,11.48,10.32,16.07L157.71,217a14,14,0,0,1-14,0L68.48,173.5C73,169.27,81.69,161.41,86.81,158.88Z"/><path class="cls-3" d="M102.85,160.26a116.91,116.91,0,0,1-13.21-19.63s-8.64,9.23-9.42-6.33-.4-25-.4-25-15.86-.38-13.59-6.8S81,87,81,87s.75-14,4.15-21.52c-9.44-3.77-12.84-9.82-8.68-19.64s17-12.08,23-3.39c27.94-22.29,69.86-21.91,90.25-4.54,7.55-9.44,17-10.57,23.41-1.14s-6.42,18.89-6.42,18.89l7.56,17s12.68,7.63,12.95,13.44-6.54,3.18-6.54,3.18,7.55,23,6.8,35.48-7.93,7.94-7.93,7.94A75.16,75.16,0,0,1,204,160.64a102.57,102.57,0,0,1,13,22.08L157.71,217a14,14,0,0,1-14,0L76.48,178.12A139.14,139.14,0,0,1,102.85,160.26ZM166,39.47a17.18,17.18,0,1,0,8.59,14.88A17.18,17.18,0,0,0,166,39.47Zm30,51.3a13.6,13.6,0,1,0,6.54,11.34A13.6,13.6,0,0,0,196,90.77Zm-62.8,5.45a13.33,13.33,0,1,0,6.42,11.12A13.33,13.33,0,0,0,133.19,96.22ZM155,153.84l16.24-2.26,1.13-11.71-9.82-3.4-10.57,6Z"/><path class="cls-1" d="M158,81.85c-42.54,4-67,12.33-89.62,24.16-5-1.76,4.28-12.33,12.59-19A54.17,54.17,0,0,1,85.1,65.49a32.73,32.73,0,0,0,12-2c2-6.8,7.81-12.59,7.81-12.59a36.66,36.66,0,0,0-4.53-8.05C108.13,31.76,138.6,20.68,169.81,28S213.36,73,213.36,73s14.6,6.55,13.85,15.11c-10.58-5-40.09-9-69.23-6.3Zm8-42.38a17.18,17.18,0,1,0,8.59,14.88A17.18,17.18,0,0,0,166,39.47Z"/><path d="M193.42,110.38a7.57,7.57,0,1,1,5.34-12.95,10.18,10.18,0,0,0-.58-1.14A11,11,0,1,0,196,109.92,7.58,7.58,0,0,1,193.42,110.38Zm-51.9-2.48a15.74,15.74,0,0,1-2.12,7.89,16.36,16.36,0,0,1-2.29,3.07c-6,6.7-12.85,6.67-12.34,6.36s1.67-.93,3-1.67a15.78,15.78,0,1,1,13.78-15.65Zm-5.79-5.77a11.54,11.54,0,1,0-1.54,13.62,8.07,8.07,0,1,1,.77-14,8.41,8.41,0,0,1,1,.77ZM191.58,118c-2.85.33-9.16-1.43-12.41-4.56a15.05,15.05,0,1,1,22.56-4.15h0a14.92,14.92,0,0,1-12.89,7.52C190.53,117.46,192.54,117.89,191.58,118Zm-93-61.52a21.67,21.67,0,0,1,3.86-4.72c-1-2.24-4.24-8.71-11.27-10.79-8.56-2.55-15.27,9.37-11.45,16.54,3.22,6.07,12.57,5,16.3,4.42a25,25,0,0,1,2.56-5.46Zm11.22-8.22c.81.46-4,3-8.1,9.61a55.27,55.27,0,0,0-5.9,12c-.29.69-.87-.61-.74-3.12a30,30,0,0,1-6.24,1.71,80.92,80.92,0,0,0-3.25,12.83q1.11-.63,2.25-1.23c23.69-12.68,40.28-16.73,51.27-18.48a19.52,19.52,0,1,1,36.43-.71,148.48,148.48,0,0,1,33,7.51A71.2,71.2,0,0,0,184.72,38c-19.9-14.24-56.13-10.53-74.06,1.5a54.52,54.52,0,0,0-6.09,4.73,26.84,26.84,0,0,1,2,4.8C108.24,48.21,109.49,48.06,109.84,48.26ZM73.74,64.11C65.41,55.09,71,38.88,81.61,35a17.63,17.63,0,0,1,18,3c13.23-11,32.63-17.24,50.81-17.15a69.32,69.32,0,0,1,39.16,11.9,14.44,14.44,0,0,1,6.09-5.07c6.6-3.07,19.24.85,22.1,12.46,2.05,8.31-3.76,14.25-6.82,16.71a95.08,95.08,0,0,1,6.78,15.48c1,.5,1.86,1,2.62,1.44,12.81,7.57,12.35,14.36,9.88,17-.56.6-2.46,1.72-5.59,3.15A127.49,127.49,0,0,1,229.2,111c4.16,20.37-2.32,30.7-7.56,27.31a49.34,49.34,0,0,1-13.74,23.47,53.58,53.58,0,0,1,12.83,18.84l-6.86,4a72.22,72.22,0,0,0-12.46-17.61c-4.31,2.81-7.88,4-9.09,3.43-3.24-1.38,2.94-1.84,13.12-17s10.49-27.93,10.49-27.93,3.71,4.17,5.09,3.55,4-7.25,0-22.84c-3-11.78-6.33-17.83-7.76-20.08-2.51-.57-5.48-1.14-9-1.62.63,1.7-1.74,2-3.49.72a13.36,13.36,0,0,0-3-1.48q-7.25-.67-14.53-.81c-2.51.92-4.83,2-6.1,1.83s-.93-1.1-.55-1.86c-5.6,0-11.78.29-18.58.78-7.26.51-14,1.29-20.37,2.26,1.28,1.71,1,3.6,0,3.6-.8,0-2.92-1.83-7-2.43q-7.47,1.37-14.84,3.24c-3.45,2.16-4,4.3-5.49,4-1-.22-1.22-1.23-1.12-2.19a205.19,205.19,0,0,0-23.19,8.19c-.52,3.31-1.43,10.13-2.08,20.08-.92,14.51.16,23.3,6.48,12.19,7,16.67,13.25,27.38,27,35.8,1.82,1.11-3.78,2.69-13-3.4a92.23,92.23,0,0,0-23.48,15.81l-6.87-4a93.8,93.8,0,0,1,23.31-17.55,83.16,83.16,0,0,1-9.79-11.41c-2.63,4.16-10.8,5.71-12-11.11A151.92,151.92,0,0,1,76,113.36c-5.64-.6-8.29-1.62-10.38-3.34-5-4.07-4.46-12.28,10.73-23a75.64,75.64,0,0,1,4-18.91A14,14,0,0,1,73.74,64.11ZM203.28,33.33a9.45,9.45,0,0,0-8.4,3.43,69.68,69.68,0,0,1,12.33,13.89c8.94-5.7,2.22-16.66-3.93-17.32Zm11.11,44c-12.47-6.41-28-9.82-41.83-11a19.56,19.56,0,0,1-30,.88,135.09,135.09,0,0,0-41.93,12.73c-16.38,8.23-29.54,17.12-30.1,22.63C76.28,99.08,92.12,91,125.66,83.79c41.44-9,77.74-5.21,97.66,1C222.76,82.51,219.77,80.07,214.39,77.31ZM170.87,54.24A13.66,13.66,0,1,0,157.22,67.9,13.65,13.65,0,0,0,170.87,54.24Zm13.27,90.5c-4,7.41-10.95,19.29-22.52,20.21s-20.26-7.89-32-22.22c-3.39-4.17,1.86-3.28,3.24-2.93a48.12,48.12,0,0,0,12.19,1.39c7.72-.24,14.51-7.25,17-7.25s7.71,3.54,11,3.54,12.18-2.31,14-3.08S188.15,137.33,184.14,144.74Zm-14.81-4.13c-3.12-.92-5.21-2.54-6.6-2.31s-7.29,4.17-7.29,4.17,1.74,7.4,2.78,7.87,7.87-.24,8.57-.7S169.1,145,169.33,140.61Zm-59,45.33c-.88,2.2-2.17,6-3.4,9.79l-5.35-3.09C107.4,184.33,111.91,182.11,110.38,185.94Zm81.48,5.86c-1.52-2.84,0-4.29,5.7,2.15L194,196c-.77-1.58-1.52-3.07-2.13-4.2Zm-29.78-61.41c-4.43.78-7.36-1.62-9.05-4.29-5.4-.53-7.95-2.55-8.39-5-.62-3.4,5.4-7.25,15.12-8.18C170.84,111.89,175,115.11,175,118c0,2-1.43,4.34-5.78,6A8.45,8.45,0,0,1,162.08,130.39Z"/><path class="cls-4" d="M243.18,162V66.51c0-3.49-1-42.54-4-44.29L155.63,10.31a9.8,9.8,0,0,0-9.8,0l-84.89,9c-3,1.76-2.66,43.69-2.66,47.18V162a9.81,9.81,0,0,0,4.9,8.49l82.65,47.71a9.8,9.8,0,0,0,9.8,0l82.65-47.71A9.81,9.81,0,0,0,243.18,162Z"/><path d="M49,271.91h0a15.47,15.47,0,1,1-12.41-24.69,14.46,14.46,0,0,1,12.09,6l-5.37,3.43A9.17,9.17,0,0,0,36.52,254a8.69,8.69,0,1,0,6.27,14.72v-3.07H33.9V260H49Z"/><path d="M65.63,253.81v5.91a7.82,7.82,0,0,0-1.45-.13c-3.34,0-6.22,2.57-6.22,7.08v10.75H51v-23.2h7v2.71a5.5,5.5,0,0,1,5.5-3.39A8.84,8.84,0,0,1,65.63,253.81Z"/><path d="M89.32,265.91a12.72,12.72,0,0,1-1,4.83,12.37,12.37,0,0,1-2.66,3.92,11.72,11.72,0,0,1-3.93,2.67,12,12,0,0,1-4.83,1,12.68,12.68,0,0,1-4.83-.95,13.3,13.3,0,0,1-4-2.66,12.82,12.82,0,0,1-2.66-3.93,12.68,12.68,0,0,1-1-4.83,11.8,11.8,0,0,1,1-4.83,12.53,12.53,0,0,1,2.66-4A12.25,12.25,0,0,1,72,254.49a12.72,12.72,0,0,1,4.83-1,11.76,11.76,0,0,1,4.82,1,12,12,0,0,1,4,2.62,13.18,13.18,0,0,1,2.66,4A13.53,13.53,0,0,1,89.32,265.91Zm-6.18,0a6.25,6.25,0,1,0-6.23,6.27A6.26,6.26,0,0,0,83.14,265.91Z"/><path d="M91,265.68V254.17h7v11.51c0,3.7,1.27,5.64,5.37,5.64a5.32,5.32,0,0,0,5.28-5.46s.09-7.22.09-11.69h7v23.25h-7v-1.85a9,9,0,0,1-6.18,2.61C93.07,278.18,91,271.14,91,265.68Z"/><path d="M142.53,265.91v11.51h-7V265.91c0-3.7-1.27-5.64-5.42-5.64a5.36,5.36,0,0,0-5.28,5.5v11.65h-7.09V254.17h7V256a9.11,9.11,0,0,1,6.23-2.61C140.5,253.41,142.53,260.45,142.53,265.91Z"/><path d="M171.1,245.51v31.91h-7v-1.76a13,13,0,0,1-7.63,2.57,12.48,12.48,0,1,1,0-25,12.93,12.93,0,0,1,7.63,2.57V245.51Zm-8.4,20.22a6.27,6.27,0,1,0-9.37,5.5,6.38,6.38,0,0,0,3.1.82,6.28,6.28,0,0,0,6.27-6.32Z"/><path d="M198.81,267v10.47h-6.95V267c0-3.43-1.4-5.69-5.55-5.69a5.55,5.55,0,0,0-5.46,5.55v10.61h-7.09v-32h7.09v11.11a9.09,9.09,0,0,1,6.27-2.71C196.78,253.86,198.81,261.44,198.81,267Z"/><path d="M225.26,265.91a12.73,12.73,0,0,1-1,4.83,12.21,12.21,0,0,1-2.66,3.92,11.62,11.62,0,0,1-3.93,2.67,11.93,11.93,0,0,1-4.83,1,12.66,12.66,0,0,1-4.82-.95,13.22,13.22,0,0,1-4-2.66,13,13,0,0,1-2.66-3.93,12.68,12.68,0,0,1-.95-4.83,12,12,0,0,1,.95-4.83,12.7,12.7,0,0,1,2.66-4,12.36,12.36,0,0,1,3.93-2.66,12.72,12.72,0,0,1,4.83-1,11.8,11.8,0,0,1,4.83,1,12.1,12.1,0,0,1,4,2.62,13,13,0,0,1,2.66,4A13.76,13.76,0,0,1,225.26,265.91Zm-6.19,0a6.24,6.24,0,1,0-6.23,6.27A6.25,6.25,0,0,0,219.07,265.91Z"/><path d="M252.11,254.17v22.7c0,6.19-4.38,14.13-14.13,14.13a15.3,15.3,0,0,1-8.75-3l4.69-5.24a7.13,7.13,0,0,0,11.15-5.32,12.64,12.64,0,1,1-5.69-23.92,8.91,8.91,0,0,1,5.73,2v-1.31Zm-7,11.83a6.44,6.44,0,0,0-6.32-6.41,6.28,6.28,0,0,0,0,12.55,6.39,6.39,0,0,0,6.32-6.14Z"/><path d="M279,254.17v22.7c0,6.19-4.38,14.13-14.13,14.13a15.3,15.3,0,0,1-8.75-3l4.69-5.24a7.13,7.13,0,0,0,11.15-5.32,12.64,12.64,0,1,1-5.69-23.92,8.94,8.94,0,0,1,5.74,2v-1.31ZM272,266a6.44,6.44,0,0,0-6.32-6.41,6.28,6.28,0,0,0,0,12.55A6.4,6.4,0,0,0,272,266Z"/></svg>