<svg width="300" height="300" viewBox="0 0 300 300" fill="none" xmlns="http://www.w3.org/2000/svg">
<path d="M110.221 11.9607C113.037 10.2892 115.246 10.8574 117.227 13.2102C120.957 17.6392 125.922 17.191 130.77 16.8445C132.924 16.6904 134.343 14.7507 135.864 13.3802C138.14 11.3287 140.199 10.3196 143.229 11.8205C144.85 12.6234 146.61 13.4389 148.502 13.7448C149.799 13.9545 150.586 15.1996 150.356 16.6098C149.961 19.0234 150.204 21.5175 149.379 23.881C148.7 25.8261 149.144 27.5647 149.927 29.568C152.037 34.9674 155.663 38.0671 160.827 39.583C162.557 40.0912 163.62 41.3402 163.406 43.6399C163.172 46.1662 163.259 48.7417 163.386 51.2856C163.479 53.1596 162.651 54.1789 161.167 54.8057C159.588 55.4732 158 56.1204 156.405 56.7431C154.389 57.5295 152.864 58.9115 152.056 61.0258C151.026 63.7222 148.203 65.7801 149.094 69.1311C149.635 71.1668 149.864 73.1985 150.13 75.265C150.696 79.6733 150.605 79.9629 146.823 81.4922C146.585 81.5883 146.301 81.5806 146.086 81.7106C141.321 84.5909 137.499 82.8617 133.676 79.3394C130.382 76.3051 123.335 76.5399 119.855 79.2775C118.487 80.3536 117.101 81.4158 115.822 82.6046C114.691 83.6557 113.405 83.5597 112.185 83.2469C110.284 82.7596 108.402 82.1207 106.584 81.3535C103.381 80.0021 102.69 78.097 103.596 73.6798C103.778 72.7947 104.005 71.917 104.134 71.0232C105.108 64.2334 101.337 57.6062 93.3235 55.0725C90.8423 54.288 89.8197 52.9245 90.0538 50.1872C90.2315 48.109 90.2174 45.9881 90.0531 43.9073C89.8783 41.6939 90.5169 40.2428 92.5906 39.6207C93.2432 39.4249 93.8489 39.0245 94.5074 38.8832C99.8058 37.7461 101.962 33.174 104.037 28.7154C105.084 26.4661 104.293 23.8294 103.875 21.4702C102.684 14.7577 102.89 14.2227 109.036 12.3188C109.364 12.2171 109.69 12.1064 110.221 11.9607ZM112.49 52.6801C115.066 60.8844 124.421 66.034 132.899 62.0459C140.129 58.645 144.387 49.2395 140.809 40.7452C137.54 32.9846 128.995 28.9204 122.115 31.7541C113.745 35.2012 109.777 43.5107 112.49 52.6801Z" fill="#B80162"/>
<path d="M165.015 83.8503C157.949 81.4878 158.199 81.4711 157.758 73.8799C157.502 69.4635 158.23 66.3818 162.66 65.4274C167.565 64.3707 169.332 59.9524 171.467 55.9358C172.044 54.8497 172.087 53.684 171.79 52.48C171.05 49.4826 171.79 46.3081 170.674 43.2886C170.263 42.1752 171.44 40.9466 172.659 40.4941C175.055 39.6051 177.482 38.8153 179.88 37.9361C180.935 37.5494 181.858 37.574 182.727 38.4147C183.166 38.8403 183.754 39.0974 184.168 39.544C187.385 43.0074 191.209 44.1333 195.742 43.797C198.184 43.6158 200.423 43.2646 201.946 41.3033C205.438 36.8068 209.443 37.8094 213.608 39.638C218.085 41.604 218.218 41.7044 217.205 46.9284C216.22 52.0076 216.824 56.5745 219.572 60.968C221.513 64.0718 224.525 64.9824 227.378 66.1277C229.972 67.1688 231.481 68.5245 231.053 71.693C230.908 72.7688 231.026 73.8857 231.025 74.9838C231.021 80.7212 231.148 81.2242 225.967 82.7347C220.946 84.1986 218.782 88.1462 217.111 92.4764C215.908 95.5939 216.934 99.1539 217.356 102.5C217.447 103.223 217.617 103.945 217.621 104.668C217.629 106.144 216.913 106.682 215.633 106.125C207.776 102.707 199.512 101.783 191.164 101.917C185.761 102.004 180.308 102.123 175.024 103.788C171.591 104.869 171.377 104.634 171.451 100.929C171.492 98.9242 171.322 96.9041 171.892 94.9347C172.011 94.5254 172.036 93.9395 171.849 93.5959C169.954 90.1232 169.069 85.833 165.015 83.8503ZM206.267 84.0547C209.636 79.2189 210.161 73.9186 208.365 68.3147C206.083 61.1902 196.953 55.124 188.157 59.2211C181.755 62.2036 177.742 70.6786 179.774 78.8039C181.321 84.9885 185.353 88.7984 190.794 90.1213C196.673 91.5505 202.067 89.6347 206.267 84.0547Z" fill="#B80162"/>
<path d="M87.0929 155.952C84.4214 155.475 83.1669 154.188 83.4718 151.278C83.7353 148.764 83.6279 146.232 84.0475 143.69C84.8211 139.004 80.656 132.946 75.5264 130.616C69.0274 127.663 70.4961 129.194 70.0611 122.072C69.7777 117.431 70.3086 114.006 75.384 112.951C80.1476 111.961 81.855 107.589 83.732 103.524C84.38 102.121 84.3781 100.618 84.034 99.2478C83.3778 96.6342 83.7082 93.9936 83.4729 91.3814C83.2695 89.1242 84.5213 88.3123 86.1437 87.719C86.6198 87.545 87.2563 87.7192 87.6469 87.4508C92.3731 84.2028 96.1078 86.0505 99.8356 89.6612C102.883 92.6126 110.144 92.4815 113.5 89.8569C114.052 89.4249 114.574 88.9441 115.15 88.5521C116.727 87.479 118.138 85.0862 119.772 85.3924C122.89 85.9765 126.082 86.8419 128.954 88.4679C130.102 89.1177 130.64 90.2322 130.478 91.6693C130.324 93.0224 130.498 94.5125 130.018 95.7125C127.731 101.431 130.723 105.69 133.372 110.013C134.612 112.036 137.066 112.107 138.865 113.274C140.403 114.271 143.029 114.027 143.379 116.26C143.726 118.473 141.283 119.077 139.931 120.201C132.614 126.287 126.596 133.489 122.811 142.594C121.1 146.711 120.798 151.174 120.385 155.588C120.321 156.273 120.772 157.088 119.954 157.542C119.146 157.991 118.46 157.511 117.821 157.051C117.254 156.644 116.692 156.214 116.192 155.72C113.3 152.868 110.059 151.625 105.96 151.785C102.767 151.909 100.318 152.95 98.1724 155.159C95.4981 157.911 92.6119 158.7 89.2269 156.73C88.6341 156.385 87.9381 156.24 87.0929 155.952ZM121.292 126.472C122.8 123.945 122.504 121.052 121.949 118.514C120.098 110.041 111.155 102.33 101.172 106.611C95.8624 108.888 91.7956 114.588 91.5631 120.566C91.3424 126.242 93.1071 131.071 97.383 134.404C100.942 137.178 104.797 138.959 109.683 137.595C115.392 136.001 119.264 132.781 121.292 126.472Z" fill="#B80162"/>
<path d="M155.303 139.116C160.363 133.012 167.115 129.765 173.006 125.271C155.121 133.013 139.055 142.971 132.428 164.498C130.682 161.322 130.867 158.151 131.35 155.062C133.035 144.275 138.605 136.014 146.258 129.134C152.32 123.685 159.122 119.658 166.635 117.109C175.849 113.985 185.266 112.063 194.945 111.257C198.555 110.956 201.933 111.114 205.319 111.691C205.543 112.629 205.147 113.027 204.68 113.245C198.141 116.299 194.743 122.518 191.539 128.736C188.002 135.6 184.758 142.673 179.452 148.188C174.494 153.343 168.22 155.858 161.559 157.466C156.714 158.635 151.827 158.955 146.898 158.939C144.223 158.93 143.586 157.887 144.827 155.425C147.74 149.646 150.859 144.007 155.303 139.116Z" fill="#B80162"/>
<path d="M113.89 209.132C113.275 206.149 111.239 205.067 108.768 205.028C106.248 204.988 104.064 205.981 102.908 208.507C102.012 210.465 101.426 212.427 101.476 214.655C101.601 220.135 101.461 225.621 101.538 231.103C101.566 233.093 100.865 234.019 98.8126 233.999C89.326 233.906 91.1728 234.967 91.1 226.712C90.9911 214.353 91.1441 201.991 91.0337 189.632C91.0101 186.992 91.7376 185.769 94.4863 186.205C95.0293 186.291 95.605 186.251 96.1569 186.191C102.579 185.484 101.451 186.634 101.511 191.482C101.545 194.234 101.517 196.988 101.517 200.198C104.308 198.617 106.404 196.945 109.296 196.558C118.369 195.344 124.683 200.319 124.894 209.433C125.059 216.585 124.915 223.744 124.999 230.898C125.024 233.011 124.229 234.002 122.084 233.98C113.078 233.887 114.638 235.029 114.531 226.81C114.47 222.164 114.522 217.517 114.535 212.87C114.538 211.659 114.589 210.448 113.89 209.132Z" fill="black"/>
<path d="M232.796 225.308C237.818 228.323 242.636 226.734 247.376 225.172C250.304 224.207 251.089 224.575 251.191 227.63C251.329 231.762 250.816 232.482 246.777 233.655C239.691 235.711 232.729 235.647 226.262 231.792C221.721 229.084 219.512 224.69 219.179 219.604C218.87 214.865 218.7 210.09 220.965 205.561C223.812 199.871 231.208 196.223 238.669 197.141C250.958 198.654 253.274 207.394 252.976 216.7C252.918 218.51 251.571 218.822 250 218.813C244.213 218.78 238.425 218.795 232.637 218.802C229.282 218.807 229.114 219.081 230.448 222.044C230.982 223.231 231.509 224.403 232.796 225.308ZM242.592 209.257C241.153 206.027 238.612 204.132 235.836 204.622C232.116 205.278 230.527 206.732 230.076 211.226C233.912 211.739 237.749 211.796 241.6 211.346C242.566 211.233 242.65 210.449 242.592 209.257Z" fill="black"/>
<path d="M79.184 187.164C79.6362 187.163 79.8237 187.163 80.0113 187.162C85.485 187.141 86.9216 188.995 85.4696 194.221C85.1397 195.408 84.4304 196.054 83.0498 196.004C80.6231 195.916 78.1892 196.003 75.7638 195.898C73.5071 195.799 72.6274 196.619 72.6487 198.92C72.7452 209.305 72.6919 219.692 72.6768 230.079C72.6716 233.679 72.4041 233.981 68.6717 233.967C61.5531 233.941 61.8189 234.96 61.8505 227.39C61.8905 217.824 61.8289 208.257 61.939 198.692C61.9612 196.758 61.2874 196.073 59.3845 196.074C56.6689 196.075 53.9528 195.865 51.2377 195.882C49.5112 195.893 49.0004 195.229 49.0001 193.582C48.9989 187.169 48.9474 187.228 55.5869 187.141C63.3653 187.038 71.1421 186.872 79.184 187.164Z" fill="black"/>
<path d="M191.393 201.571C193.521 206.77 195.545 211.788 197.62 216.936C199.331 216.03 199.235 214.294 199.787 212.936C201.138 209.606 202.528 206.292 203.85 202.949C205.742 198.161 209.615 196.125 214.491 197.347C216.082 197.746 216.246 198.76 215.755 200.086C212.393 209.153 209.01 218.212 205.646 227.279C205.424 227.879 205.299 228.517 205.13 229.138C203.878 233.727 197.284 236.551 193.363 234.09C192.083 233.286 191.732 231.7 191.229 230.324C187.599 220.378 183.995 210.422 180.368 200.474C179.549 198.227 180.041 197.401 182.406 197.273C186.037 197.076 189.498 197.305 191.393 201.571Z" fill="black"/>
<path d="M144.002 233.352C141.201 234.39 138.522 233.862 135.88 233.891C133.912 233.913 134.026 232.432 134.025 231.137C134.02 222.365 134.022 213.593 134.022 204.821C134.022 203.268 134.103 201.71 134.01 200.162C133.885 198.09 134.934 197.42 136.941 197.483C140.206 197.588 142.755 198.835 144.459 201.736C146.384 200.499 147.841 198.92 149.898 198.099C151.155 197.597 152.393 197.221 153.707 197.102C157.778 196.734 158.269 197.209 157.9 201.095C157.737 202.811 158.418 204.751 157.39 206.2C156.187 207.897 154.023 206.619 152.293 206.972C146.667 208.121 144.668 210.205 144.652 215.727C144.638 220.478 144.665 225.23 144.642 229.982C144.637 231.062 144.847 232.186 144.002 233.352Z" fill="black"/>
<path d="M165.817 198.061C167.547 198.026 169.039 198.06 170.528 198.004C173.015 197.912 174.005 199.242 174 201.656C173.981 211.401 173.946 221.147 173.997 230.892C174.009 233.072 173.213 234.018 171.069 233.997C162.892 233.915 164.077 234.905 164.041 227.156C164.001 218.674 164.02 210.191 164.057 201.709C164.063 200.329 163.751 198.704 165.817 198.061Z" fill="black"/>
<path d="M178.146 266.398C177.509 261.467 175.392 259.442 171.326 259.638C167.483 259.824 165.111 262.426 165.038 266.808C164.95 272.054 165.03 277.302 165.015 282.548C165.004 286.437 164.553 286.982 161.512 286.946C158.639 286.911 158.31 286.374 158.272 282.609C158.212 276.651 158.833 270.67 157.861 264.741C157.286 261.236 155.501 259.71 152.217 259.617C149.017 259.525 146.124 261.554 145.252 264.368C144.32 267.375 144.555 270.448 144.543 273.51C144.528 277.038 144.49 280.567 144.563 284.094C144.607 286.179 143.724 286.988 141.584 286.984C139.479 286.981 138.227 286.47 138.245 284.132C138.3 276.624 138.283 269.115 138.287 261.606C138.287 260.521 138.397 259.408 138.192 258.357C137.849 256.596 137.716 255.044 140.029 254.624C142.2 254.231 143.645 254.914 143.858 257.281C143.871 257.432 144.064 257.567 144.394 257.995C150.93 252.93 157.387 251.946 163.163 259.388C165.798 257.021 168.229 254.769 171.833 254.226C177.751 253.334 182.858 256.952 184.068 262.893C185.449 269.677 184.845 276.543 184.984 283.381C185.033 285.786 184.302 287.065 181.502 286.997C178.691 286.929 178.114 285.554 178.146 283.194C178.221 277.677 178.156 272.158 178.146 266.398Z" fill="black"/>
<path d="M14.8281 280.341C14.2614 282.045 13.8433 283.578 13.3148 285.074C12.9318 286.157 12.171 286.72 10.8774 286.806C6.87625 287.072 6.2949 286.103 7.67419 282.401C10.4203 275.031 12.8969 267.564 15.5118 260.147C17.3308 254.987 19.2177 249.85 21.0266 244.687C21.6645 242.867 23.213 243.112 24.6162 243.02C26.9009 242.869 28.7012 243.569 29.4901 245.879C30.4281 248.626 31.3325 251.384 32.2963 254.122C35.5747 263.437 38.8728 272.745 42.1641 282.055C42.2823 282.389 42.5573 282.745 42.5057 283.049C43 284.5 44.1125 285.893 41.8545 286.69C39.5804 287.492 37.1699 286.699 36.3993 284.767C35.3226 282.068 34.3429 279.317 33.5569 276.525C32.8741 274.099 31.8185 272.636 28.8981 272.915C26.3829 273.156 23.793 273.211 21.2929 272.904C17.9946 272.5 16.7459 274.251 15.9754 276.863C15.65 277.966 15.2794 279.057 14.8281 280.341ZM19.2551 266.973C19.2495 267.451 19.3917 267.922 19.8982 268.011C23.0368 268.561 26.2014 268.395 29.3536 268.185C30.322 268.12 30.7439 267.4 30.4059 266.442C28.5985 261.319 26.778 256.201 24.7134 250.38C22.7779 256.211 21.0522 261.409 19.2551 266.973Z" fill="black"/>
<path d="M239.045 272.231C239.195 264.542 241.578 258.332 249.043 255.268C257.903 251.632 268.231 256.048 270.283 265.512C271.813 272.574 271.253 279.465 265.037 284.502C256.923 291.077 242.738 288.331 239.899 276.706C239.556 275.303 238.81 273.995 239.045 272.231ZM250.568 260.35C248.975 261.191 248 262.485 247.112 264.068C245.171 267.529 245.63 271.226 246.03 274.753C246.43 278.282 249.017 281.937 252.713 282.555C257.574 283.367 260.992 281.711 262.989 277.676C265.099 273.411 264.925 269.127 263.192 264.797C261.074 259.507 255.942 257.564 250.568 260.35Z" fill="black"/>
<path d="M130.714 262.951C133.596 273.251 131.845 282.229 123.306 286.333C115.343 290.16 105.718 287.313 102.334 278.67C99.1707 270.59 101.52 258.767 110.584 255.17C117.539 252.41 127.01 254.35 130.714 262.951ZM114.854 282.554C118.446 283.11 121.369 282.099 123.553 278.999C126.826 274.355 126.347 265.59 122.504 261.422C120.373 259.112 117.051 258.331 114.172 259.465C107.066 262.263 104.734 274.23 110.201 279.833C111.397 281.058 112.505 282.416 114.854 282.554Z" fill="black"/>
<path d="M199.928 267.318C202.382 267.408 204.378 266.073 206.638 266.303C207.321 266.373 207.964 265.944 207.933 265.173C207.871 263.619 207.851 261.886 206.457 260.919C204.162 259.326 201.664 258.176 198.729 259.216C197.433 259.675 196.129 260.116 194.813 260.51C193.717 260.839 192.542 261.064 192.062 259.63C191.634 258.348 191.561 256.918 192.993 256.25C197.772 254.022 202.781 253.1 207.819 255.111C212.752 257.08 214.508 261.465 214.776 266.3C215.096 272.059 214.94 277.847 214.874 283.621C214.858 285.003 215.681 286.908 213.318 287.429C210.955 287.95 209.798 287.38 208.491 284.86C206.157 285.953 204.051 287.507 201.316 287.855C195.62 288.581 190.935 286.582 189.53 281.769C188.256 277.407 188.997 272.628 194.89 269.291C196.383 268.446 198.089 267.973 199.928 267.318ZM196.12 280.249C197.34 282.528 199.667 283.629 202.235 283.142C205.113 282.596 207.716 280.137 208.043 277.656C208.802 271.898 206.816 270.13 201.259 271.617C197 272.756 195.377 275.316 196.12 280.249Z" fill="black"/>
<path d="M53.7117 259.643C53.7222 264.987 53.8376 270.07 53.7177 275.148C53.6049 279.928 57.1339 283.209 60.7621 282.886C65.2187 282.489 68.6954 279.233 68.7086 274.677C68.7246 269.142 68.7854 263.606 68.6799 258.074C68.6379 255.866 69.4185 255.022 71.7783 255C74.2341 254.977 74.7863 255.993 74.7808 258.119C74.758 267 74.8747 275.881 74.9229 284.763C74.9292 285.941 75.5207 287.486 73.325 287.51C71.6265 287.529 69.7647 287.847 69.656 285.337C69.6379 284.921 69.3105 284.516 69.0329 283.9C66.4858 285.29 64.5722 287.37 61.4477 287.789C53.5823 288.846 49.1783 285.954 47.4711 278.536C46.32 273.534 47.6966 268.601 47.2601 263.645C47.1092 261.931 47.2952 260.186 47.0873 258.482C46.8296 256.37 47.4196 255.137 49.836 255.047C52.0694 254.964 53.8787 255.27 53.7324 258.018C53.7083 258.471 53.7191 258.925 53.7117 259.643Z" fill="black"/>
<path d="M83.9976 262.417C84.0113 260.613 83.0451 260.062 81.647 260.076C79.9681 260.093 78.9298 259.525 79.0037 257.694C79.0701 256.049 79.5464 254.709 81.5535 254.801C83.6294 254.896 84.1453 253.821 84.0036 252.054C83.9377 251.232 83.9768 250.399 84.0102 249.572C84.0832 247.764 87.9295 245.393 89.568 246.142C90.1333 246.401 90.3665 246.917 90.4133 247.483C90.4737 248.214 90.5054 248.953 90.4711 249.685C90.2371 254.682 90.2304 254.682 95.221 254.764C95.6892 254.772 96.1599 254.757 96.6251 254.799C98.3554 254.955 99.0108 255.943 98.9999 257.594C98.989 259.228 98.1391 259.85 96.601 260.03C94.6978 260.252 92.2695 259.128 91.0004 260.792C89.7137 262.48 90.5431 264.895 90.5028 266.986C90.4284 270.844 90.3856 274.709 90.548 278.563C90.6883 281.89 91.9376 282.94 95.3239 282.918C96.9159 282.908 98.3198 282.771 98.3633 285.029C98.4026 287.074 97.5267 287.637 95.5507 287.833C89.4824 288.436 86.9893 287.499 84.8439 283.484C84.1625 282.209 83.9997 280.887 84.0034 279.488C84.0184 273.879 84.0048 268.269 83.9976 262.417Z" fill="black"/>
<path d="M232.016 286.92C226.932 287.33 223.427 284.278 223.379 279.493C223.324 274.087 223.321 268.68 223.379 263.274C223.401 261.213 223.038 259.684 220.41 259.736C218.55 259.772 218.051 258.378 218.002 256.995C217.949 255.514 219.064 254.587 220.501 254.66C223.557 254.814 223.503 252.979 223.316 250.958C223.185 249.533 222.728 247.908 224.477 247.173C225.705 246.657 227.015 245.543 228.397 246.204C229.971 246.957 229.128 248.618 229.299 249.886C229.383 250.507 229.373 251.152 229.303 251.776C229.067 253.874 229.956 254.796 232.17 254.592C233.276 254.49 234.402 254.591 235.519 254.599C237.127 254.611 237.94 255.505 237.996 256.951C238.056 258.474 237.375 259.569 235.623 259.712C235.345 259.735 235.065 259.748 234.786 259.743C228.481 259.63 229.373 259.56 229.32 265.194C229.284 268.978 229.291 272.763 229.324 276.547C229.357 280.285 230.36 281.478 234.076 282.199C236.062 282.584 237.003 284.152 237.018 285.648C237.034 287.323 235.133 286.901 233.906 286.99C233.354 287.03 232.793 286.941 232.016 286.92Z" fill="black"/>
<path d="M277.014 279.154C277.029 272.192 277.044 265.501 277.062 258.811C277.066 256.944 276.588 254.9 279.507 254.526C282.324 254.166 282.981 255.803 283.083 258.011C284.454 258.239 284.985 257.215 285.726 256.655C286.966 255.719 288.118 254.692 289.74 254.404C290.985 254.183 292.338 253.463 293.327 254.731C294.302 255.981 294.038 257.522 293.651 258.901C293.247 260.342 291.864 260.191 290.665 260.274C286.786 260.542 284.05 264.05 283.949 269.093C283.85 273.974 283.815 278.86 283.946 283.739C284.014 286.285 282.943 286.992 280.493 287C278.045 287.008 276.836 286.297 277.018 283.763C277.121 282.324 277.023 280.871 277.014 279.154Z" fill="black"/>
<path d="M163.202 188.832C164.934 185.293 166.968 184.426 170.956 185.336C172.947 185.79 173.64 187.482 173.92 189.397C174.243 191.607 173.586 193.57 171.917 194.852C169.693 196.559 167.223 196.227 165.135 194.745C163.443 193.543 162.58 191.479 163.202 188.832Z" fill="black"/>
</svg>
