<svg width="300" height="300" viewBox="0 0 300 300" fill="none" xmlns="http://www.w3.org/2000/svg">
<path fill-rule="evenodd" clip-rule="evenodd" d="M148.068 48.9779C184.648 48.9779 214.301 78.5351 214.287 114.996C214.287 151.457 184.634 181.014 148.055 181C111.53 181 81.9046 151.539 81.8354 115.134C81.7525 78.6729 111.337 49.0606 147.916 48.9779C147.972 48.9779 148.013 48.9779 148.068 48.9779Z" fill="#008BF6"/>
<path fill-rule="evenodd" clip-rule="evenodd" d="M117.751 171.368C119.327 171.148 120.945 171.341 122.438 171.906C130.138 175.006 138.364 176.618 146.672 176.618C164.34 176.618 181.205 169.301 193.274 156.445C194.601 155.205 196.357 154.516 198.182 154.543C186.099 169.894 167.644 178.878 148.068 178.947C137.493 178.988 127.069 176.384 117.751 171.368Z" fill="#57B6FF"/>
<path fill-rule="evenodd" clip-rule="evenodd" d="M148.068 48.9779C150.128 48.9779 152.119 48.9779 154.123 49.2673C152.547 49.5842 150.916 49.5842 149.34 49.2673C148.912 49.1984 148.483 49.1019 148.068 48.9779ZM109.305 168.778C98.2312 160.882 89.8536 149.789 85.3191 136.988C85.7754 136.961 86.2316 136.961 86.6878 136.988H88.7476C88.8859 134.453 89.9089 132.055 91.6369 130.195C92.5355 129.533 93.5447 129.065 94.623 128.803C92.4664 126.75 91.0978 124.008 90.7522 121.059C90.7522 120.025 90.6001 118.951 90.6001 117.835L83.7017 114.39C82.9828 114.004 82.3469 113.494 81.8077 112.874C82.1119 102.897 84.6832 93.1277 89.3421 84.295L95.2589 83.7576C96.5308 78.8245 98.1759 73.9741 100.167 69.289C104.342 64.9622 109.083 61.2142 114.268 58.1413C115.885 57.852 117.502 57.6591 118.926 57.5075C125.548 56.9839 132.198 57.0527 138.792 57.7555C141.239 57.9484 143.7 58.1965 145.981 58.4858C146.285 57.7004 146.631 56.915 147.018 56.1571C148.69 53.0291 157.469 54.159 161.741 54.8342C161.561 53.222 161.188 51.6374 160.607 50.1216C162.128 50.3972 163.579 50.7279 165.003 51.0724C165.404 52.5744 165.639 54.1177 165.694 55.6748C170.091 56.722 177.031 58.8717 177.376 62.0134C177.418 62.8264 177.418 63.6394 177.376 64.4524C179.685 65.0862 182.007 65.7201 184.316 66.4504C188.933 67.8284 193.468 69.4544 197.905 71.3422C214.509 90.2202 218.946 116.842 209.38 140.061L206.283 140.309C205.868 141.343 205.371 142.293 204.928 143.217C202.481 148.232 196.219 150.189 191.145 151.112C184.109 152.16 176.975 152.408 169.883 151.843C161.423 151.264 153.004 150.134 144.695 148.467C136.387 146.896 128.189 144.76 120.171 142.087C115.387 140.543 110.715 138.683 106.194 136.492V148.026C108.295 149.376 109.982 151.278 111.102 153.496C115.014 153.152 118.733 151.567 121.691 149.004C123.364 147.654 127.995 149.638 126.06 155.191C123.917 162.756 117.24 168.171 109.388 168.736L109.318 168.791L109.305 168.778Z" fill="#006CBF"/>
<path fill-rule="evenodd" clip-rule="evenodd" d="M148.068 62.8815C176.975 62.8815 200.408 86.2379 200.408 115.051C200.408 143.864 176.975 167.221 148.068 167.221C119.189 167.221 95.7704 143.905 95.7289 115.12C95.6875 86.3068 119.092 62.909 147.999 62.8677C148.027 62.8677 148.054 62.8677 148.068 62.8677V62.8815Z" fill="white"/>
<path fill-rule="evenodd" clip-rule="evenodd" d="M123.903 140.102C117.848 145.959 108.724 147.35 101.19 143.547L93.7106 158.36C104.355 164.203 123.516 164.988 128.935 146.386C130.649 140.392 125.617 138.587 123.903 140.102Z" fill="#385661"/>
<path fill-rule="evenodd" clip-rule="evenodd" d="M125.382 142.031C119.244 147.902 110.231 149.693 102.296 146.634L96.8763 157.341C100.692 159.022 104.825 159.849 108.987 159.78C117.447 159.876 124.816 154.075 126.668 145.848C127.11 144.746 127.014 143.506 126.419 142.472C126.143 142.197 125.756 142.031 125.369 142.031H125.382Z" fill="#385661"/>
<path fill-rule="evenodd" clip-rule="evenodd" d="M118.29 146.482C113.148 148.48 107.438 148.48 102.296 146.482L100.07 150.961C106.083 153.469 112.982 152.752 118.346 149.059C119.714 147.888 119.424 146.496 118.29 146.496V146.482Z" fill="#598291"/>
<path fill-rule="evenodd" clip-rule="evenodd" d="M163.911 148.99C168.681 152.848 171.985 158.209 173.256 164.203L185.92 160.73C182.685 151.291 173.16 142.031 163.842 141.177L163.911 149.004V148.99Z" fill="#385661"/>
<path fill-rule="evenodd" clip-rule="evenodd" d="M166.261 147.874C170.381 151.443 173.422 156.087 175.04 161.268L182.768 159.146C179.699 152.614 174.031 145.752 166.648 143.203L166.261 147.874Z" fill="#385661"/>
<path fill-rule="evenodd" clip-rule="evenodd" d="M179.118 160.165L182.768 159.187C180.445 154.089 176.865 149.652 172.372 146.276C171.888 146.717 172.081 147.736 172.62 148.301C175.786 151.622 178.04 155.701 179.118 160.165Z" fill="#598291"/>
<path fill-rule="evenodd" clip-rule="evenodd" d="M129.087 163.665C129.087 162.591 128.894 161.461 128.839 160.386C128.562 158.608 129.364 156.831 130.898 155.866C134.202 154.226 137.714 153.083 141.35 152.463L144.142 151.801H144.999L147.792 152.394C151.414 153.028 154.939 154.171 158.243 155.797C159.805 156.762 160.635 158.581 160.331 160.4C160.331 161.667 160.179 162.839 160.04 164.161C160.04 164.754 160.04 165.333 159.847 165.925C155.99 166.793 152.036 167.234 148.068 167.221C141.571 167.234 135.129 166.035 129.087 163.679V163.665Z" fill="#598291"/>
<path fill-rule="evenodd" clip-rule="evenodd" d="M131.244 164.451C131.092 163.087 130.995 161.764 130.898 160.248C130.663 159.242 131.092 158.181 131.977 157.63C135.972 155.825 140.202 154.585 144.529 153.937C148.856 154.585 153.073 155.825 157.068 157.63C157.925 158.195 158.34 159.242 158.105 160.248C157.953 162.453 157.856 164.313 157.566 166.339C148.773 167.978 139.718 167.331 131.244 164.451Z" fill="#D3E8EF"/>
<path fill-rule="evenodd" clip-rule="evenodd" d="M134.202 156.555C137.576 155.425 141.032 154.557 144.529 153.937V167.069C141.294 166.848 138.087 166.325 134.935 165.526C134.645 162.549 134.396 159.587 134.202 156.555Z" fill="white"/>
<path fill-rule="evenodd" clip-rule="evenodd" d="M122.479 160.579C121.94 157.823 121.553 154.984 121.249 152.173C121.055 150.272 120.959 148.356 120.806 146.482C120.309 143.768 121.539 141.026 123.903 139.593C127.898 137.154 134.99 135.555 139.622 134.536C141.045 134.191 142.469 133.902 143.893 133.612L144.585 133.461L145.193 133.612C146.617 133.902 148.041 134.205 149.465 134.536C154.096 135.569 161.188 136.974 165.183 139.593C167.478 141.053 168.694 143.726 168.28 146.414C168.128 148.301 168.031 150.203 167.837 152.104C167.436 156.128 166.773 160.138 165.874 164.079C160.165 166.173 154.137 167.248 148.068 167.262C139.11 167.234 130.304 164.933 122.479 160.593V160.579Z" fill="#598291"/>
<path fill-rule="evenodd" clip-rule="evenodd" d="M126.115 162.398C124.94 157.079 124.235 151.677 124 146.234C123.668 144.705 124.304 143.134 125.617 142.279C129.267 140.006 137.396 138.201 144.585 136.685C151.704 138.201 159.861 140.006 163.524 142.279C165.045 143.203 165.197 144.526 165.141 146.234C164.879 152.476 163.994 158.677 162.515 164.74C162.515 164.74 162.515 165.03 162.321 165.222C157.704 166.49 152.934 167.152 148.137 167.152C140.534 167.221 133 165.595 126.115 162.384V162.398Z" fill="#598291"/>
<path fill-rule="evenodd" clip-rule="evenodd" d="M130.553 164.203C129.447 158.264 128.797 152.27 128.59 146.234C128.285 144.787 128.742 143.299 129.82 142.279C132.64 140.006 138.944 138.201 144.543 136.685C150.059 138.201 156.363 140.006 159.266 142.279C160.344 143.299 160.814 144.801 160.496 146.234C160.289 152.449 159.598 158.636 158.437 164.74C158.312 165.291 158.077 165.815 157.745 166.284C154.58 166.876 151.358 167.165 148.124 167.165C142.138 167.234 136.193 166.228 130.567 164.203H130.553Z" fill="#7EAABA"/>
<path fill-rule="evenodd" clip-rule="evenodd" d="M124.843 155.577C124.401 152.421 124.207 149.583 123.958 146.234C123.627 144.705 124.263 143.134 125.576 142.279C129.226 140.006 137.354 138.201 144.543 136.685C151.663 138.201 159.819 140.006 163.483 142.279C165.003 143.203 165.155 144.526 165.1 146.234C164.851 149.583 164.658 152.366 164.215 155.577C160.925 156.293 157.607 156.817 154.262 157.148C153.916 157.189 153.64 157.437 153.57 157.781C153.377 159.532 152.492 161.144 151.124 162.26C149.243 163.652 146.935 164.341 144.598 164.217C142.234 164.341 139.912 163.652 138.004 162.26C136.649 161.13 135.765 159.532 135.557 157.781C135.516 157.437 135.225 157.161 134.866 157.148C131.507 156.831 128.161 156.307 124.857 155.577H124.843Z" fill="#D3E8EF"/>
<path fill-rule="evenodd" clip-rule="evenodd" d="M144.529 136.671C150.045 138.187 156.349 139.992 159.252 142.266C160.331 143.285 160.801 144.787 160.483 146.22C160.289 149.858 160.137 152.89 159.75 156.39C158.036 156.679 156.239 156.872 154.276 157.079C153.93 157.12 153.653 157.368 153.584 157.713C152.824 162.329 148.87 164.024 144.529 164.024C140.188 164.024 136.165 162.219 135.433 157.644C135.391 157.299 135.101 157.024 134.742 157.01C132.834 156.817 131.037 156.624 129.267 156.321C128.88 152.821 128.673 149.789 128.534 146.152C128.23 144.705 128.686 143.216 129.765 142.197C132.682 140.047 138.944 138.242 144.529 136.671Z" fill="white"/>
<path fill-rule="evenodd" clip-rule="evenodd" d="M138.253 148.894H141.46C141.861 148.894 142.179 149.224 142.193 149.624V155.963C141.986 157.024 142.677 158.057 143.741 158.264C143.99 158.319 144.253 158.319 144.502 158.264C145.11 158.319 145.704 158.14 146.188 157.782C146.589 157.272 146.769 156.61 146.672 155.976V149.638C146.672 149.238 147.004 148.921 147.405 148.907H150.64C151.027 148.907 151.345 149.224 151.345 149.61C151.345 149.61 151.345 149.624 151.345 149.638V156.307C151.469 157.906 150.806 159.476 149.547 160.482C148.068 161.557 146.243 162.067 144.419 161.943C142.566 162.081 140.727 161.557 139.221 160.482C138.004 159.449 137.341 157.892 137.423 156.307V149.638C137.465 149.238 137.797 148.921 138.211 148.907L138.253 148.894Z" fill="#0B87E8"/>
<path fill-rule="evenodd" clip-rule="evenodd" d="M138.253 149.362C138.046 149.348 137.88 149.5 137.866 149.707V156.376C137.769 157.864 138.377 159.311 139.511 160.289C140.949 161.268 142.677 161.736 144.419 161.64V158.553C143.7 158.594 142.981 158.36 142.414 157.919C141.958 157.327 141.737 156.61 141.778 155.866V149.527C141.778 149.321 141.585 149.169 141.391 149.183H138.281V149.348L138.253 149.362Z" fill="#57B6FF"/>
<path fill-rule="evenodd" clip-rule="evenodd" d="M146.23 136.189L144.64 142.665C145.995 144.967 151.552 148.067 154.262 149.1C155.437 149.583 156.418 149.693 157.234 148.811C159.197 146.785 160.87 141.081 161.202 136.148H146.243V136.203L146.23 136.189Z" fill="#3C942C"/>
<path fill-rule="evenodd" clip-rule="evenodd" d="M159.473 136.189C159.473 137.222 159.225 138.187 159.086 139.124C158.699 142.156 157.662 145.077 156.017 147.654L155.824 147.805C155.492 147.805 155.174 147.709 154.898 147.557C151.829 146.289 148.981 144.512 146.478 142.321L148.068 136.189H159.473Z" fill="#3C942C"/>
<path fill-rule="evenodd" clip-rule="evenodd" d="M158.395 142.031C157.994 144.03 157.165 145.917 155.948 147.557L155.755 147.709C155.423 147.709 155.105 147.612 154.828 147.461C151.939 146.22 149.23 144.567 146.81 142.569H148.082C149.409 143.437 150.875 144.057 152.423 144.429C151.759 143.85 151.137 143.203 150.584 142.528C153.183 142.528 155.838 142.376 158.409 142.045L158.395 142.031Z" fill="#82E371"/>
<path fill-rule="evenodd" clip-rule="evenodd" d="M142.566 136.189L144.184 142.665C142.815 144.967 137.244 148.067 134.548 149.1C133.373 149.583 132.419 149.693 131.576 148.811C129.613 146.785 127.94 141.081 127.608 136.148H142.566V136.203V136.189Z" fill="#3C942C"/>
<path fill-rule="evenodd" clip-rule="evenodd" d="M129.378 136.189C129.378 137.222 129.626 138.187 129.765 139.124C130.152 142.156 131.189 145.077 132.834 147.654L133.027 147.805C133.359 147.805 133.677 147.709 133.954 147.557C137.023 146.289 139.87 144.512 142.373 142.321L140.7 136.189H129.364H129.378Z" fill="#3C942C"/>
<path fill-rule="evenodd" clip-rule="evenodd" d="M130.401 142.031C130.802 144.03 131.631 145.917 132.848 147.557L133.041 147.709C133.373 147.709 133.691 147.612 133.967 147.461C136.857 146.22 139.566 144.567 141.986 142.569H140.686C139.359 143.423 137.894 144.057 136.345 144.429C137.009 143.837 137.631 143.203 138.211 142.528C135.612 142.528 132.958 142.376 130.387 142.045L130.401 142.031Z" fill="#82E371"/>
<path fill-rule="evenodd" clip-rule="evenodd" d="M149.948 136.189C149.852 139.028 149.437 141.839 148.718 144.581C146.119 146.4 142.663 146.4 140.064 144.581C139.345 141.839 138.93 139.028 138.834 136.189H149.948Z" fill="#3C942C"/>
<path fill-rule="evenodd" clip-rule="evenodd" d="M140.313 136.768C140.437 139.138 140.783 141.48 141.35 143.782C143.257 144.856 145.594 144.856 147.501 143.782C148.068 141.48 148.414 139.124 148.538 136.768H140.327H140.313Z" fill="#3C942C"/>
<path fill-rule="evenodd" clip-rule="evenodd" d="M140.949 142.031C140.949 142.624 141.198 143.161 141.336 143.74C143.244 144.815 145.58 144.815 147.488 143.74C147.64 143.148 147.737 142.569 147.875 141.976H143.437C142.552 142.031 141.764 142.031 140.935 142.031H140.949Z" fill="#82E371"/>
<path fill-rule="evenodd" clip-rule="evenodd" d="M86.3283 74.911L102.047 73.2712L96.7243 113.59L81.8354 106.425C80.2179 105.75 79.029 104.344 78.6419 102.636C77.1489 94.0371 78.3931 85.2044 82.2225 77.35C82.9552 75.9996 83.7708 75.2004 86.3145 74.911H86.3283Z" fill="#598291"/>
<path fill-rule="evenodd" clip-rule="evenodd" d="M94.0977 108.685L98.1897 77.0745C96.8211 77.226 85.9274 78.2457 85.3883 78.5902C85.2915 78.7142 85.2085 78.8383 85.1394 78.976C81.6557 86.1277 80.5082 94.1749 81.8215 102.002C81.9874 102.636 82.4713 103.159 83.0934 103.366L94.0838 108.671L94.0977 108.685Z" fill="#D3E8EF"/>
<path fill-rule="evenodd" clip-rule="evenodd" d="M94.0977 108.685L94.388 106.439L83.1072 101.864C82.2778 101.519 81.6833 98.4604 81.2962 95.0982C81.1994 97.4131 81.3792 99.7419 81.8354 102.016C82.0013 102.649 82.4851 103.173 83.1072 103.38L94.0977 108.685ZM95.8395 95.3324L98.2865 77.0745C96.9178 77.226 86.0242 78.2457 85.485 78.5902C85.3883 78.7142 85.3053 78.8383 85.2362 78.976C83.5772 82.4485 82.416 86.1277 81.8215 89.9308L95.8257 95.3324H95.8395Z" fill="white"/>
<path fill-rule="evenodd" clip-rule="evenodd" d="M82.969 84.7222L87.3099 88.4564C87.9181 88.9801 88.2223 89.7655 88.1393 90.5647C87.697 95.0431 87.1578 99.2734 87.0057 105.24C86.3698 100.293 86.1348 95.2911 86.3145 90.3029C86.3145 90.11 86.3145 89.9584 86.1624 89.862L83.1902 87.1474L82.8031 85.6041C82.8031 85.3009 82.8584 85.0115 82.9552 84.7222H82.969Z" fill="#D3E8EF"/>
<path fill-rule="evenodd" clip-rule="evenodd" d="M82.7202 85.604L86.4251 88.856C87.0334 89.3796 87.3375 90.165 87.2546 90.9643C86.7707 95.0981 86.6049 99.2734 86.7431 103.435V105.267L84.8353 104.358C84.863 104.055 84.863 103.738 84.8353 103.435C84.7109 99.1769 84.9044 94.919 85.4021 90.7025C85.4021 90.5095 85.4021 90.358 85.2501 90.2615L82.2363 87.5745C82.3884 86.9131 82.5819 86.2516 82.7202 85.6178V85.604Z" fill="#7EAABA"/>
<path fill-rule="evenodd" clip-rule="evenodd" d="M155.036 23.21C165.736 32.8006 166.469 45.216 161.589 57.9759L157.884 56.4601C162.155 45.216 161.851 34.647 152.409 26.1726L155.036 23.21Z" fill="#598291"/>
<path fill-rule="evenodd" clip-rule="evenodd" d="M151.594 10.2021C158.409 11.3872 162.971 17.8636 161.782 24.6569C160.593 31.4503 154.096 35.9975 147.28 34.8125C140.465 33.6275 135.903 27.151 137.092 20.3577C137.092 20.3577 137.092 20.3301 137.092 20.3164C138.281 13.5368 144.778 9.00332 151.58 10.1884L151.594 10.2021Z" fill="#3C942C"/>
<path fill-rule="evenodd" clip-rule="evenodd" d="M151.151 12.6962C156.57 13.6746 160.165 18.8282 159.183 24.2298C158.202 29.6314 153.031 33.2141 147.612 32.2357C142.221 31.2711 138.626 26.1451 139.566 20.7711C140.534 15.3557 145.718 11.7592 151.137 12.6962H151.151Z" fill="#3C942C"/>
<path fill-rule="evenodd" clip-rule="evenodd" d="M158.202 17.7533C160.828 22.5899 159.031 28.6254 154.179 31.2435C149.326 33.8617 143.271 32.0703 140.645 27.2337C140.327 26.6549 140.064 26.0348 139.87 25.401C141.294 28.088 143.907 29.962 146.907 30.4581C152.34 31.3813 157.497 27.7711 158.478 22.3695C158.727 20.8262 158.63 19.2415 158.188 17.7533H158.202ZM148.732 13.523C152.188 13.3714 154.593 15.5072 154.11 18.4147C153.169 21.584 150.28 23.775 146.976 23.8163C143.52 24.0092 141.115 21.8183 141.598 19.0486C142.497 15.8379 145.4 13.6056 148.732 13.523Z" fill="#82E371"/>
<path fill-rule="evenodd" clip-rule="evenodd" d="M157.165 65.1827C153.75 64.5488 142.442 62.2063 141.986 57.8519C141.723 52.4641 142.732 47.0763 144.903 42.1294C146.769 38.4089 158.202 40.1727 161.533 40.7652C164.865 41.3577 176.256 43.6452 176.616 47.7377C176.989 53.1255 176.09 58.5271 173.989 63.5016C172.123 67.4425 160.593 65.7752 157.165 65.1827Z" fill="#006CBF"/>
<path fill-rule="evenodd" clip-rule="evenodd" d="M173.74 48.0409C172.565 45.9878 163.358 43.9346 160.98 43.5626C158.492 43.1216 155.976 42.8322 153.446 42.6807C151.414 42.5291 149.368 42.7771 147.432 43.411C145.511 47.8342 144.612 52.6433 144.833 57.4662C145.082 58.4996 149.299 60.1532 150.28 60.4426C155.188 62.1099 164.533 63.791 169.565 62.7713C170.174 62.6886 170.754 62.4819 171.28 62.165C173.16 57.7004 174.003 52.8638 173.726 48.0272L173.74 48.0409Z" fill="#006CBF"/>
<path fill-rule="evenodd" clip-rule="evenodd" d="M160.994 43.5211C158.506 43.0801 155.99 42.7907 153.46 42.6392C151.428 42.4876 149.382 42.7356 147.446 43.3695C145.525 47.7927 144.626 52.6018 144.847 57.4247C144.999 57.8105 145.925 58.4581 146.216 58.651C149.783 60.4562 153.626 61.6688 157.593 62.2475L160.98 43.5211H160.994Z" fill="#57B6FF"/>
<path fill-rule="evenodd" clip-rule="evenodd" d="M220.356 98.5155L206.172 91.5981L197.339 131.283L213.804 129.616C215.559 129.561 217.177 128.638 218.117 127.177C222.499 119.626 224.365 110.876 223.439 102.195C223.246 100.61 222.706 99.673 220.342 98.5293L220.356 98.5155Z" fill="#598291"/>
<path fill-rule="evenodd" clip-rule="evenodd" d="M201.541 127.577L208.481 96.4486C209.712 97.0411 219.665 101.754 219.955 102.25V102.691C220.716 110.614 219.002 118.565 215.048 125.482C214.688 126.047 214.052 126.378 213.375 126.364L201.527 127.59L201.541 127.577Z" fill="#D3E8EF"/>
<path fill-rule="evenodd" clip-rule="evenodd" d="M201.541 127.577L202.025 125.372L214.135 124.903C215.062 124.903 216.582 122.189 218.214 119.157C217.495 121.362 216.499 123.47 215.269 125.441C214.91 126.006 214.274 126.337 213.596 126.323L201.527 127.563L201.541 127.577ZM204.486 114.472L208.481 96.4486C209.712 97.0411 219.665 101.754 219.955 102.25V102.691C220.329 106.508 220.135 110.366 219.361 114.128L204.472 114.472H204.486Z" fill="white"/>
<path fill-rule="evenodd" clip-rule="evenodd" d="M220.204 108.878L214.882 110.931C214.149 111.22 213.596 111.854 213.416 112.612C212.283 116.966 211.329 121.142 209.421 126.791C211.73 122.34 213.679 117.711 215.241 112.957C215.241 112.764 215.241 112.667 215.532 112.571L219.209 111.027L220.094 109.705C220.163 109.457 220.218 109.112 220.218 108.878H220.204Z" fill="#D3E8EF"/>
<path fill-rule="evenodd" clip-rule="evenodd" d="M220.107 109.76L215.518 111.551C214.771 111.854 214.232 112.488 214.052 113.26C213.057 117.297 211.757 121.252 210.154 125.096L209.421 126.805L211.536 126.557C211.688 126.268 211.785 125.964 211.923 125.675C213.541 121.707 214.854 117.614 215.877 113.453C215.877 113.301 215.877 113.163 216.167 113.108L219.914 111.647C220.011 111.082 220.066 110.449 220.107 109.76Z" fill="#7EAABA"/>
<path fill-rule="evenodd" clip-rule="evenodd" d="M143.852 140.64C135.474 139.22 127.193 137.236 119.079 134.701C112.208 132.675 105.613 129.809 99.4616 126.171C95.0654 123.457 89.9227 119.199 89.4804 113.411C88.1809 96.5175 92.9641 69.7162 100.443 54.4897C103.208 48.6885 111.434 46.9798 117.005 46.3046C123.627 45.6019 130.304 45.4916 136.94 46.0153C144.668 46.5251 152.368 47.4621 159.999 48.8539C167.658 50.1491 175.233 51.8854 182.685 54.035C189.113 55.8263 195.362 58.1826 201.348 61.1039C206.38 63.5429 213.458 68.0764 214.149 74.4977C215.919 91.3915 211.232 118.11 204.196 133.612C201.749 138.862 195.542 141.122 190.454 142.169C183.445 143.478 176.284 143.933 169.164 143.492C160.676 143.106 152.216 142.155 143.852 140.654V140.64Z" fill="#598291"/>
<path fill-rule="evenodd" clip-rule="evenodd" d="M144.529 136.671C127.553 133.709 111.005 128.652 101.452 122.713C96.5446 119.626 93.5309 116.333 93.282 112.929C92.1346 97.2754 96.5446 71.1217 103.899 56.1847C105.475 52.9602 110.493 51.0449 117.53 50.1768C128.368 48.8264 144.073 49.9563 159.446 52.6158C174.819 55.2752 189.735 59.6847 199.551 64.5902C205.855 67.8146 209.905 71.3147 210.292 74.856C212.062 91.4329 207.154 117.518 200.657 131.848C199.385 134.935 195.362 137.126 189.735 138.228C178.745 140.571 161.45 139.579 144.502 136.658L144.529 136.671Z" fill="#BDD6DE"/>
<path fill-rule="evenodd" clip-rule="evenodd" d="M94.305 91.2951C95.7427 79.1828 98.9776 67.3461 103.927 56.1847C105.503 52.9602 110.521 51.0449 117.558 50.1768C128.396 48.8264 144.101 49.9563 159.473 52.6158C174.846 55.2752 189.956 59.6296 199.744 64.5489C206.048 67.7733 210.099 71.2733 210.486 74.8147C211.274 86.9821 210.223 99.2046 207.389 111.069C204.997 111.772 202.523 112.199 200.034 112.364C199.08 112.364 198.044 112.557 196.965 112.612C199.841 104.151 201.541 95.3463 202.011 86.4309C202.011 84.7635 200.933 84.2261 199.385 83.6887C191.159 80.6159 182.74 78.108 174.169 76.1789C173.533 76.0273 172.883 76.3304 172.593 76.9092C170.865 80.7812 168.777 84.488 166.344 87.9604C163.593 90.9368 142.359 87.175 140.838 83.482C139.774 79.3757 139.082 75.1867 138.778 70.9702C138.709 70.3363 138.211 69.854 137.575 69.7989C128.88 68.669 120.101 68.1454 111.337 68.2556C109.664 68.2556 108.351 68.2556 107.881 69.8954C105.24 78.4525 103.789 87.3403 103.567 96.2971L100.747 95.0293C98.4661 94.0097 96.3095 92.7557 94.2911 91.2951H94.305ZM144.543 136.671C127.567 133.709 111.019 128.652 101.466 122.713C96.5583 119.626 93.5446 116.333 93.2958 112.929V111.096C93.5861 111.978 94.0146 112.805 94.5676 113.535C96.3648 116.443 98.9085 118.827 101.922 120.453C111.461 126.295 128.023 131.256 144.972 134.246C161.92 137.222 179.311 138.187 190.177 135.927C193.592 135.417 196.827 134.039 199.578 131.945C200.325 131.435 200.988 130.829 201.569 130.14C201.334 130.718 201.071 131.297 200.781 131.848C199.357 134.935 195.334 137.126 189.763 138.228C178.772 140.571 161.478 139.579 144.529 136.658L144.543 136.671Z" fill="white"/>
<path fill-rule="evenodd" clip-rule="evenodd" d="M134.645 49.8047C135.751 52.5055 137.092 55.1098 138.668 57.5764C144.668 60.2909 151.027 62.1512 157.552 63.0744C163.994 64.4248 170.602 64.852 177.169 64.3421C179.173 62.7299 181.662 60.3047 183.57 58.4031C182.256 61.5449 180.238 64.3559 177.653 66.5882C170.768 67.1807 163.842 66.7674 157.068 65.3618C150.28 64.3697 143.672 62.3992 137.451 59.5193C136.013 56.4327 135.06 53.1531 134.631 49.7909L134.645 49.8047Z" fill="#BDD6DE"/>
<path fill-rule="evenodd" clip-rule="evenodd" d="M134.645 49.8047C135.267 52.8913 136.359 55.854 137.88 58.6099C144.087 61.3796 150.64 63.2674 157.358 64.2595C164.022 65.6237 170.851 66.0646 177.639 65.5823C180.003 63.5154 182.035 61.104 183.652 58.417L185.864 59.1059C184.247 61.5449 180.597 66.8501 178.192 67.8284C171.1 68.4072 163.966 67.9662 156.999 66.5056C149.962 65.4721 143.091 63.4603 136.622 60.5115C134.659 58.7477 133.041 52.6571 132.378 49.7083C133.083 49.7634 133.871 49.8047 134.659 49.8047H134.645Z" fill="#7EAABA"/>
<path fill-rule="evenodd" clip-rule="evenodd" d="M152.437 91.984C157.662 92.8934 164.989 93.1828 166.372 91.1021C168.791 86.3895 170.809 81.4839 172.427 76.4268C172.607 75.7378 173.312 75.3244 174.003 75.5036C183.362 77.6118 192.528 80.5745 201.348 84.3363C202.965 85.0253 204.196 85.604 204.099 87.7399C203.159 102.002 199.993 116.016 194.698 129.299C193.965 131.035 189.03 132.4 187.537 132.744C181.413 133.957 175.15 134.411 168.916 134.067C161.008 133.819 153.128 132.992 145.345 131.628C137.576 130.277 129.903 128.39 122.382 125.978C116.369 124.173 110.604 121.638 105.212 118.427C103.913 117.6 99.8624 114.638 99.7657 112.708C99.4339 98.4053 101.286 84.1296 105.282 70.3913C105.876 68.3657 107.245 68.2142 108.987 68.1177C118.581 67.6216 128.203 67.9799 137.728 69.165C138.433 69.2476 138.944 69.8815 138.875 70.5843C138.654 75.8756 138.875 81.1808 139.566 86.4308C140.202 88.8284 147.197 91.0745 152.423 92.0115L152.437 91.984Z" fill="#1E2432"/>
<path fill-rule="evenodd" clip-rule="evenodd" d="M202.025 86.2792C201.583 93.9682 200.408 101.602 198.514 109.071C197.339 113.397 195.127 113.108 190.44 113.687C170.823 116.126 126.862 108.382 109.332 99.4112C105.143 97.2891 102.876 95.5253 103.319 92.3698C104.314 84.7359 105.821 77.1847 107.825 69.7575C107.95 69.2201 108.641 69.0272 109.125 68.9721C118.678 68.5036 128.244 68.8618 137.728 70.0469C137.976 70.0744 138.142 70.2949 138.115 70.5292C138.115 72.1414 137.963 73.7536 138.115 75.4209C138.184 79.1827 138.46 82.9584 138.93 86.6926C139.718 90.234 149.202 92.3836 152.423 92.9072C155.63 93.4171 165.28 94.7123 167.284 91.6671C167.533 91.2812 167.768 90.7852 167.975 90.3993C170.146 86.0174 171.971 81.4702 173.45 76.8127C173.491 76.5784 173.726 76.413 173.961 76.4682C173.961 76.4682 173.975 76.4682 173.989 76.4682C183.293 78.5902 192.403 81.5253 201.196 85.2458C201.624 85.4387 201.942 85.8383 202.025 86.293V86.2792ZM100.65 110.738V112.571C100.65 113.99 104.604 116.87 105.779 117.586C122.949 128.762 167.34 136.533 187.288 131.917C188.643 131.628 193.302 130.25 193.869 128.955C194.118 128.417 194.353 127.825 194.601 127.246C192.763 128.197 190.813 128.913 188.781 129.354C168.321 133.97 122.977 126.033 105.392 114.679C103.637 113.618 102.033 112.309 100.664 110.793V110.738H100.65Z" fill="#2D3956"/>
<path fill-rule="evenodd" clip-rule="evenodd" d="M119.313 89.4349C117.876 93.4999 117.115 97.7853 117.06 102.098C117.06 108.437 128.493 110.531 130.304 104.537C131.548 100.417 132.295 96.1731 132.53 91.8739C132.917 85.4388 121.442 83.3443 119.313 89.4349ZM184.385 100.872C184.344 105.185 183.583 109.47 182.132 113.535C179.947 119.53 168.515 117.573 168.916 111.207C169.137 106.907 169.883 102.663 171.141 98.5432C173.008 92.4526 184.482 94.5333 184.385 100.872Z" fill="#82E371"/>
<path fill-rule="evenodd" clip-rule="evenodd" d="M157.455 117.118C155.008 127.673 138.737 124.848 140.119 114.087C145.552 116.553 151.511 117.6 157.455 117.118Z" fill="#82E371"/>
<path fill-rule="evenodd" clip-rule="evenodd" d="M99.0053 137.402C106.996 137.36 113.507 143.782 113.549 151.746C113.59 159.711 107.148 166.201 99.1574 166.242C91.1669 166.284 84.6555 159.862 84.6141 151.898C84.6141 151.87 84.6141 151.829 84.6141 151.801C84.6141 143.878 91.0563 137.443 99.0053 137.402Z" fill="#598291"/>
<path fill-rule="evenodd" clip-rule="evenodd" d="M99.0054 139.854C105.669 139.813 111.102 145.173 111.143 151.815C111.185 158.457 105.807 163.872 99.1436 163.914C92.4802 163.955 87.0472 158.595 87.0057 151.953C87.0057 151.898 87.0057 151.856 87.0057 151.801C87.0472 145.215 92.3973 139.882 99.0054 139.841V139.854Z" fill="#D3E8EF"/>
<path fill-rule="evenodd" clip-rule="evenodd" d="M99.0053 139.854C105.669 139.744 111.157 145.049 111.268 151.691C111.268 151.732 111.268 151.774 111.268 151.815C111.268 153.193 111.033 154.557 110.576 155.852C108.226 156.72 105.724 157.148 103.222 157.12C95.8672 157.12 89.5632 153.482 87.5449 148.439C89.0655 143.382 93.7106 139.909 99.0053 139.854Z" fill="white"/>
<path fill-rule="evenodd" clip-rule="evenodd" d="M88.637 127.673C88.8029 125.055 89.8674 122.575 91.6508 120.659C93.5447 119.35 95.7981 118.675 98.1068 118.703C101.632 118.703 106.816 120.067 106.913 124.394C107.106 133.709 106.913 142.996 106.913 152.27C106.996 153.992 106.526 155.701 105.586 157.161C101.466 163.665 88.1394 164.037 81.8492 160.675C80.7156 160.207 79.7894 159.339 79.2502 158.236C78.2687 154.874 77.6328 151.429 77.3563 147.943C76.9416 144.14 76.8863 140.309 77.2042 136.506C77.4254 133.75 78.1166 129.464 81.2548 128.541C82.9552 128.073 84.7109 127.783 86.4804 127.714C87.1993 127.632 87.9182 127.632 88.637 127.687V127.673Z" fill="#598291"/>
<path fill-rule="evenodd" clip-rule="evenodd" d="M90.2821 142.031C88.3881 137.14 88.2914 124.104 92.0516 121.197C96.199 117.972 105.987 118.992 106.125 124.297C106.318 133.612 106.125 142.9 106.125 152.215C106.374 162.48 89.5909 164.024 82.0842 160.069C81.1027 159.683 80.3008 158.953 79.8308 158.016L90.2821 142.031Z" fill="#598291"/>
<path fill-rule="evenodd" clip-rule="evenodd" d="M92.8811 142.376C90.4341 138.242 90.8765 124.986 93.4755 123.016C96.4892 120.577 103.871 121.5 103.927 124.463C104.12 132.262 103.927 142.583 104.079 152.339C104.272 160.606 87.6139 161.681 82.0012 157.396L92.8949 142.39L92.8811 142.376Z" fill="#D3E8EF"/>
<path fill-rule="evenodd" clip-rule="evenodd" d="M91.1116 131.959C91.2637 128.018 92.0379 124.352 93.2682 123.333C95.8811 121.803 99.0469 121.569 101.853 122.671C102.005 125.579 101.964 128.472 101.729 131.38C101.452 133.874 94.3466 133.488 91.1116 131.972V131.959Z" fill="white"/>
<path fill-rule="evenodd" clip-rule="evenodd" d="M81.393 129.189C83.0243 128.707 84.7247 128.445 86.4251 128.403C89.8812 128.252 99.1298 128.941 99.9178 133.461C100.996 139.937 100.996 146.537 99.9178 153.014C99.0053 158.484 86.3283 158.347 84.2961 155.99L81.9598 157.354L79.8447 158.043C78.8908 154.709 78.241 151.305 77.9369 147.846C77.5498 144.098 77.4945 140.309 77.7848 136.547C78.0613 134.177 78.6005 129.974 81.393 129.161V129.189Z" fill="#598291"/>
<path fill-rule="evenodd" clip-rule="evenodd" d="M81.9874 131.325C88.3467 129.492 97.3188 131.476 97.7611 133.764C98.8118 140.006 98.8118 146.372 97.7611 152.614C97.3188 155.48 86.4251 158.457 81.9874 157.327C79.1949 148.398 79.0428 132.248 81.9874 131.311V131.325Z" fill="#D3E8EF"/>
<path fill-rule="evenodd" clip-rule="evenodd" d="M81.9875 131.325C86.2869 130.222 90.8213 130.374 95.0377 131.766C95.881 137.815 95.8119 143.947 94.8442 149.982C94.4986 152.573 86.4804 155.136 81.4068 155.136C79.1949 145.945 79.4023 132.11 82.0013 131.325H81.9875Z" fill="white"/>
<path fill-rule="evenodd" clip-rule="evenodd" d="M78.794 143.354C85.7615 141.494 93.0885 141.494 100.056 143.354L99.5721 145.352C92.9641 143.547 85.9965 143.547 79.3885 145.352L78.794 143.354Z" fill="#598291"/>
<path fill-rule="evenodd" clip-rule="evenodd" d="M178.289 154.254C184.62 154.254 189.749 159.339 189.763 165.65C189.777 171.961 184.662 177.073 178.33 177.087C171.998 177.087 166.87 172.002 166.856 165.691C166.856 165.691 166.856 165.677 166.856 165.663C166.856 159.366 171.943 154.254 178.261 154.24C178.261 154.24 178.275 154.24 178.289 154.24V154.254Z" fill="#598291"/>
<path fill-rule="evenodd" clip-rule="evenodd" d="M178.289 156.059C183.556 156.059 187.841 160.289 187.855 165.539C187.869 170.789 183.611 175.061 178.344 175.075C173.077 175.075 168.791 170.845 168.777 165.595C168.777 165.595 168.777 165.581 168.777 165.567C168.736 160.358 172.939 156.1 178.178 156.059C178.219 156.059 178.261 156.059 178.302 156.059H178.289Z" fill="#D3E8EF"/>
<path fill-rule="evenodd" clip-rule="evenodd" d="M178.289 156.059C183.514 156.059 187.772 160.262 187.786 165.471C187.786 165.498 187.786 165.539 187.786 165.567C187.786 166.215 187.731 166.862 187.592 167.496C186.113 168.392 184.413 168.874 182.685 168.86C177.445 168.86 173.187 164.644 173.173 159.421C173.173 159.408 173.173 159.394 173.173 159.366C173.173 158.705 173.229 158.057 173.367 157.409C174.86 156.541 176.56 156.073 178.302 156.045L178.289 156.059Z" fill="white"/>
<path fill-rule="evenodd" clip-rule="evenodd" d="M161.782 170.197C160.013 169.908 158.257 169.219 157.911 167.414C157.358 164.065 157.192 160.675 157.427 157.286C157.579 154.984 160.178 154.061 162.335 153.648C164.077 151.65 166.399 150.23 168.985 149.583C173.091 149.445 177.183 150.161 180.998 151.691C184.8 153.014 184.648 160.152 184.551 163.431C184.399 166.242 183.957 172.333 181.703 174.234C177.653 177.652 163.386 177.955 162.377 173.008C162.128 172.085 161.934 171.148 161.782 170.197Z" fill="#598291"/>
<path fill-rule="evenodd" clip-rule="evenodd" d="M169.621 155.811C170.312 159.614 170.312 163.5 169.621 167.303C169.109 169.356 165.971 169.604 164.201 169.604C162.432 169.604 159.073 169.453 158.685 167.165C158.132 163.886 157.967 160.551 158.202 157.244C158.354 155.039 161.837 154.364 163.524 154.061C165.211 153.758 169.012 153.496 169.634 155.825L169.621 155.811Z" fill="#598291"/>
<path fill-rule="evenodd" clip-rule="evenodd" d="M167.934 156.307C167.588 154.943 160.013 156.307 159.916 157.437C159.681 160.62 159.819 163.817 160.331 166.973C160.579 168.144 167.519 168.24 167.865 166.973C168.542 163.459 168.57 159.835 167.934 156.307Z" fill="#D3E8EF"/>
<path fill-rule="evenodd" clip-rule="evenodd" d="M180.694 152.421C184.053 153.551 183.901 160.689 183.763 163.473C183.625 166.256 183.224 172.057 181.316 173.738C178.869 175.254 176.035 176.053 173.146 176.04C170.699 176.04 163.8 176.04 163.137 172.912C162.003 167.317 161.671 161.599 162.155 155.921C162.349 153.482 167.063 150.768 169.192 150.423C173.132 150.272 177.044 150.961 180.694 152.421Z" fill="#598291"/>
<path fill-rule="evenodd" clip-rule="evenodd" d="M179.947 154.006C176.547 152.656 172.897 151.994 169.234 152.077C166.939 152.628 164.948 154.034 163.662 156.018C163.178 161.53 163.496 167.097 164.588 172.526C165.031 174.579 176.56 175.213 179.947 172.374C182.132 170.583 183.21 154.888 179.947 154.02V154.006Z" fill="#D3E8EF"/>
<path fill-rule="evenodd" clip-rule="evenodd" d="M179.948 154.006C176.63 152.711 173.091 152.035 169.524 152.022V171.161C173.409 171.699 177.376 171.299 181.081 169.99C182.408 165.071 182.574 154.681 179.948 154.006ZM164.395 154.833C164.049 155.136 163.773 155.522 163.607 155.963C163.123 161.474 163.441 167.041 164.533 172.471C164.976 174.524 176.505 175.158 179.892 172.319C180.127 172.126 180.307 171.878 180.431 171.616C176.851 174.276 165.708 173.642 165.224 171.616C164.132 166.173 163.814 160.62 164.298 155.094C164.298 155.094 164.45 154.943 164.492 154.846H164.395V154.833Z" fill="white"/>
<path fill-rule="evenodd" clip-rule="evenodd" d="M162.612 163.073C165.1 162.081 167.741 161.516 170.409 161.406C171.003 161.406 170.893 163.266 170.409 163.266C167.879 163.362 165.39 163.886 163.054 164.837L162.612 163.073Z" fill="#598291"/>
<path fill-rule="evenodd" clip-rule="evenodd" d="M181.136 169.949C180.21 169.563 179.27 169.163 178.247 168.681C178.012 168.585 177.888 168.337 177.957 168.089C178.371 164.533 178.371 160.937 177.957 157.382C177.915 157.134 178.067 156.886 178.302 156.789C179.27 156.307 180.279 155.894 181.288 155.522C181.537 155.839 181.648 156.238 181.606 156.652C180.694 156.941 179.865 157.341 179.035 157.685C179.408 161.047 179.408 164.437 179.035 167.813C179.823 168.199 180.611 168.543 181.482 168.888C181.523 169.274 181.399 169.673 181.136 169.963V169.949Z" fill="#7EAABA"/>
<path d="M38.6197 213.868C38.6413 216.12 38.2844 218.361 37.5599 220.492C36.1541 224.534 33.0615 227.73 29.1145 229.235C24.389 230.916 19.2525 230.916 14.527 229.235C12.5373 228.477 10.7314 227.291 9.22834 225.753C7.83339 224.237 6.76285 222.447 6.0816 220.492C5.34627 218.361 4.98942 216.12 5.00024 213.868V189H13.7917V213.517C13.7809 214.703 13.9647 215.889 14.354 217.01C14.7325 218.031 15.2948 218.976 16.0085 219.8C16.7222 220.58 17.5872 221.195 18.5388 221.634C19.5877 222.073 20.7124 222.282 21.8478 222.271C22.9508 222.271 24.0429 222.062 25.0594 221.634C27.0275 220.755 28.5414 219.075 29.2118 217.01C29.6336 215.889 29.8498 214.703 29.839 213.517V189H38.6088L38.5872 213.868H38.6197ZM45.6701 201.698H53.7803V205.465H53.8776C54.1804 204.883 54.5589 204.345 55.0022 203.873C55.5213 203.312 56.116 202.84 56.754 202.445C57.4785 202.005 58.2463 201.665 59.0573 201.423C59.9656 201.149 60.9172 201.006 61.8688 201.017C63.6531 200.94 65.4265 201.291 67.0485 202.038C68.2921 202.642 69.3518 203.587 70.0763 204.784C70.8657 206.047 71.3848 207.475 71.6011 208.958C71.8714 210.683 72.012 212.429 72.0012 214.176V229.499H63.5558V215.9C63.5558 215.076 63.5233 214.264 63.4368 213.44C63.4152 212.616 63.2422 211.803 62.9394 211.034C62.4095 209.42 60.8415 208.409 59.1763 208.574C58.2571 208.53 57.3379 208.739 56.5269 209.2C55.824 209.584 55.2401 210.167 54.8725 210.88C54.5372 211.562 54.3101 212.286 54.2128 213.033C54.0939 213.901 54.0398 214.78 54.0506 215.659V229.499H45.6052L45.6593 201.72L45.6701 201.698ZM96.5047 210.661C96.0506 210.024 95.4558 209.518 94.7637 209.178C94.0176 208.761 93.185 208.552 92.3307 208.552C90.4816 208.453 88.6757 209.156 87.3672 210.485C86.1669 211.88 85.5397 213.681 85.6154 215.527C85.5397 217.372 86.1669 219.185 87.3672 220.569C88.6649 221.92 90.4816 222.623 92.3307 222.524C93.185 222.546 94.0284 222.337 94.7637 221.898C95.4126 221.491 95.9965 220.986 96.5047 220.404L102.063 226.357C100.776 227.708 99.1649 228.708 97.3914 229.268C95.7478 229.784 94.0392 230.059 92.3307 230.07C90.2977 230.07 88.2864 229.729 86.3724 229.048C84.5882 228.4 82.9553 227.401 81.5387 226.127C80.1762 224.819 79.0841 223.249 78.3271 221.502C76.7375 217.658 76.7375 213.33 78.3271 209.496C79.0732 207.761 80.1654 206.201 81.5387 204.927C82.9445 203.62 84.5773 202.609 86.3724 201.95C88.2864 201.258 90.2977 200.907 92.3307 200.929C94.05 200.94 95.7586 201.236 97.3914 201.786C99.1649 202.302 100.776 203.29 102.063 204.641L96.5047 210.661ZM122.295 225.995H122.198C121.3 227.434 119.981 228.554 118.424 229.191C116.856 229.85 115.158 230.191 113.46 230.169C112.206 230.169 110.952 229.982 109.751 229.598C108.616 229.246 107.567 228.675 106.659 227.917C105.75 227.192 105.026 226.28 104.528 225.226C103.977 224.072 103.707 222.798 103.739 221.513C103.696 220.107 103.988 218.712 104.582 217.449C105.166 216.373 105.977 215.439 106.951 214.703C107.989 213.945 109.146 213.385 110.379 213.022C111.665 212.605 112.985 212.297 114.315 212.1C115.677 211.913 117.051 211.803 118.424 211.759H122.252C122.306 210.353 121.69 209.013 120.597 208.156C119.548 207.256 118.208 206.761 116.823 206.794C115.493 206.783 114.185 207.091 112.995 207.706C111.838 208.31 110.811 209.123 109.946 210.112L105.556 205.465C107.134 203.96 109.016 202.818 111.071 202.104C113.201 201.335 115.439 200.951 117.689 200.962C119.754 200.885 121.819 201.225 123.766 201.939C125.269 202.456 126.599 203.411 127.594 204.685C128.599 206.047 129.259 207.629 129.529 209.31C129.919 211.32 130.113 213.374 130.092 215.428V229.488H122.317V226.006L122.295 225.995ZM120.23 217.306C119.581 217.306 118.77 217.306 117.797 217.427C116.867 217.46 115.948 217.614 115.05 217.877C114.228 218.119 113.471 218.525 112.801 219.075C112.184 219.646 111.86 220.47 111.903 221.315C111.86 222.271 112.368 223.161 113.19 223.6C114.012 224.083 114.942 224.336 115.893 224.336C116.694 224.336 117.494 224.226 118.262 223.996C118.997 223.787 119.7 223.457 120.327 223.018C121.592 222.15 122.328 220.689 122.295 219.13V217.295H120.23V217.306ZM135.347 201.698H143.446V205.465H143.63C143.933 204.883 144.312 204.345 144.755 203.873C145.274 203.323 145.858 202.84 146.496 202.445C147.22 202.005 147.999 201.665 148.81 201.423C149.718 201.149 150.67 201.006 151.622 201.017C153.406 200.94 155.179 201.291 156.801 202.038C158.045 202.642 159.105 203.587 159.829 204.784C160.618 206.047 161.137 207.475 161.354 208.958C161.624 210.683 161.765 212.429 161.754 214.176V229.499H153.308V215.9C153.308 215.076 153.276 214.264 153.189 213.44C153.168 212.616 152.995 211.803 152.692 211.034C152.433 210.32 151.978 209.705 151.384 209.255C150.659 208.761 149.794 208.519 148.918 208.585C147.999 208.541 147.08 208.75 146.269 209.211C145.555 209.584 144.982 210.178 144.614 210.891C144.257 211.594 144.03 212.352 143.933 213.132C143.814 214 143.76 214.879 143.771 215.757V229.51H135.347V201.731V201.698ZM167.658 201.698H175.768V205.465H175.866C176.168 204.883 176.547 204.345 176.99 203.873C177.509 203.312 178.104 202.84 178.742 202.445C179.466 202.005 180.234 201.665 181.045 201.423C181.954 201.149 182.905 201.006 183.857 201.017C185.641 200.94 187.414 201.291 189.036 202.038C190.291 202.642 191.351 203.587 192.086 204.784C192.864 206.058 193.373 207.475 193.589 208.958C193.859 210.683 194 212.429 193.989 214.176V229.499H185.544V215.9C185.544 215.076 185.511 214.264 185.425 213.44C185.425 212.605 185.284 211.781 184.992 211.001C184.462 209.387 182.884 208.365 181.218 208.541C180.299 208.497 179.38 208.706 178.569 209.167C177.898 209.562 177.347 210.145 177.001 210.848C176.655 211.551 176.428 212.308 176.32 213.088C176.201 213.956 176.147 214.835 176.158 215.714V229.499H167.712L167.647 201.72L167.658 201.698ZM215.66 234.002C215.097 235.485 214.546 236.792 214.005 237.935C213.518 239.011 212.826 239.989 211.972 240.79C211.129 241.636 210.08 242.251 208.944 242.57C207.333 243.042 205.657 243.251 203.981 243.196C201.84 243.196 199.709 242.855 197.677 242.174L198.801 235.145C200.045 235.705 201.386 236.001 202.737 236.001C203.527 236.023 204.305 235.902 205.051 235.65C205.614 235.485 206.111 235.178 206.511 234.738C206.933 234.332 207.279 233.848 207.517 233.31C207.776 232.739 208.068 232.069 208.36 231.311L208.977 229.63L196.995 201.621H206.111L213.151 219.964H213.27L219.293 201.621H227.955L215.67 234.002H215.66Z" fill="black"/>
<path d="M22.2696 239.114H29.5456L46.9019 278.249H36.9515L33.5084 269.954H18.0145L14.7013 278.249H5L22.2696 239.114ZM25.5828 250.498L20.743 262.658H30.4876L25.5828 250.498ZM76.2223 278.249H68.1018V274.606H67.9827C67.6579 275.19 67.2573 275.742 66.8025 276.231C66.3261 276.772 65.7739 277.24 65.146 277.611C64.4205 278.036 63.6518 278.365 62.8397 278.599C61.9302 278.865 60.9774 279.003 60.0246 278.992C58.2273 279.056 56.4299 278.737 54.7733 278.047C53.5174 277.431 52.4455 276.486 51.6767 275.328C50.9405 274.086 50.4424 272.716 50.215 271.292C49.9768 269.625 49.8686 267.947 49.8794 266.269V251.38H58.3355V266.959C58.4113 267.735 58.5846 268.499 58.8444 269.232C59.1368 269.869 59.5807 270.432 60.1329 270.857C60.88 271.346 61.7678 271.579 62.6665 271.526C63.5868 271.569 64.4963 271.377 65.3192 270.974C65.958 270.592 66.4777 270.061 66.8458 269.434C67.2248 268.744 67.4738 268 67.5713 267.225C67.6904 266.375 67.7445 265.526 67.7337 264.676V251.39H76.1898L76.2115 278.249H76.2223ZM100.865 258.028H93.427V266.97C93.427 267.65 93.4595 268.34 93.5461 269.02C93.5786 269.593 93.7518 270.146 94.0441 270.645C94.3257 271.112 94.7371 271.473 95.2352 271.707C95.9389 271.951 96.6752 272.057 97.4223 272.036C97.877 272.036 98.4509 272.004 99.1655 271.94C99.7718 271.877 100.346 271.643 100.822 271.271V278.1C99.8693 278.429 98.884 278.652 97.8879 278.769C96.8593 278.865 95.8631 278.928 94.8887 278.928C93.5677 278.939 92.2468 278.79 90.9584 278.493C89.8215 278.227 88.7496 277.76 87.7968 277.112C86.8873 276.433 86.1618 275.562 85.6638 274.563C85.1441 273.385 84.895 272.1 84.9383 270.804V258.039H79.5138V251.401H84.9383V243.436H93.3945V251.401H100.833L100.887 258.039L100.865 258.028ZM104.179 264.825C104.146 262.828 104.558 260.853 105.37 259.016C106.117 257.338 107.21 255.83 108.585 254.598C109.993 253.334 111.639 252.357 113.425 251.72C115.342 251.051 117.355 250.711 119.391 250.732C121.405 250.711 123.408 251.051 125.314 251.72C127.122 252.336 128.767 253.323 130.175 254.598C131.593 255.819 132.719 257.327 133.488 259.016C135.058 262.733 135.058 266.906 133.488 270.623C132.709 272.323 131.583 273.841 130.175 275.094C128.767 276.348 127.122 277.303 125.335 277.919C123.44 278.588 121.437 278.918 119.413 278.907C117.377 278.907 115.363 278.578 113.447 277.919C111.66 277.293 110.025 276.326 108.607 275.094C107.243 273.831 106.149 272.312 105.391 270.623C104.558 268.797 104.124 266.821 104.135 264.814H104.189L104.179 264.825ZM112.635 264.825C112.57 266.609 113.198 268.351 114.389 269.699C115.688 271.006 117.507 271.685 119.358 271.59C121.221 271.707 123.04 271.016 124.328 269.699C125.552 268.361 126.191 266.62 126.115 264.825C126.18 263.03 125.541 261.288 124.328 259.95C123.029 258.644 121.21 257.964 119.358 258.081C117.507 257.986 115.699 258.665 114.389 259.95C113.176 261.288 112.526 263.041 112.581 264.825H112.635ZM139.606 251.401H147.715V255.044H147.834C148.138 254.481 148.517 253.961 148.96 253.504C149.48 252.962 150.076 252.506 150.715 252.123C151.44 251.698 152.209 251.359 153.021 251.136C153.93 250.87 154.883 250.732 155.836 250.743C157.601 250.711 159.344 251.104 160.903 251.9C162.408 252.707 163.577 254.003 164.216 255.554C165.007 254.003 166.241 252.718 167.768 251.847C169.359 251.072 171.124 250.69 172.911 250.743C174.502 250.69 176.083 251.008 177.523 251.688C178.747 252.219 179.786 253.079 180.522 254.173C181.302 255.277 181.843 256.541 182.092 257.869C182.428 259.356 182.601 260.874 182.59 262.403V278.27H174.134V262.627C174.177 261.49 173.885 260.354 173.29 259.377C172.694 258.41 171.568 257.869 170.42 257.996C169.565 257.975 168.71 258.134 167.93 258.485C167.302 258.771 166.761 259.207 166.36 259.748C165.981 260.343 165.689 261.002 165.515 261.681C165.364 262.446 165.299 263.221 165.299 264.007V278.27H156.832V262.287C156.799 261.607 156.67 260.938 156.431 260.301C156.215 259.674 155.825 259.111 155.305 258.676C154.688 258.198 153.909 257.964 153.118 258.028C152.198 257.986 151.278 258.187 150.465 258.633C149.794 259.016 149.242 259.579 148.895 260.258C148.538 260.938 148.311 261.671 148.213 262.425C148.094 263.264 148.04 264.113 148.051 264.963V278.28H139.595L139.616 251.422L139.606 251.401ZM205.826 274.893H205.707C204.819 276.295 203.498 277.378 201.939 277.983C200.369 278.62 198.669 278.95 196.969 278.928C195.702 278.928 194.446 278.748 193.244 278.376C192.118 278.036 191.068 277.484 190.148 276.751C189.249 276.05 188.524 275.158 188.015 274.149C187.484 273.024 187.214 271.792 187.235 270.56C187.192 269.2 187.484 267.852 188.08 266.63C188.664 265.59 189.466 264.687 190.429 263.975C191.479 263.253 192.649 262.701 193.872 262.35C195.161 261.947 196.482 261.649 197.813 261.458C199.178 261.278 200.553 261.172 201.928 261.129H205.761C205.804 259.78 205.187 258.485 204.104 257.646C203.054 256.775 201.711 256.297 200.325 256.329C198.994 256.318 197.684 256.616 196.493 257.21C195.334 257.784 194.295 258.58 193.439 259.536L188.935 255.001C190.516 253.546 192.4 252.431 194.457 251.752C196.558 251.019 198.777 250.647 201.008 250.647C203.076 250.573 205.144 250.902 207.093 251.592C208.598 252.102 209.929 253.026 210.925 254.247C211.997 255.554 212.701 257.115 212.993 258.771C213.394 260.715 213.589 262.701 213.556 264.687V278.28H205.782L205.837 274.914L205.826 274.893ZM203.736 266.492C203.108 266.492 202.296 266.492 201.311 266.609C200.38 266.641 199.459 266.79 198.561 267.044C197.738 267.278 196.969 267.671 196.308 268.202C195.68 268.754 195.345 269.54 195.399 270.369C195.345 271.271 195.81 272.131 196.612 272.578C197.445 273.045 198.377 273.289 199.329 273.289C200.131 273.289 200.921 273.183 201.679 272.96C202.426 272.758 203.13 272.439 203.769 272.015C204.353 271.622 204.84 271.091 205.176 270.475C205.566 269.806 205.761 269.041 205.739 268.266V266.492H203.736ZM237.561 258.039H230.122V266.981C230.122 267.66 230.155 268.351 230.241 269.03C230.274 269.604 230.447 270.156 230.739 270.655C231.021 271.123 231.432 271.484 231.93 271.717C232.634 271.962 233.371 272.068 234.118 272.047C234.583 272.047 235.157 272.047 235.872 271.951C236.478 271.887 237.052 271.654 237.528 271.282V278.111C236.575 278.44 235.59 278.663 234.594 278.78C233.587 278.875 232.591 278.939 231.606 278.939C230.274 278.95 228.953 278.801 227.665 278.504C226.528 278.238 225.456 277.771 224.503 277.123C223.593 276.443 222.868 275.572 222.37 274.574C221.85 273.385 221.601 272.11 221.644 270.815V258.049H216.242V251.412H221.644V243.447H230.101V251.412H237.539L237.572 258.049L237.561 258.039ZM240.874 264.835C240.841 262.839 241.242 260.864 242.054 259.026C242.801 257.348 243.895 255.84 245.27 254.608C246.677 253.345 248.323 252.368 250.11 251.73C252.026 251.061 254.051 250.721 256.097 250.743C258.111 250.721 260.114 251.061 262.02 251.73C263.817 252.346 265.463 253.334 266.86 254.608C268.278 255.83 269.415 257.338 270.173 259.026C271.764 262.743 271.764 266.928 270.173 270.634C269.393 272.333 268.267 273.863 266.86 275.105C265.452 276.358 263.806 277.314 262.02 277.93C260.125 278.599 258.122 278.928 256.097 278.918C254.062 278.918 252.037 278.588 250.11 277.93C248.323 277.293 246.688 276.337 245.27 275.105C243.906 273.841 242.812 272.323 242.054 270.634C241.22 268.807 240.798 266.832 240.798 264.825H240.885L240.874 264.835ZM249.33 264.835C249.254 266.62 249.871 268.361 251.073 269.71C252.383 271.006 254.192 271.685 256.043 271.6C257.905 271.717 259.724 271.027 261.013 269.71C263.373 266.875 263.373 262.796 261.013 259.95C259.713 258.644 257.894 257.964 256.043 258.081C254.192 257.996 252.394 258.676 251.073 259.95C249.85 261.288 249.2 263.03 249.254 264.825H249.341L249.33 264.835ZM276.16 251.412H284.616V255.723H284.735C285.472 254.247 286.576 252.973 287.951 252.017C289.337 251.136 290.972 250.69 292.629 250.753H294.09C294.545 250.796 295 250.87 295.455 250.976V258.601C294.87 258.41 294.264 258.283 293.646 258.209C293.051 258.092 292.445 258.039 291.838 258.049C290.528 257.996 289.218 258.219 288.005 258.697C287.107 259.111 286.349 259.77 285.818 260.587C285.299 261.448 284.963 262.403 284.855 263.402C284.692 264.612 284.616 265.834 284.627 267.055V278.27H276.171V251.412H276.16Z" fill="#0B87E8"/>
</svg>
