<?xml version="1.0" encoding="utf-8"?>
<!-- Generator: Adobe Illustrator 25.2.1, SVG Export Plug-In . SVG Version: 6.00 Build 0)  -->
<svg version="1.1" id="Layer_1" xmlns="http://www.w3.org/2000/svg" xmlns:xlink="http://www.w3.org/1999/xlink" x="0px" y="0px"
	 viewBox="0 0 264 264" style="enable-background:new 0 0 264 264;" xml:space="preserve">
<style type="text/css">
	.st0{fill:#74C7AB;}
	.st1{fill:#FFFFFF;}
	.st2{fill:#E5E5E5;}
</style>
<path class="st0" d="M132,264L132,264C59.1,264,0,204.9,0,132v0C0,59.1,59.1,0,132,0h0c72.9,0,132,59.1,132,132v0
	C264,204.9,204.9,264,132,264z"/>
<g>
	<path class="st1" d="M183.8,114.88v11.52h27.83v17.23H183.8v23.04h-20.49V97.34h53.21v17.53H183.8z"/>
	<path class="st1" d="M150.89,136.79h21.1c-1.22,18.45-15.39,31.29-35.57,31.29c-21.92,0-37.41-15.29-37.41-36.08
		s15.49-36.08,37.41-36.08c20.18,0,34.35,12.84,35.57,31.29h-21.1c-1.33-7.24-6.52-12.13-14.78-12.13
		c-9.99,0-16.21,7.44-16.21,16.92s6.22,16.92,16.21,16.92C144.37,148.92,149.57,144.03,150.89,136.79z"/>
	<polygon class="st2" points="132.43,167.91 122.7,166.43 100.17,117.47 106.42,109.59 	"/>
	<path class="st1" d="M99.56,156.77h-26.6l-3.57,9.89H47.48l28.74-69.31H96.3l28.74,69.31h-21.81L99.56,156.77z M93.55,140.26
		l-7.34-19.88l-7.24,19.88H93.55z"/>
	<g>
		<path class="st2" d="M171.99,127.21h4.6c-1.22-18.45-15.39-31.29-35.57-31.29c-0.78,0-1.55,0.02-2.31,0.06
			C157.66,96.92,170.81,109.47,171.99,127.21z"/>
		<path class="st2" d="M138.71,168.02c0.76,0.04,1.53,0.06,2.31,0.06c20.18,0,34.35-12.84,35.57-31.29h-4.6
			C170.81,154.53,157.66,167.08,138.71,168.02z"/>
	</g>
</g>
</svg>
