<svg width="300" height="300" viewBox="0 0 300 300" fill="none" xmlns="http://www.w3.org/2000/svg">
<path d="M237.254 160.773L226.254 167.373V171.773H237.254V160.773Z" fill="black"/>
<path d="M25.4922 155.561C25.4922 154.596 25.4056 153.717 25.2324 152.926C25.0592 152.134 24.6882 151.404 24.1191 150.736C23.5749 150.068 22.7708 149.4 21.707 148.732C20.668 148.064 19.3073 147.372 17.625 146.654C15.6211 145.813 13.679 144.923 11.7988 143.982C9.91862 143.018 8.22396 141.904 6.71484 140.643C5.20573 139.381 4.00586 137.896 3.11523 136.189C2.24935 134.458 1.81641 132.429 1.81641 130.104C1.81641 127.827 2.22461 125.762 3.04102 123.906C3.88216 122.051 5.06966 120.467 6.60352 119.156C8.13737 117.82 9.93099 116.794 11.9844 116.076C14.0625 115.359 16.3757 115 18.9238 115C22.3874 115 25.3809 115.717 27.9043 117.152C30.4525 118.587 32.4193 120.554 33.8047 123.053C35.2148 125.551 35.9199 128.421 35.9199 131.662H25.084C25.084 130.128 24.8613 128.78 24.416 127.617C23.9954 126.43 23.3151 125.502 22.375 124.834C21.4349 124.166 20.2227 123.832 18.7383 123.832C17.3529 123.832 16.2025 124.117 15.2871 124.686C14.3965 125.23 13.7285 125.984 13.2832 126.949C12.8626 127.889 12.6523 128.953 12.6523 130.141C12.6523 131.031 12.8626 131.835 13.2832 132.553C13.7285 133.245 14.3346 133.876 15.1016 134.445C15.8685 134.99 16.7715 135.521 17.8105 136.041C18.8743 136.561 20.0371 137.068 21.2988 137.562C23.748 138.527 25.9128 139.591 27.793 140.754C29.6732 141.892 31.2441 143.178 32.5059 144.613C33.7676 146.023 34.7201 147.619 35.3633 149.4C36.0065 151.182 36.3281 153.21 36.3281 155.486C36.3281 157.738 35.9323 159.791 35.1406 161.646C34.3737 163.477 33.248 165.061 31.7637 166.396C30.2793 167.708 28.4857 168.722 26.3828 169.439C24.3047 170.157 21.9792 170.516 19.4062 170.516C16.9076 170.516 14.5449 170.169 12.3184 169.477C10.0918 168.759 8.125 167.683 6.41797 166.248C4.73568 164.788 3.41211 162.945 2.44727 160.719C1.48242 158.467 1 155.808 1 152.74H11.873C11.873 154.373 12.0339 155.771 12.3555 156.934C12.6771 158.072 13.1719 158.987 13.8398 159.68C14.5078 160.348 15.3242 160.855 16.2891 161.201C17.2786 161.523 18.4043 161.684 19.666 161.684C21.1009 161.684 22.2389 161.411 23.0801 160.867C23.946 160.323 24.5645 159.593 24.9355 158.678C25.3066 157.762 25.4922 156.723 25.4922 155.561Z" fill="black"/>
<path d="M63.1609 170.533C60.6782 170.533 58.3982 170.052 56.3209 169.089C54.2435 168.127 52.5462 166.809 51.2289 165.137C49.9115 163.415 49.1515 161.464 48.9489 159.285V143.705C49.1515 141.527 49.9115 139.551 51.2289 137.777C52.5462 136.004 54.2435 134.611 56.3209 133.597C58.3982 132.584 60.6782 132.077 63.1609 132.077C66.6569 132.077 69.7475 132.913 72.4329 134.585C75.1689 136.257 77.2969 138.537 78.8169 141.425C80.3875 144.313 81.1729 147.607 81.1729 151.305C81.1729 155.004 80.3875 158.297 78.8169 161.185C77.2969 164.073 75.1689 166.353 72.4329 168.025C69.7475 169.697 66.6569 170.533 63.1609 170.533ZM61.0329 160.045C62.7049 160.045 64.1489 159.665 65.3649 158.905C66.6315 158.145 67.6195 157.107 68.3289 155.789C69.0382 154.472 69.3929 152.977 69.3929 151.305C69.3929 149.583 69.0382 148.063 68.3289 146.745C67.6195 145.428 66.6315 144.415 65.3649 143.705C64.1489 142.945 62.7302 142.565 61.1089 142.565C59.4875 142.565 58.0435 142.945 56.7769 143.705C55.5609 144.415 54.5982 145.428 53.8889 146.745C53.1795 148.063 52.8249 149.583 52.8249 151.305C52.8249 152.977 53.1542 154.472 53.8129 155.789C54.5222 157.107 55.5102 158.145 56.7769 158.905C58.0435 159.665 59.4622 160.045 61.0329 160.045ZM41.8809 185.353V132.837H53.5089V142.337L51.6089 151.305L53.3569 160.273V185.353H41.8809Z" fill="black"/>
<path d="M103.8 170.609C99.7974 170.609 96.2254 169.799 93.0841 168.177C89.9934 166.505 87.5614 164.2 85.7881 161.261C84.0148 158.323 83.1281 155.004 83.1281 151.305C83.1281 147.607 83.9894 144.313 85.7121 141.425C87.4854 138.487 89.8668 136.181 92.8561 134.509C95.8454 132.837 99.2148 132.001 102.964 132.001C106.612 132.001 109.829 132.787 112.616 134.357C115.403 135.928 117.581 138.107 119.152 140.893C120.773 143.68 121.584 146.872 121.584 150.469C121.584 151.128 121.533 151.837 121.432 152.597C121.381 153.307 121.255 154.143 121.052 155.105L89.2081 155.181V147.201L116.112 147.125L111.096 150.469C111.045 148.341 110.716 146.593 110.108 145.225C109.5 143.807 108.588 142.743 107.372 142.033C106.207 141.273 104.763 140.893 103.04 140.893C101.216 140.893 99.6201 141.324 98.2521 142.185C96.9348 142.996 95.8961 144.161 95.1361 145.681C94.4268 147.201 94.0721 149.051 94.0721 151.229C94.0721 153.408 94.4521 155.283 95.2121 156.853C96.0228 158.373 97.1374 159.564 98.5561 160.425C100.025 161.236 101.748 161.641 103.724 161.641C105.548 161.641 107.195 161.337 108.664 160.729C110.133 160.071 111.425 159.108 112.54 157.841L118.924 164.225C117.1 166.353 114.896 167.949 112.312 169.013C109.728 170.077 106.891 170.609 103.8 170.609Z" fill="black"/>
<path d="M125.677 169.773V132.837H137.305V169.773H125.677ZM137.305 149.481L132.441 145.681C133.403 141.375 135.025 138.031 137.305 135.649C139.585 133.268 142.751 132.077 146.805 132.077C148.578 132.077 150.123 132.356 151.441 132.913C152.809 133.42 153.999 134.231 155.013 135.345L148.097 144.085C147.59 143.528 146.957 143.097 146.197 142.793C145.437 142.489 144.575 142.337 143.613 142.337C141.687 142.337 140.142 142.945 138.977 144.161C137.862 145.327 137.305 147.1 137.305 149.481Z" fill="black"/>
<path d="M169.226 170.685C167.047 170.685 164.894 170.407 162.766 169.849C160.689 169.292 158.738 168.507 156.914 167.493C155.141 166.429 153.621 165.213 152.354 163.845L158.966 157.157C160.182 158.475 161.626 159.513 163.298 160.273C164.97 160.983 166.794 161.337 168.77 161.337C170.138 161.337 171.177 161.135 171.886 160.729C172.646 160.324 173.026 159.767 173.026 159.057C173.026 158.145 172.57 157.461 171.658 157.005C170.797 156.499 169.682 156.068 168.314 155.713C166.946 155.308 165.502 154.877 163.982 154.421C162.462 153.965 161.018 153.332 159.65 152.521C158.282 151.711 157.167 150.596 156.306 149.177C155.445 147.708 155.014 145.859 155.014 143.629C155.014 141.248 155.622 139.196 156.838 137.473C158.054 135.7 159.777 134.307 162.006 133.293C164.235 132.28 166.845 131.773 169.834 131.773C172.975 131.773 175.863 132.331 178.498 133.445C181.183 134.509 183.362 136.105 185.034 138.233L178.422 144.921C177.257 143.553 175.939 142.591 174.47 142.033C173.051 141.476 171.658 141.197 170.29 141.197C168.973 141.197 167.985 141.4 167.326 141.805C166.667 142.16 166.338 142.692 166.338 143.401C166.338 144.161 166.769 144.769 167.63 145.225C168.491 145.681 169.606 146.087 170.974 146.441C172.342 146.796 173.786 147.227 175.306 147.733C176.826 148.24 178.27 148.924 179.638 149.785C181.006 150.647 182.121 151.812 182.982 153.281C183.843 154.7 184.274 156.575 184.274 158.905C184.274 162.503 182.906 165.365 180.17 167.493C177.485 169.621 173.837 170.685 169.226 170.685Z" fill="black"/>
<path d="M207.303 170.609C203.3 170.609 199.728 169.799 196.587 168.177C193.496 166.505 191.064 164.2 189.291 161.261C187.517 158.323 186.631 155.004 186.631 151.305C186.631 147.607 187.492 144.313 189.215 141.425C190.988 138.487 193.369 136.181 196.359 134.509C199.348 132.837 202.717 132.001 206.467 132.001C210.115 132.001 213.332 132.787 216.119 134.357C218.905 135.928 221.084 138.107 222.655 140.893C224.276 143.68 225.087 146.872 225.087 150.469C225.087 151.128 225.036 151.837 224.935 152.597C224.884 153.307 224.757 154.143 224.555 155.105L192.711 155.181V147.201L219.615 147.125L214.599 150.469C214.548 148.341 214.219 146.593 213.611 145.225C213.003 143.807 212.091 142.743 210.875 142.033C209.709 141.273 208.265 140.893 206.543 140.893C204.719 140.893 203.123 141.324 201.755 142.185C200.437 142.996 199.399 144.161 198.639 145.681C197.929 147.201 197.575 149.051 197.575 151.229C197.575 153.408 197.955 155.283 198.715 156.853C199.525 158.373 200.64 159.564 202.059 160.425C203.528 161.236 205.251 161.641 207.227 161.641C209.051 161.641 210.697 161.337 212.167 160.729C213.636 160.071 214.928 159.108 216.043 157.841L222.427 164.225C220.603 166.353 218.399 167.949 215.815 169.013C213.231 170.077 210.393 170.609 207.303 170.609Z" fill="black"/>
<path d="M254.754 141.773L244.754 149.273V171.773H254.754V141.773Z" fill="black"/>
<path d="M254.754 132.773H244.754V144.773L254.754 137.273V132.773Z" fill="black"/>
<path d="M297.336 147.833L294.339 147.181C294.078 146.383 293.755 145.605 293.374 144.855L295.034 142.274C295.33 141.813 295.265 141.207 294.877 140.82L290.208 136.15C289.82 135.763 289.215 135.697 288.754 135.994L286.172 137.653C285.423 137.272 284.644 136.949 283.846 136.689L283.194 133.691C283.078 133.155 282.604 132.773 282.056 132.773H275.452C274.904 132.773 274.43 133.155 274.313 133.691L273.662 136.689C272.864 136.949 272.085 137.272 271.335 137.653L268.754 135.994C268.293 135.697 267.688 135.763 267.3 136.15L262.63 140.82C262.243 141.207 262.178 141.813 262.474 142.274L264.134 144.855C263.753 145.605 263.43 146.383 263.169 147.181L260.172 147.833C259.636 147.949 259.254 148.423 259.254 148.972V155.575C259.254 156.123 259.636 156.597 260.172 156.714L263.169 157.366C263.43 158.164 263.753 158.942 264.134 159.692L262.474 162.273C262.178 162.734 262.243 163.34 262.63 163.727L267.3 168.397C267.688 168.784 268.293 168.849 268.754 168.553L271.335 166.894C272.085 167.275 272.864 167.598 273.662 167.858L274.313 170.856C274.43 171.391 274.904 171.773 275.452 171.773H282.056C282.604 171.773 283.078 171.391 283.194 170.856L283.846 167.858C284.644 167.598 285.423 167.275 286.172 166.894L288.754 168.553C289.215 168.849 289.82 168.785 290.208 168.397L294.877 163.727C295.265 163.34 295.33 162.734 295.034 162.273L293.374 159.692C293.755 158.942 294.078 158.164 294.339 157.366L297.336 156.714C297.872 156.597 298.254 156.123 298.254 155.575V148.972C298.254 148.423 297.872 147.949 297.336 147.833ZM285.746 152.273C285.746 156.129 282.609 159.265 278.754 159.265C274.899 159.265 271.762 156.129 271.762 152.273C271.762 148.418 274.899 145.281 278.754 145.281C282.609 145.281 285.746 148.418 285.746 152.273Z" fill="black"/>
</svg>
