<svg id="Layer_1" data-name="Layer 1" xmlns="http://www.w3.org/2000/svg" viewBox="0 0 300 300"><path d="M43.26,70.94,67.2,66.43l4.52-24a1.36,1.36,0,0,1,2.71,0l4.52,24,23.94,4.51a1.31,1.31,0,0,1,1.35,1.36A1.39,1.39,0,0,1,103,73.77L79.06,78.29l-4.52,23.94a1.36,1.36,0,0,1-2.71,0L67.31,78.29,43.26,73.65a1.36,1.36,0,1,1,0-2.71Z"/><path d="M245.75,165V119.39c0-9,0-18-.11-27l-.11-6.77-.12-3.39v-.91L245.3,80a11.11,11.11,0,0,0-.56-2.6,14.52,14.52,0,0,0-6.22-8.13,15.1,15.1,0,0,0-4.85-1.92,20.91,20.91,0,0,0-2.6-.23h-1.81l-54-.22-27-.11-27-.23h-.12a5.82,5.82,0,1,0,.12,11.63l27-.34,27-.11,49.58-.34-59.29,48.11-4.18,3.39-2.15,1.69-.22.23-.12.11c-.11,0-.11.12-.22.12a.86.86,0,0,1-.45.22,3.63,3.63,0,0,1-2.15.34,4.09,4.09,0,0,1-2.14-.79l-16.61-13.66L104,89.8h-.11a5.95,5.95,0,0,0-7.46,9.27l33.66,27,16.82,13.32.79.57a2.54,2.54,0,0,0,.91.56,10.29,10.29,0,0,0,1.92,1,12.87,12.87,0,0,0,4.06,1.13A15.19,15.19,0,0,0,163,141.3c.68-.34,1.24-.67,1.92-1a10.05,10.05,0,0,0,1.47-1.13l2.14-1.7,4.18-3.38L234.8,83.59v1.92l-.12,6.78c-.11,9-.11,18-.11,27v47a3.75,3.75,0,0,1-1,2.37,3.26,3.26,0,0,1-2.38,1H184.32l-54-.11H82.11a4.9,4.9,0,0,1-.57-.12,2.75,2.75,0,0,1-1-.56,3.22,3.22,0,0,1-1.24-2,1.59,1.59,0,0,0-.12-.68V147.51l-.11-27a6,6,0,0,0-5.87-5.87,5.84,5.84,0,0,0-5.88,5.87l-.11,27v18.64a22.36,22.36,0,0,0,.23,2.71,15,15,0,0,0,5.42,9.26,15.66,15.66,0,0,0,4.85,2.6,24.17,24.17,0,0,0,2.71.56,5.26,5.26,0,0,0,1.36.12h48.45l54-.12h47.66a14.58,14.58,0,0,0,9.6-4.4,15,15,0,0,0,4.29-9.71Z"/><path d="M29.75,250.1H16.44l-2.85,8.16H7.38l12.27-33.45h7.11L39,258.26H32.6Zm-11.54-4.9H28l-4.87-13.75H23Z"/><path d="M53.68,232.46c5.7,0,9.45,3.25,10,8.12l-5.42,1.15c-.21-2.56-1.69-4.62-4.51-4.62-3.82,0-5.7,3.47-5.7,8.55s1.91,8.52,5.78,8.52c2.59,0,4.25-1.91,4.51-4.65L63.74,251c-.86,4.91-4.61,7.86-10,7.86-7.26,0-11.91-4.94-11.91-13.17S46.53,232.46,53.68,232.46Z"/><path d="M84.53,253.57c-1.16,3.57-4,5.3-7.87,5.3-4.15,0-7.83-2.6-7.83-8.12V233.07H75v16.31c0,2.89,1.45,4.62,4,4.62,2.85,0,5.16-2,5.16-6.68V233.07h6.21v25.19H85.25Z"/><path d="M226.87,232.46c4.51,0,7.76,2.7,7.76,8v17.83h-6.17v-16c0-2.81-1.12-4.62-4-4.62-2.6,0-4.91,1.81-4.91,6.43v14.18h-6.2v-16c0-2.81-1.09-4.62-4-4.62-2.67,0-4.94,1.84-4.94,6.46v14.11h-6.17V233.07h5.05l.76,4.87a7.79,7.79,0,0,1,7.72-5.45A7.18,7.18,0,0,1,219,237.8,8.16,8.16,0,0,1,226.87,232.46Z"/><path d="M126.56,232.46c4.51,0,7.76,2.7,7.76,8v17.83h-6.13v-16c0-2.81-1.12-4.62-4-4.62-2.6,0-4.91,1.81-4.91,6.43v14.18H113v-16c0-2.81-1.12-4.62-4-4.62-2.67,0-5,1.84-5,6.46v14.11H97.91V233.07H103l.75,4.87a7.81,7.81,0,0,1,7.73-5.45,7.18,7.18,0,0,1,7.32,5.31A8.07,8.07,0,0,1,126.56,232.46Z"/><path d="M147.64,237.33c.93-3,4-4.87,7.39-4.87,6.75,0,10.36,5.52,10.36,13,0,7.91-4.22,13.35-10.75,13.35-3.61,0-6.57-1.91-7.47-5.08l-.69,4.51h-5V222.1h6.17v15.23Zm0,10.1c0,4.8,2.7,6.75,5.41,6.75,3.61,0,6.06-2.89,6.06-8.62s-2.24-8.3-6-8.3c-2.82,0-5.52,2.2-5.52,7Z"/><path d="M260.68,252.16c0,1.44.69,2,1.77,2a2.27,2.27,0,0,0,1.45-.51l.25,4.22a6.64,6.64,0,0,1-3.61.94,5.21,5.21,0,0,1-4.66-2.27,9.36,9.36,0,0,1-.75-1.84c-1,2.67-4,4.11-7.26,4.11-4.61,0-7.9-2.6-7.9-7.18,0-5,4.22-8,12.05-8,.94,0,1.84.07,2.75.15v-2.78c0-2.42-1.3-3.86-3.9-3.86s-3.9,1.51-4,4l-5.81-.91c.51-4.87,4.44-7.65,10.07-7.65,6.24,0,9.52,2.82,9.52,8.12Zm-5.91-4.87c-.55,0-1.3-.15-2.06-.15-4.4,0-6.75,1.3-6.75,4.05,0,2,1.41,3.35,3.79,3.35s5-1.55,5-5.52Z"/><path d="M190.07,252.16c0,1.44.69,2,1.77,2a2.24,2.24,0,0,0,1.44-.51l.25,4.22a6.6,6.6,0,0,1-3.6.94,5.2,5.2,0,0,1-4.66-2.27,8.49,8.49,0,0,1-.76-1.84c-1,2.67-4,4.11-7.25,4.11-4.62,0-7.9-2.6-7.9-7.18,0-5,4.22-8,12-8,.94,0,1.84.07,2.74.15v-2.78c0-2.42-1.3-3.86-3.89-3.86s-3.9,1.51-4,4l-5.81-.91c.5-4.87,4.47-7.68,10.06-7.68,6.25,0,9.53,2.81,9.53,8.12v11.58Zm-5.92-4.87c-.54,0-1.3-.15-2.05-.15-4.41,0-6.75,1.3-6.75,4.05,0,2,1.41,3.35,3.79,3.35s5-1.55,5-5.52Z"/><rect x="268.8" y="233.07" width="6.13" height="25.19"/><path d="M266.24,225.46l4.51-.87.87-4.51a.25.25,0,0,1,.5,0h0l.87,4.51,4.51.87a.24.24,0,0,1,.21.29.3.3,0,0,1-.21.21l-4.51.87-.87,4.51a.25.25,0,1,1-.5,0l-.87-4.51-4.51-.87a.25.25,0,0,1-.22-.29A.24.24,0,0,1,266.24,225.46Z"/><path d="M292.62,257.68A9.71,9.71,0,0,1,288,258.8c-3.36,0-6.1-1.59-6.1-6V222.1h6.17v29.48c0,1.55.69,2.24,2.06,2.24a3.56,3.56,0,0,0,2.05-.65Z"/></svg>