<svg width="300" height="300" viewBox="0 0 300 300" fill="none" xmlns="http://www.w3.org/2000/svg">
<path d="M209.545 16H92.4545C73.9781 16 59 30.9781 59 49.4545V166.545C59 185.022 73.9781 200 92.4545 200H209.545C228.022 200 243 185.022 243 166.545V49.4545C243 30.9781 228.022 16 209.545 16Z" fill="#0D6EFD"/>
<path d="M100.818 166.546C107.747 166.546 113.364 160.929 113.364 154C113.364 147.071 107.747 141.455 100.818 141.455C93.8895 141.455 88.2727 147.071 88.2727 154C88.2727 160.929 93.8895 166.546 100.818 166.546Z" fill="white"/>
<path fill-rule="evenodd" clip-rule="evenodd" d="M201.567 49.4546C204.792 49.4546 207.885 50.7358 210.165 53.0164C212.446 55.297 213.727 58.3901 213.727 61.6153C213.727 64.8405 212.446 67.9337 210.165 70.2143C207.885 72.4948 204.792 73.776 201.567 73.776L116.709 73.7719V96.224H153.062C156.287 96.224 159.38 97.5053 161.661 99.7858C163.941 102.066 165.222 105.16 165.222 108.385C165.222 111.61 163.941 114.703 161.661 116.984C159.38 119.264 156.287 120.546 153.062 120.546H104.582C101.365 120.546 98.2808 119.268 96.0065 116.994C93.7322 114.719 92.4545 111.635 92.4545 108.418V61.5819C92.4545 58.3655 93.7322 55.2809 96.0065 53.0066C98.2808 50.7323 101.365 49.4546 104.582 49.4546H201.567Z" fill="white"/>
<path d="M9.93182 264V223.273H34.3523V227.648H14.8636V241.409H32.5227V245.784H14.8636V264H9.93182ZM46.8558 223.273V264H42.1626V223.273H46.8558ZM67.8608 264.636C65.1032 264.636 62.6837 263.98 60.6023 262.668C58.5341 261.355 56.9167 259.519 55.75 257.159C54.5966 254.799 54.0199 252.042 54.0199 248.886C54.0199 245.705 54.5966 242.927 55.75 240.554C56.9167 238.181 58.5341 236.338 60.6023 235.026C62.6837 233.713 65.1032 233.057 67.8608 233.057C70.6184 233.057 73.0313 233.713 75.0994 235.026C77.1809 236.338 78.7983 238.181 79.9517 240.554C81.1184 242.927 81.7017 245.705 81.7017 248.886C81.7017 252.042 81.1184 254.799 79.9517 257.159C78.7983 259.519 77.1809 261.355 75.0994 262.668C73.0313 263.98 70.6184 264.636 67.8608 264.636ZM67.8608 260.42C69.9555 260.42 71.679 259.884 73.0312 258.81C74.3835 257.736 75.3845 256.324 76.0341 254.574C76.6837 252.824 77.0085 250.928 77.0085 248.886C77.0085 246.845 76.6837 244.942 76.0341 243.179C75.3845 241.416 74.3835 239.991 73.0312 238.903C71.679 237.816 69.9555 237.273 67.8608 237.273C65.7661 237.273 64.0426 237.816 62.6903 238.903C61.3381 239.991 60.3371 241.416 59.6875 243.179C59.0379 244.942 58.7131 246.845 58.7131 248.886C58.7131 250.928 59.0379 252.824 59.6875 254.574C60.3371 256.324 61.3381 257.736 62.6903 258.81C64.0426 259.884 65.7661 260.42 67.8608 260.42ZM94.7472 264L85.4403 233.455H90.3722L96.9744 256.841H97.2926L103.815 233.455H108.827L115.27 256.761H115.588L122.19 233.455H127.122L117.815 264H113.202L106.52 240.534H106.043L99.3608 264H94.7472ZM133.963 223.273H139.849L153.69 257.08H154.168L168.009 223.273H173.895V264H169.281V233.057H168.884L156.156 264H151.702L138.974 233.057H138.577V264H133.963V223.273ZM192.136 264.716C190.2 264.716 188.443 264.351 186.866 263.622C185.288 262.88 184.035 261.812 183.107 260.42C182.179 259.015 181.715 257.318 181.715 255.33C181.715 253.58 182.06 252.161 182.749 251.074C183.439 249.973 184.36 249.112 185.513 248.489C186.667 247.866 187.94 247.402 189.332 247.097C190.737 246.778 192.149 246.527 193.567 246.341C195.424 246.102 196.928 245.923 198.082 245.804C199.248 245.671 200.097 245.453 200.627 245.148C201.171 244.843 201.442 244.312 201.442 243.557V243.398C201.442 241.436 200.906 239.911 199.832 238.824C198.771 237.737 197.16 237.193 194.999 237.193C192.759 237.193 191.002 237.684 189.729 238.665C188.457 239.646 187.562 240.693 187.045 241.807L182.59 240.216C183.386 238.36 184.446 236.915 185.772 235.881C187.111 234.833 188.569 234.104 190.147 233.693C191.738 233.269 193.302 233.057 194.84 233.057C195.821 233.057 196.948 233.176 198.221 233.415C199.507 233.64 200.746 234.111 201.94 234.827C203.146 235.543 204.147 236.623 204.942 238.068C205.738 239.513 206.136 241.449 206.136 243.875V264H201.442V259.864H201.204C200.886 260.527 200.355 261.236 199.613 261.991C198.871 262.747 197.883 263.39 196.65 263.92C195.417 264.451 193.912 264.716 192.136 264.716ZM192.852 260.5C194.708 260.5 196.272 260.135 197.545 259.406C198.831 258.677 199.799 257.736 200.448 256.582C201.111 255.429 201.442 254.216 201.442 252.943V248.648C201.244 248.886 200.806 249.105 200.13 249.304C199.467 249.49 198.698 249.655 197.823 249.801C196.961 249.934 196.12 250.053 195.298 250.159C194.489 250.252 193.833 250.331 193.329 250.398C192.109 250.557 190.969 250.815 189.908 251.173C188.861 251.518 188.013 252.042 187.363 252.744C186.727 253.434 186.408 254.375 186.408 255.568C186.408 257.199 187.012 258.432 188.218 259.267C189.438 260.089 190.982 260.5 192.852 260.5ZM227.986 233.455V237.432H212.156V233.455H227.986ZM216.77 226.136H221.463V255.25C221.463 256.576 221.655 257.57 222.04 258.233C222.438 258.883 222.941 259.32 223.551 259.545C224.174 259.758 224.83 259.864 225.52 259.864C226.037 259.864 226.461 259.837 226.793 259.784C227.124 259.718 227.389 259.665 227.588 259.625L228.543 263.841C228.224 263.96 227.78 264.08 227.21 264.199C226.64 264.331 225.918 264.398 225.043 264.398C223.717 264.398 222.418 264.113 221.145 263.543C219.885 262.973 218.838 262.104 218.003 260.938C217.181 259.771 216.77 258.299 216.77 256.523V226.136ZM248.33 233.455V237.432H232.5V233.455H248.33ZM237.114 226.136H241.807V255.25C241.807 256.576 241.999 257.57 242.384 258.233C242.781 258.883 243.285 259.32 243.895 259.545C244.518 259.758 245.174 259.864 245.864 259.864C246.381 259.864 246.805 259.837 247.136 259.784C247.468 259.718 247.733 259.665 247.932 259.625L248.886 263.841C248.568 263.96 248.124 264.08 247.554 264.199C246.984 264.331 246.261 264.398 245.386 264.398C244.061 264.398 242.761 264.113 241.489 263.543C240.229 262.973 239.182 262.104 238.347 260.938C237.525 259.771 237.114 258.299 237.114 256.523V226.136ZM255.389 264V233.455H260.082V264H255.389ZM257.776 228.364C256.861 228.364 256.072 228.052 255.409 227.429C254.759 226.806 254.435 226.057 254.435 225.182C254.435 224.307 254.759 223.558 255.409 222.935C256.072 222.312 256.861 222 257.776 222C258.69 222 259.473 222.312 260.122 222.935C260.785 223.558 261.116 224.307 261.116 225.182C261.116 226.057 260.785 226.806 260.122 227.429C259.473 228.052 258.69 228.364 257.776 228.364ZM281.087 264.636C278.224 264.636 275.758 263.96 273.69 262.608C271.621 261.256 270.031 259.393 268.917 257.02C267.803 254.647 267.246 251.936 267.246 248.886C267.246 245.784 267.817 243.046 268.957 240.673C270.11 238.287 271.714 236.424 273.769 235.085C275.837 233.733 278.25 233.057 281.008 233.057C283.156 233.057 285.091 233.455 286.815 234.25C288.538 235.045 289.95 236.159 291.05 237.591C292.151 239.023 292.834 240.693 293.099 242.602H288.406C288.048 241.21 287.252 239.977 286.019 238.903C284.799 237.816 283.156 237.273 281.087 237.273C279.258 237.273 277.654 237.75 276.275 238.705C274.909 239.646 273.842 240.978 273.073 242.702C272.317 244.412 271.94 246.42 271.94 248.727C271.94 251.087 272.311 253.142 273.053 254.892C273.809 256.642 274.87 258.001 276.235 258.969C277.614 259.937 279.231 260.42 281.087 260.42C282.307 260.42 283.414 260.208 284.408 259.784C285.403 259.36 286.245 258.75 286.934 257.955C287.623 257.159 288.114 256.205 288.406 255.091H293.099C292.834 256.894 292.177 258.518 291.13 259.963C290.096 261.395 288.724 262.535 287.013 263.384C285.317 264.219 283.341 264.636 281.087 264.636Z" fill="#524933"/>
</svg>
