<svg width="300" height="300" viewBox="0 0 300 300" fill="none" xmlns="http://www.w3.org/2000/svg">
<path d="M289.298 160.708C288.927 160.175 288.655 159.659 288.5 159.109C288.339 158.543 288.293 157.945 288.161 157.146C285.941 159.662 283.379 161.188 280.112 161.352C274.269 161.644 269.997 159.133 267.687 153.848C264.554 146.678 264.508 139.3 267.819 132.193C271.463 124.371 280.571 122.625 287.182 128.209C287.25 128.266 287.363 128.268 287.653 128.355C287.653 122.566 287.653 116.831 287.653 111.014C290.857 111.014 293.864 111.014 297 111.014C297 127.524 297 144.029 297 160.71C294.491 160.71 291.969 160.71 289.298 160.708ZM287.72 139.129C287.548 137.821 287.716 136.331 287.133 135.242C285.897 132.931 283.637 132.184 281.077 132.366C278.681 132.536 276.956 133.815 276.142 135.979C274.331 140.787 274.267 145.683 276.133 150.505C277.014 152.779 278.834 153.908 281.278 154.033C285.247 154.237 287.72 151.939 287.72 148.029C287.72 145.168 287.72 142.307 287.72 139.129Z" fill="#010101"/>
<path d="M79.2066 150.625C79.2066 154.026 79.2066 157.265 79.2066 160.607C76.4226 160.607 73.6936 160.607 70.8021 160.607C70.6485 159.593 70.4831 158.502 70.3113 157.368C70.159 157.417 69.9776 157.422 69.8807 157.515C62.9631 164.146 52.9477 162.063 49.3921 153.068C46.7933 146.493 46.8811 139.737 49.4268 133.136C52.894 124.146 63.9056 122.488 69.7933 128.655C69.7933 125.546 69.7933 122.666 69.7933 119.786C69.7933 116.88 69.7933 113.974 69.7933 111C72.9547 111 75.9681 111 79.2066 111C79.2066 124.13 79.2066 137.296 79.2066 150.625ZM69.7938 147.52C69.7938 144.066 69.8502 140.611 69.7532 137.16C69.7297 136.321 69.3979 135.337 68.8741 134.689C65.639 130.69 59.6083 131.772 57.9298 136.753C56.4858 141.039 56.5236 145.479 57.9194 149.792C59.0141 153.175 61.6417 154.5 65.3423 153.864C68.3368 153.349 69.7938 151.376 69.7938 147.52Z" fill="#020202"/>
<path d="M17.1381 160.501C11.1733 159.209 6.99608 155.73 4.86222 150.312C1.89924 142.788 2.26212 135.439 7.47571 128.776C13.3843 121.225 26.9979 120.106 32.926 129.176C32.9801 129.259 33.0853 129.309 33.3551 129.524C33.3551 127.436 33.3551 125.488 33.3551 123.47C36.002 123.47 38.4619 123.47 41.0231 123.47C41.0231 135.671 41.0231 147.817 41.0231 160.088C38.5314 160.088 36.0254 160.088 33.3881 160.088C33.3881 158.015 33.3881 155.992 33.3881 153.419C29.4343 159.824 23.8898 161.487 17.1381 160.501ZM29.1778 131.969C25.6378 129.2 21.7442 128.62 17.6422 130.401C11.8726 132.906 9.32342 140.253 11.8534 146.708C14.0225 152.242 19.0704 155.205 24.3826 153.979C28.9016 152.937 31.8644 150.046 32.9237 145.627C34.1279 140.605 33.5113 135.84 29.1778 131.969Z" fill="#FF0403"/>
<path d="M122.284 157.829C116.724 151.17 119.676 142.447 128.236 140.306C130.825 139.658 133.566 139.59 136.245 139.337C137.412 139.227 138.598 139.318 139.755 139.318C140.38 134.963 139.137 132.385 136.215 131.824C132.628 131.136 130.307 132.569 129.574 135.995C126.585 135.995 123.576 135.995 120.392 135.995C120.348 133.063 121.578 130.716 123.727 128.862C127.81 125.338 132.696 124.531 137.849 125.181C139.734 125.419 141.654 126.015 143.371 126.838C147.08 128.615 149.083 131.764 149.26 135.842C149.444 140.104 149.33 144.379 149.344 148.648C149.357 152.633 149.087 156.651 150.935 160.702C147.708 160.702 144.722 160.73 141.738 160.657C141.448 160.65 141.081 160.063 140.912 159.675C140.658 159.095 140.548 158.452 140.312 157.598C137.783 160.138 134.861 161.452 131.329 161.382C127.888 161.314 124.873 160.311 122.284 157.829ZM138.73 144.685C136.278 144.769 133.761 144.333 131.471 145.666C129.382 146.881 128.41 149.194 129.074 151.455C129.673 153.495 131.511 154.604 134.027 154.412C134.615 154.368 135.208 154.276 135.777 154.127C137.867 153.578 139.868 151.755 139.918 150.295C139.973 148.735 139.979 147.168 139.891 145.612C139.872 145.288 139.346 144.993 138.73 144.685Z" fill="#030303"/>
<path d="M251.267 153.363C252.857 152.364 254.336 151.429 255.956 150.405C257.231 151.783 258.691 153.359 260.233 155.024C257.586 158.514 254.091 160.562 249.808 161.135C243.682 161.954 238.064 160.862 233.582 156.203C231.1 153.623 229.695 150.48 229.313 146.958C228.694 141.243 229.141 135.646 232.83 130.923C237.216 125.306 243.232 124.021 249.864 125.505C256.267 126.938 259.517 131.515 260.578 137.702C261.039 140.389 260.971 143.167 261.151 146.036C253.517 146.036 246.128 146.036 238.732 146.036C239.084 151.906 244.051 155.24 250.072 153.758C250.439 153.668 250.795 153.538 251.267 153.363ZM241.932 133.367C239.782 134.965 239.091 137.236 238.802 139.779C243.218 139.779 247.46 139.779 251.817 139.779C251.89 137.154 251.424 134.794 249.157 133.324C246.907 131.866 244.484 131.885 241.932 133.367Z" fill="#020202"/>
<path d="M166.394 143.16C166.394 149.045 166.394 154.767 166.394 160.6C163.262 160.6 160.223 160.6 157.118 160.6C157.118 148.979 157.118 137.383 157.118 125.71C159.995 125.71 162.833 125.71 165.756 125.71C165.88 126.95 166.002 128.168 166.147 129.613C166.766 129.03 167.253 128.566 167.746 128.109C172.275 123.909 180.539 123.896 184.391 128.116C186.466 130.388 187.216 133.228 187.25 136.179C187.344 144.285 187.283 152.393 187.283 160.606C184.269 160.606 181.211 160.606 177.946 160.606C177.946 160.061 177.946 159.487 177.946 158.912C177.946 152.371 177.946 145.83 177.946 139.289C177.946 138.856 177.957 138.423 177.942 137.991C177.83 134.692 176.939 133.268 174.568 132.585C171.522 131.708 168.327 132.744 166.824 135.173C166.537 135.638 166.426 136.274 166.413 136.836C166.366 138.889 166.394 140.944 166.394 143.16Z" fill="#030303"/>
<path d="M212.105 132.769C207.746 131.404 204.511 133.158 203.543 137.495C202.685 141.334 202.712 145.24 203.557 149.078C204.418 152.995 207.46 154.783 211.374 153.888C213.807 153.331 215.138 151.746 215.638 148.751C218.475 148.751 221.326 148.751 224.176 148.751C224.602 153.235 221.433 157.958 216.606 160.044C205.776 164.723 194.604 158.092 193.839 146.332C193.622 142.984 193.776 139.454 194.61 136.227C196.712 128.089 203.964 123.789 212.427 125.162C219.902 126.375 224.203 131.167 224.314 138.511C221.432 138.511 218.549 138.511 215.606 138.511C215.414 136.047 214.5 134.016 212.105 132.769Z" fill="#020202"/>
<path d="M91.4678 147.757C88.9607 140.352 86.4906 133.068 83.9883 125.69C87.3086 125.69 90.4812 125.69 93.7827 125.69C94.8541 129.547 95.9354 133.431 97.0118 137.316C98.0858 141.192 99.1548 145.07 100.507 148.915C102.632 141.202 104.757 133.489 106.902 125.707C110.072 125.707 113.249 125.707 116.647 125.707C116.396 126.454 116.164 127.142 115.932 127.831C112.41 138.295 108.868 148.753 105.395 159.233C105.003 160.416 104.472 160.803 103.233 160.744C100.808 160.63 98.3742 160.711 95.8128 160.711C94.3728 156.422 92.9388 152.151 91.4678 147.757Z" fill="#020202"/>
<path d="M64.8008 181.134C64.8008 178.922 64.8008 176.872 64.8008 174.72C66.0664 174.72 67.2866 174.72 68.7358 174.72C69.9163 178.049 71.1444 181.513 72.482 185.285C73.6126 182.035 74.6974 179.129 75.6172 176.171C76.006 174.921 76.5908 174.397 77.8965 174.599C78.5759 174.704 79.2848 174.617 80.0687 174.617C80.0687 179.468 80.0687 184.249 80.0687 189.129C79.1966 189.129 78.3075 189.129 77.2844 189.129C77.2844 186.029 77.2844 182.886 77.2844 179.742C77.1749 179.718 77.0654 179.693 76.9559 179.669C75.9651 182.411 74.9777 185.154 73.9812 187.894C73.7334 188.575 73.6428 189.264 72.5495 189.279C71.4311 189.293 71.25 188.686 70.9687 187.891C69.9532 185.02 68.8872 182.167 67.6672 179.354C67.6672 182.58 67.6672 185.806 67.6672 189.13C66.8154 189.13 65.9263 189.13 64.8008 189.13C64.8008 186.537 64.8008 183.917 64.8008 181.134Z" fill="#040404"/>
<path d="M129.081 181.875C129.503 182.567 129.862 183.155 130.461 184.137C130.461 180.759 130.461 177.795 130.461 174.725C131.582 174.725 132.518 174.725 133.538 174.725C133.538 179.519 133.538 184.299 133.538 189.155C132.517 189.155 131.561 189.155 130.539 189.155C128.711 186.119 126.857 183.038 124.742 179.524C124.742 183.026 124.742 186.05 124.742 189.15C123.678 189.15 122.785 189.15 121.793 189.15C121.793 184.376 121.793 179.595 121.793 174.809C124.448 174.28 124.549 174.319 125.861 176.5C126.917 178.255 127.966 180.015 129.081 181.875Z" fill="#090909"/>
<path d="M292.744 178.541C292.744 177.196 292.744 176.012 292.744 174.723C293.729 174.723 294.658 174.723 295.652 174.723C295.652 179.533 295.652 184.312 295.652 189.07C293.585 189.675 292.34 188.994 291.384 187.092C290.144 184.623 288.582 182.315 286.932 179.559C286.932 183.001 286.932 185.994 286.932 189.106C285.896 189.106 284.968 189.106 283.959 189.106C283.959 184.307 283.959 179.529 283.959 174.768C285.907 174.231 287.178 174.733 288.129 176.613C289.408 179.144 291.008 181.514 292.744 183.927C292.744 182.185 292.744 180.444 292.744 178.541Z" fill="#030303"/>
<path d="M176.893 183.591C176.992 181.836 176.89 180.178 177.253 178.63C177.928 175.746 180.54 174.13 183.665 174.376C186.712 174.616 188.295 176.099 188.682 179.13C187.772 179.13 186.868 179.13 185.983 179.13C185.013 177.056 184.246 176.522 182.609 176.793C180.77 177.098 180.152 178.483 180.036 180.06C179.925 181.55 179.827 183.147 180.251 184.535C180.543 185.489 181.605 186.585 182.555 186.886C184.935 187.641 185.786 186.719 185.689 183.822C184.872 183.822 184.045 183.822 183.115 183.822C183.115 183.016 183.115 182.357 183.115 181.622C184.974 181.622 186.785 181.622 188.789 181.622C188.789 183.457 188.863 185.226 188.739 186.982C188.707 187.44 188.139 187.976 187.684 188.271C183.152 191.211 178.033 189.044 176.893 183.591Z" fill="#090909"/>
<path d="M203.635 174.671C205.732 175.044 207.273 175.95 207.643 178.051C208.027 180.229 207.288 181.985 205.152 183.125C206.181 185.104 207.181 187.029 208.194 188.977C205.364 189.615 205.184 189.536 204.024 187.22C203.735 186.642 203.368 186.09 203.165 185.484C202.643 183.921 201.63 183.413 199.952 183.942C199.952 185.587 199.952 187.297 199.952 189.116C198.898 189.116 197.969 189.116 196.967 189.116C196.967 184.333 196.967 179.592 196.967 174.658C199.115 174.658 201.303 174.658 203.635 174.671ZM204.733 179.311C204.344 177.041 203.171 176.504 199.989 177.13C199.989 178.552 199.989 179.97 199.989 181.38C203.604 181.613 203.953 181.476 204.733 179.311Z" fill="#050505"/>
<path d="M48.0364 174.617C49.6555 174.629 51.12 174.563 52.5717 174.671C54.7565 174.832 56.1994 175.974 56.6824 177.749C57.2283 179.755 56.55 181.505 54.7291 182.797C54.5999 182.889 54.4866 183.003 54.2711 183.188C55.2685 185.102 56.2714 187.027 57.2886 188.978C54.3896 189.608 54.2422 189.54 53.0046 187.067C52.7634 186.585 52.5264 186.101 52.286 185.619C51.3282 183.698 51.328 183.698 48.9774 183.9C48.9774 184.73 48.9774 185.579 48.9774 186.427C48.9774 187.286 48.9774 188.146 48.9774 189.116C47.9745 189.116 47.0454 189.116 46.0444 189.116C46.0444 184.33 46.0444 179.588 46.0444 174.617C46.6308 174.617 47.2535 174.617 48.0364 174.617ZM51.595 181.454C53.3364 181.071 54.0437 180.187 53.7674 178.737C53.4538 177.092 52.2924 176.678 49.041 177.085C49.041 178.495 49.041 179.913 49.041 181.459C49.8371 181.459 50.573 181.459 51.595 181.454Z" fill="#040404"/>
<path d="M26.0959 185.125C26.0023 183.139 25.7155 181.238 25.9733 179.414C26.4031 176.374 28.6654 174.52 31.6 174.373C34.528 174.226 37.0373 175.846 37.6755 178.842C38.088 180.78 38.0841 182.93 37.7137 184.88C37.1731 187.725 34.9802 189.282 32.1816 189.412C29.3632 189.544 27.2908 188.113 26.0959 185.125ZM31.4126 176.862C30.6691 177.481 29.382 178.026 29.2846 178.733C28.9991 180.809 29.0155 182.969 29.2545 185.056C29.3956 186.289 30.4894 186.989 31.8661 187.007C33.3242 187.026 34.4104 186.266 34.6104 184.982C34.9025 183.108 34.9447 181.147 34.748 179.258C34.5799 177.645 33.4134 176.742 31.4126 176.862Z" fill="#060606"/>
<path d="M270.245 189.394C265.72 189.576 262.857 186.119 263.656 180.138C264.154 176.415 266.699 174.218 270.074 174.369C273.364 174.516 275.629 176.864 275.936 180.543C276.026 181.611 276.001 182.706 275.883 183.772C275.527 186.984 273.58 188.928 270.245 189.394ZM270.631 186.929C271.194 186.458 272.007 186.099 272.275 185.497C273.324 183.136 273.414 180.63 272.231 178.335C271.846 177.587 270.585 177.051 269.642 176.887C268.414 176.673 267.341 177.507 267.139 178.707C266.841 180.482 266.688 182.33 266.835 184.117C267.004 186.167 268.227 186.988 270.631 186.929Z" fill="#060606"/>
<path d="M227.539 187.558C227.74 188.13 227.905 188.579 228.11 189.14C227.018 189.14 226.027 189.14 224.812 189.14C224.933 185.283 222.106 186.137 219.776 186.103C217.568 186.071 218.573 188.301 217.444 189.184C216.646 189.184 215.681 189.184 214.479 189.184C216.282 184.316 218.054 179.527 219.818 174.762C222.633 174.375 222.636 174.374 223.566 176.867C224.881 180.389 226.192 183.913 227.539 187.558ZM222.332 181.3C222.037 180.418 221.742 179.537 221.447 178.655C221.335 178.668 221.223 178.681 221.111 178.694C220.583 180.336 220.055 181.978 219.518 183.649C220.787 183.649 221.877 183.649 223.112 183.649C222.848 182.857 222.631 182.204 222.332 181.3Z" fill="#060606"/>
<path d="M167.756 189.226C165.121 189.226 162.644 189.226 160.072 189.226C160.072 184.362 160.072 179.584 160.072 174.713C163.211 174.713 166.372 174.713 169.647 174.713C169.647 175.372 169.647 176.083 169.647 176.897C167.5 176.897 165.356 176.897 163.094 176.897C163.094 178.093 163.094 179.194 163.094 180.479C164.897 180.479 166.751 180.479 168.682 180.479C168.682 181.33 168.682 182 168.682 182.789C166.834 182.789 165.017 182.789 163.09 182.789C163.09 184.162 163.09 185.421 163.09 186.798C165.252 186.798 167.395 186.798 169.649 186.798C169.649 187.63 169.649 188.348 169.649 189.226C169.071 189.226 168.492 189.226 167.756 189.226Z" fill="#030303"/>
<path d="M16.1945 174.611C17.0991 174.611 17.845 174.611 18.6796 174.611C18.6796 175.398 18.6796 176.069 18.6796 176.887C16.6149 176.887 14.5385 176.887 12.3505 176.887C12.3505 178.233 12.3505 179.439 12.3505 180.761C14.1291 180.761 15.9455 180.761 17.8894 180.761C17.8894 181.589 17.8894 182.306 17.8894 183.145C16.077 183.145 14.2593 183.145 12.2881 183.145C12.2881 185.179 12.2881 187.1 12.2881 189.125C11.2042 189.125 10.2703 189.125 9.24829 189.125C9.24829 184.334 9.24829 179.561 9.24829 174.611C11.5402 174.611 13.788 174.611 16.1945 174.611Z" fill="#0D0D0D"/>
<path d="M237.47 185.027C237.47 182.28 237.47 179.695 237.47 176.984C235.96 176.984 234.578 176.984 233.112 176.984C233.112 176.18 233.112 175.503 233.112 174.721C236.984 174.721 240.898 174.721 244.897 174.721C244.897 175.41 244.897 176.081 244.897 176.918C243.459 176.918 242.028 176.918 240.491 176.918C240.491 181.059 240.491 185.041 240.491 189.123C239.493 189.123 238.603 189.123 237.47 189.123C237.47 187.838 237.47 186.514 237.47 185.027Z" fill="#030303"/>
<path d="M145.091 188.192C145.091 184.381 145.091 180.725 145.091 176.935C143.569 176.935 142.187 176.935 140.75 176.935C140.75 176.124 140.75 175.447 140.75 174.694C144.657 174.694 148.525 174.694 152.492 174.694C152.492 175.37 152.492 176.046 152.492 176.882C151.137 176.882 149.709 176.882 148.108 176.882C148.108 181.055 148.108 185.073 148.108 189.41C147.033 188.658 145.588 190.326 145.091 188.192Z" fill="#030303"/>
<path d="M252.521 186.31C252.521 182.381 252.521 178.612 252.521 174.73C253.508 174.73 254.437 174.73 255.445 174.73C255.445 179.511 255.445 184.282 255.445 189.14C254.519 189.14 253.626 189.14 252.521 189.14C252.521 188.261 252.521 187.365 252.521 186.31Z" fill="#040404"/>
<path d="M113.241 183.081C113.241 185.175 113.241 187.107 113.241 189.132C112.25 189.132 111.362 189.132 110.356 189.132C110.356 184.382 110.356 179.612 110.356 174.729C111.205 174.729 112.139 174.729 113.241 174.729C113.241 177.453 113.241 180.186 113.241 183.081Z" fill="#040404"/>
<path d="M204.981 179.462C204.208 181.501 203.859 181.639 200.245 181.406C200.245 179.996 200.245 178.577 200.245 177.155C203.427 176.53 204.599 177.067 204.981 179.462Z" fill="#FAFAFA"/>
</svg>
