<?xml version="1.0" encoding="utf-8"?>
<!-- Generator: Adobe Illustrator 25.2.1, SVG Export Plug-In . SVG Version: 6.00 Build 0)  -->
<svg version="1.1" id="Layer_1" xmlns="http://www.w3.org/2000/svg" xmlns:xlink="http://www.w3.org/1999/xlink" x="0px" y="0px"
	 viewBox="0 0 311.34 311.35" style="enable-background:new 0 0 311.34 311.35;" xml:space="preserve">
<style type="text/css">
	.st0{fill:#74C7AB;}
	.st1{fill:#FFFFFF;}
	.st2{fill:#E5E5E5;}
</style>
<path class="st0" d="M-358.43,310.08L-358.43,310.08c-72.9,0-132-59.1-132-132v0c0-72.9,59.1-132,132-132h0c72.9,0,132,59.1,132,132
	v0C-226.43,250.98-285.53,310.08-358.43,310.08z"/>
<g>
	<path class="st1" d="M-306.62,160.96v11.52h27.83v17.23h-27.83v23.04h-20.49v-69.31h53.21v17.53H-306.62z"/>
	<path class="st1" d="M-339.54,182.87h21.1c-1.22,18.45-15.39,31.29-35.57,31.29c-21.92,0-37.41-15.29-37.41-36.08
		S-375.93,142-354.01,142c20.18,0,34.35,12.84,35.57,31.29h-21.1c-1.33-7.24-6.52-12.13-14.78-12.13c-9.99,0-16.21,7.44-16.21,16.92
		s6.22,16.92,16.21,16.92C-346.06,195-340.86,190.11-339.54,182.87z"/>
	<polygon class="st2" points="-358,213.99 -367.73,212.51 -390.25,163.55 -384,155.67 	"/>
	<path class="st1" d="M-390.87,202.85h-26.6l-3.57,9.89h-21.92l28.74-69.31h20.08l28.74,69.31h-21.81L-390.87,202.85z
		 M-396.88,186.34l-7.34-19.88l-7.24,19.88H-396.88z"/>
	<g>
		<path class="st2" d="M-318.44,173.29h4.6c-1.22-18.45-15.39-31.29-35.57-31.29c-0.78,0-1.55,0.02-2.31,0.06
			C-332.77,143-319.61,155.55-318.44,173.29z"/>
		<path class="st2" d="M-351.72,214.1c0.76,0.04,1.53,0.06,2.31,0.06c20.18,0,34.35-12.84,35.57-31.29h-4.6
			C-319.61,200.62-332.77,213.17-351.72,214.1z"/>
	</g>
</g>
<g>
	<path d="M155.67,260.84c-29.31,0-58.61,0-87.92,0c-9.9,0-17.25-7.35-17.25-17.24c0-58.66,0-117.32,0-175.98
		c0-9.71,7.4-17.11,17.1-17.11c58.71,0,117.41,0,176.12,0c9.71,0,17.11,7.4,17.11,17.1c0,58.71,0,117.41,0,176.12
		c0,9.71-7.4,17.11-17.1,17.11C214.38,260.84,185.03,260.84,155.67,260.84z M236.09,225.18c0-3.96,0-7.78,0-11.6
		c0-3.71,0-3.69-3.6-4.34c-3.34-0.61-6.67-1.28-9.98-1.92c0-30.61,0-61.1,0-91.62c4.21-0.8,8.33-1.6,12.45-2.37
		c0.73-0.14,1.15-0.34,1.15-1.23c-0.04-4.58-0.02-9.16-0.03-13.74c0-0.22-0.1-0.44-0.15-0.66c-0.24-0.03-0.42-0.07-0.61-0.07
		c-15.14,0-30.29,0-45.43-0.03c-0.84,0-1.13,0.35-1.37,1.04c-1.03,3.04-2.08,6.08-3.14,9.11c-9.15,26.24-18.3,52.49-27.45,78.73
		c-0.6,1.73-1.22,3.46-1.83,5.19c-0.14,0.01-0.28,0.02-0.41,0.03c-0.29-0.74-0.59-1.48-0.85-2.23
		c-10.45-30.18-20.9-60.36-31.3-90.56c-0.36-1.04-0.81-1.31-1.86-1.31c-14.68,0.04-29.35,0.02-44.03,0.02c-0.49,0-0.99,0-1.53,0
		c0,5.24,0,10.27,0,15.38c0.42,0.11,0.81,0.23,1.22,0.31c3.75,0.74,7.48,1.54,11.25,2.17c1.03,0.17,1.16,0.59,1.16,1.46
		c-0.01,29.73-0.02,59.45,0.01,89.18c0,0.97-0.35,1.27-1.23,1.43c-3.76,0.69-7.5,1.48-11.26,2.13c-1.05,0.18-1.24,0.63-1.22,1.57
		c0.06,2.38,0.02,4.77,0.02,7.15c0,2.23,0,4.46,0,6.75c17.7,0,35.25,0,52.93,0c0-4.93,0.01-9.77-0.03-14.62
		c0-0.25-0.46-0.65-0.77-0.72c-1.4-0.34-2.83-0.58-4.25-0.85c-2.87-0.56-5.73-1.11-8.69-1.68c0.54-25.46-1.66-50.69-2.33-75.98
		c0.15-0.03,0.31-0.06,0.46-0.09c11.32,31.32,22.64,62.65,33.97,94.02c5.53,0,10.99,0.02,16.46-0.04c0.37,0,0.93-0.52,1.08-0.92
		c2.01-5.41,3.96-10.84,5.92-16.27c9.18-25.39,18.35-50.78,27.54-76.17c0.12-0.34,0.33-0.64,0.5-0.96
		c-0.38,25.5-2.54,50.84-1.96,76.39c-4.62,0.91-9.13,1.79-13.63,2.68c0,5.14,0,10.17,0,15.25
		C200.85,225.18,218.36,225.18,236.09,225.18z"/>
	<path class="st1" d="M236.09,225.18c-17.73,0-35.24,0-52.84,0c0-5.08,0-10.1,0-15.25c4.5-0.88,9-1.77,13.63-2.68
		c-0.58-25.55,1.58-50.89,1.96-76.39c-0.17,0.32-0.38,0.62-0.5,0.96c-9.18,25.39-18.36,50.78-27.54,76.17
		c-1.96,5.43-3.91,10.86-5.92,16.27c-0.15,0.4-0.7,0.92-1.08,0.92c-5.46,0.06-10.93,0.04-16.46,0.04
		c-11.34-31.38-22.65-62.7-33.97-94.02c-0.15,0.03-0.31,0.06-0.46,0.09c0.67,25.28,2.87,50.52,2.33,75.98
		c2.96,0.57,5.82,1.13,8.69,1.68c1.42,0.27,2.84,0.52,4.25,0.85c0.31,0.07,0.77,0.47,0.77,0.72c0.05,4.85,0.03,9.7,0.03,14.62
		c-17.68,0-35.23,0-52.93,0c0-2.29,0-4.52,0-6.75c0-2.38,0.04-4.77-0.02-7.15c-0.02-0.94,0.17-1.39,1.22-1.57
		c3.76-0.65,7.5-1.45,11.26-2.13c0.88-0.16,1.23-0.46,1.23-1.43c-0.03-29.73-0.02-59.45-0.01-89.18c0-0.86-0.13-1.28-1.16-1.46
		c-3.76-0.64-7.5-1.43-11.25-2.17c-0.4-0.08-0.8-0.2-1.22-0.31c0-5.11,0-10.15,0-15.38c0.55,0,1.04,0,1.53,0
		c14.68,0,29.35,0.01,44.03-0.02c1.05,0,1.5,0.27,1.86,1.31c10.41,30.2,20.85,60.38,31.3,90.56c0.26,0.75,0.57,1.49,0.85,2.23
		c0.14-0.01,0.28-0.02,0.41-0.03c0.61-1.73,1.23-3.46,1.83-5.19c9.15-26.24,18.3-52.48,27.45-78.73c1.06-3.03,2.11-6.07,3.14-9.11
		c0.23-0.69,0.53-1.05,1.37-1.04c15.14,0.03,30.29,0.02,45.43,0.03c0.18,0,0.37,0.04,0.61,0.07c0.05,0.22,0.15,0.44,0.15,0.66
		c0.01,4.58-0.01,9.16,0.03,13.74c0.01,0.88-0.42,1.09-1.15,1.23c-4.12,0.77-8.24,1.56-12.45,2.37c0,30.52,0,61.02,0,91.62
		c3.31,0.64,6.64,1.31,9.98,1.92c3.59,0.66,3.6,0.63,3.6,4.34C236.09,217.4,236.09,221.22,236.09,225.18z"/>
</g>
</svg>
