<svg width="300" height="300" viewBox="0 0 300 300" fill="none" xmlns="http://www.w3.org/2000/svg">
<rect x="80.5" y="28.5" width="170" height="176" rx="11.5" fill="#FAFAFA" stroke="black" stroke-width="3"/>
<rect x="97" y="49" width="136" height="53" rx="9" stroke="#C0C0C0" stroke-width="4"/>
<rect x="96.916" y="112.018" width="136.476" height="43.882" rx="9" stroke="#C0C0C0" stroke-width="4"/>
<rect x="96.916" y="166.77" width="136.476" height="28.4624" rx="9" stroke="#C0C0C0" stroke-width="4"/>
<path d="M181.305 43.9638C180.067 48.5851 182.809 53.3353 187.431 54.5735C192.052 55.8118 196.802 53.0693 198.04 48.448C199.279 43.8267 196.536 39.0766 191.915 37.8383C187.293 36.6 182.543 39.3425 181.305 43.9638Z" stroke="black" stroke-width="2"/>
<path d="M191.664 76.0963L191.664 76.0962C190.228 72.8055 189.999 68.2207 190.185 64.0607C190.337 60.6777 190.77 57.4651 191.131 55.2488C189.633 55.4308 188.077 55.335 186.533 54.9212C185.948 54.7645 185.384 54.5672 184.844 54.3333C184.434 56.9538 183.954 60.7961 183.856 64.8818C183.739 69.7582 184.172 74.8532 185.82 78.632C187.735 83.0185 189.313 87.4983 189.37 91.7123C189.422 95.5632 188.147 99.3374 184.698 102.892L184.665 102.927L184.629 102.957C178.665 108.037 172.126 107.682 167.508 104.392C162.947 101.144 160.315 95.0637 161.977 88.8609L162.236 87.895L163.202 88.1538L169.576 89.8616L159.682 72.7251C159.242 74.2236 158.769 75.7401 158.297 77.2504C157.841 78.7117 157.386 80.1672 156.966 81.5948C155.874 85.3077 154.983 88.9258 154.738 92.3576C154.493 95.7799 154.894 98.9696 156.343 101.854C157.788 104.733 160.322 107.398 164.501 109.698L164.019 110.574L164.501 109.698C171.353 113.469 179.254 113.711 185.368 110.664C191.435 107.642 195.871 101.319 195.739 91.6418L196.739 91.6282L195.739 91.6417C195.669 86.4546 193.932 81.2923 191.664 76.0963Z" fill="white" stroke="black" stroke-width="2"/>
<circle cx="160" cy="116" r="7" fill="#D9D9D9"/>
<path d="M113.876 58.157L206.858 109.054C210.007 110.777 211.162 114.727 209.438 117.876L158.542 210.858C156.818 214.007 152.868 215.162 149.719 213.438L56.7378 162.542C53.5889 160.818 52.4335 156.868 54.1571 153.719L105.054 60.7377C106.777 57.5887 110.727 56.4333 113.876 58.157Z" fill="#F2F2F2" stroke="black" stroke-width="3"/>
<rect x="106.845" y="90.7884" width="87" height="9" rx="4.5" transform="rotate(28.6956 106.845 90.7884)" fill="#0092C9" stroke="black" stroke-width="3"/>
<rect x="97.7215" y="107.455" width="87" height="9" rx="4.5" transform="rotate(28.6956 97.7215 107.455)" fill="#0092C9" stroke="black" stroke-width="3"/>
<rect x="88.5987" y="124.121" width="87" height="9" rx="4.5" transform="rotate(28.6956 88.5987 124.121)" fill="#0092C9" stroke="black" stroke-width="3"/>
<rect x="79.4757" y="140.788" width="87" height="9" rx="4.5" transform="rotate(28.6956 79.4757 140.788)" fill="#0092C9" stroke="black" stroke-width="3"/>
<path d="M160 74.5001L158 81.0001L166 84.5001L160 74.5001Z" fill="black" stroke="black" stroke-width="2"/>
<circle cx="160.5" cy="101.5" r="7" fill="#3F3F3F" stroke="black"/>
<path d="M187 98C177 115.2 167.167 105.167 163.5 98L158 99C170.4 124.6 186.5 112 193 102.5L187 98Z" fill="white" stroke="black" stroke-width="2"/>
<circle cx="190" cy="46" r="5.5" fill="white" stroke="black"/>
<path d="M156.5 95.5C155.3 96.7 156 98 156.5 98.5L164.5 97.5V96L161 94.5C160 94.3333 157.7 94.3 156.5 95.5Z" fill="black"/>
<path d="M16.65 266.336C15.894 266.336 15.278 266.154 14.802 265.79C14.354 265.426 13.99 264.852 13.71 264.068L4.932 239.246C4.624 238.35 4.68 237.594 5.1 236.978C5.548 236.362 6.29 236.054 7.326 236.054C8.082 236.054 8.67 236.236 9.09 236.6C9.51 236.936 9.846 237.482 10.098 238.238L17.658 260.666H15.978L23.874 238.28C24.154 237.524 24.504 236.964 24.924 236.6C25.344 236.236 25.89 236.054 26.562 236.054C27.234 236.054 27.766 236.236 28.158 236.6C28.55 236.964 28.886 237.538 29.166 238.322L36.81 260.666H35.34L43.026 238.238C43.278 237.51 43.614 236.964 44.034 236.6C44.454 236.236 45.028 236.054 45.756 236.054C46.652 236.054 47.31 236.362 47.73 236.978C48.15 237.594 48.206 238.35 47.898 239.246L39.036 264.11C38.756 264.866 38.392 265.426 37.944 265.79C37.496 266.154 36.894 266.336 36.138 266.336C35.382 266.336 34.78 266.154 34.332 265.79C33.884 265.426 33.52 264.852 33.24 264.068L25.932 243.236H26.898L19.506 264.11C19.226 264.866 18.862 265.426 18.414 265.79C17.994 266.154 17.406 266.336 16.65 266.336ZM55.6798 266.336C54.8118 266.336 54.1398 266.098 53.6638 265.622C53.2158 265.118 52.9918 264.432 52.9918 263.564V239.12C52.9918 238.224 53.2298 237.552 53.7058 237.104C54.1818 236.628 54.8538 236.39 55.7218 236.39H65.8438C69.0918 236.39 71.5978 237.202 73.3618 238.826C75.1258 240.45 76.0078 242.718 76.0078 245.63C76.0078 248.542 75.1258 250.824 73.3618 252.476C71.5978 254.1 69.0918 254.912 65.8438 254.912H58.3678V263.564C58.3678 264.432 58.1438 265.118 57.6958 265.622C57.2478 266.098 56.5758 266.336 55.6798 266.336ZM58.3678 250.67H65.0038C66.9078 250.67 68.3498 250.25 69.3298 249.41C70.3098 248.542 70.7998 247.282 70.7998 245.63C70.7998 243.978 70.3098 242.732 69.3298 241.892C68.3498 241.052 66.9078 240.632 65.0038 240.632H58.3678V250.67ZM102.209 266.336C101.453 266.336 100.837 266.154 100.361 265.79C99.9126 265.426 99.5486 264.852 99.2686 264.068L90.4906 239.246C90.1826 238.35 90.2386 237.594 90.6586 236.978C91.1066 236.362 91.8486 236.054 92.8846 236.054C93.6406 236.054 94.2286 236.236 94.6486 236.6C95.0686 236.936 95.4046 237.482 95.6566 238.238L103.217 260.666H101.537L109.433 238.28C109.713 237.524 110.063 236.964 110.483 236.6C110.903 236.236 111.449 236.054 112.121 236.054C112.793 236.054 113.325 236.236 113.717 236.6C114.109 236.964 114.445 237.538 114.725 238.322L122.369 260.666H120.899L128.585 238.238C128.837 237.51 129.173 236.964 129.593 236.6C130.013 236.236 130.587 236.054 131.315 236.054C132.211 236.054 132.869 236.362 133.289 236.978C133.709 237.594 133.765 238.35 133.457 239.246L124.595 264.11C124.315 264.866 123.951 265.426 123.503 265.79C123.055 266.154 122.453 266.336 121.697 266.336C120.941 266.336 120.339 266.154 119.891 265.79C119.443 265.426 119.079 264.852 118.799 264.068L111.491 243.236H112.457L105.065 264.11C104.785 264.866 104.421 265.426 103.973 265.79C103.553 266.154 102.965 266.336 102.209 266.336ZM145.543 266.42C143.219 266.42 141.217 265.986 139.537 265.118C137.857 264.25 136.555 263.018 135.631 261.422C134.735 259.826 134.287 257.936 134.287 255.752C134.287 253.624 134.721 251.762 135.589 250.166C136.485 248.57 137.703 247.324 139.243 246.428C140.811 245.504 142.589 245.042 144.577 245.042C146.033 245.042 147.335 245.28 148.483 245.756C149.659 246.232 150.653 246.918 151.465 247.814C152.305 248.71 152.935 249.802 153.355 251.09C153.803 252.35 154.027 253.778 154.027 255.374C154.027 255.878 153.845 256.27 153.481 256.55C153.145 256.802 152.655 256.928 152.011 256.928H138.529V253.904H150.331L149.659 254.534C149.659 253.246 149.463 252.168 149.071 251.3C148.707 250.432 148.161 249.774 147.433 249.326C146.733 248.85 145.851 248.612 144.787 248.612C143.611 248.612 142.603 248.892 141.763 249.452C140.951 249.984 140.321 250.754 139.873 251.762C139.453 252.742 139.243 253.918 139.243 255.29V255.584C139.243 257.88 139.775 259.602 140.839 260.75C141.931 261.87 143.527 262.43 145.627 262.43C146.355 262.43 147.167 262.346 148.063 262.178C148.987 261.982 149.855 261.66 150.667 261.212C151.255 260.876 151.773 260.736 152.221 260.792C152.669 260.82 153.019 260.974 153.271 261.254C153.551 261.534 153.719 261.884 153.775 262.304C153.831 262.696 153.747 263.102 153.523 263.522C153.327 263.942 152.977 264.306 152.473 264.614C151.493 265.23 150.359 265.692 149.071 266C147.811 266.28 146.635 266.42 145.543 266.42ZM170.029 266.42C168.293 266.42 166.767 265.986 165.451 265.118C164.163 264.25 163.309 263.088 162.889 261.632L163.351 260.582V263.648C163.351 264.516 163.127 265.188 162.679 265.664C162.231 266.112 161.601 266.336 160.789 266.336C159.949 266.336 159.305 266.112 158.857 265.664C158.409 265.188 158.185 264.516 158.185 263.648V238.7C158.185 237.832 158.409 237.174 158.857 236.726C159.305 236.278 159.949 236.054 160.789 236.054C161.629 236.054 162.273 236.278 162.721 236.726C163.197 237.174 163.435 237.832 163.435 238.7V249.62H162.931C163.379 248.248 164.247 247.142 165.535 246.302C166.823 245.462 168.321 245.042 170.029 245.042C171.849 245.042 173.431 245.476 174.775 246.344C176.119 247.212 177.169 248.444 177.925 250.04C178.681 251.608 179.059 253.498 179.059 255.71C179.059 257.894 178.681 259.798 177.925 261.422C177.169 263.018 176.105 264.25 174.733 265.118C173.389 265.986 171.821 266.42 170.029 266.42ZM168.559 262.43C169.595 262.43 170.505 262.178 171.289 261.674C172.073 261.17 172.675 260.428 173.095 259.448C173.543 258.44 173.767 257.194 173.767 255.71C173.767 253.47 173.291 251.804 172.339 250.712C171.387 249.592 170.127 249.032 168.559 249.032C167.523 249.032 166.613 249.284 165.829 249.788C165.045 250.264 164.429 251.006 163.981 252.014C163.561 252.994 163.351 254.226 163.351 255.71C163.351 257.922 163.827 259.602 164.779 260.75C165.731 261.87 166.991 262.43 168.559 262.43ZM185.973 266.336C185.133 266.336 184.489 266.112 184.041 265.664C183.593 265.188 183.369 264.516 183.369 263.648V238.7C183.369 237.832 183.593 237.174 184.041 236.726C184.489 236.278 185.133 236.054 185.973 236.054C186.813 236.054 187.457 236.278 187.905 236.726C188.381 237.174 188.619 237.832 188.619 238.7V249.578H188.031C188.647 248.094 189.599 246.974 190.887 246.218C192.203 245.434 193.687 245.042 195.339 245.042C196.991 245.042 198.349 245.35 199.413 245.966C200.477 246.582 201.275 247.52 201.807 248.78C202.339 250.012 202.605 251.58 202.605 253.484V263.648C202.605 264.516 202.381 265.188 201.933 265.664C201.485 266.112 200.841 266.336 200.001 266.336C199.161 266.336 198.503 266.112 198.027 265.664C197.579 265.188 197.355 264.516 197.355 263.648V253.736C197.355 252.14 197.047 250.978 196.431 250.25C195.843 249.522 194.919 249.158 193.659 249.158C192.119 249.158 190.887 249.648 189.963 250.628C189.067 251.58 188.619 252.854 188.619 254.45V263.648C188.619 265.44 187.737 266.336 185.973 266.336ZM217.303 266.42C215.175 266.42 213.327 265.986 211.759 265.118C210.191 264.25 208.973 263.018 208.105 261.422C207.237 259.798 206.803 257.894 206.803 255.71C206.803 254.058 207.041 252.588 207.517 251.3C208.021 249.984 208.735 248.864 209.659 247.94C210.583 246.988 211.689 246.274 212.977 245.798C214.265 245.294 215.707 245.042 217.303 245.042C219.431 245.042 221.279 245.476 222.847 246.344C224.415 247.212 225.633 248.444 226.501 250.04C227.369 251.636 227.803 253.526 227.803 255.71C227.803 257.362 227.551 258.846 227.047 260.162C226.571 261.478 225.871 262.612 224.947 263.564C224.023 264.488 222.917 265.202 221.629 265.706C220.341 266.182 218.899 266.42 217.303 266.42ZM217.303 262.43C218.339 262.43 219.249 262.178 220.033 261.674C220.817 261.17 221.419 260.428 221.839 259.448C222.287 258.44 222.511 257.194 222.511 255.71C222.511 253.47 222.035 251.804 221.083 250.712C220.131 249.592 218.871 249.032 217.303 249.032C216.267 249.032 215.357 249.284 214.573 249.788C213.789 250.264 213.173 251.006 212.725 252.014C212.305 252.994 212.095 254.226 212.095 255.71C212.095 257.922 212.571 259.602 213.523 260.75C214.475 261.87 215.735 262.43 217.303 262.43ZM241.502 266.42C239.374 266.42 237.526 265.986 235.958 265.118C234.39 264.25 233.172 263.018 232.304 261.422C231.436 259.798 231.002 257.894 231.002 255.71C231.002 254.058 231.24 252.588 231.716 251.3C232.22 249.984 232.934 248.864 233.858 247.94C234.782 246.988 235.888 246.274 237.176 245.798C238.464 245.294 239.906 245.042 241.502 245.042C243.63 245.042 245.478 245.476 247.046 246.344C248.614 247.212 249.832 248.444 250.7 250.04C251.568 251.636 252.002 253.526 252.002 255.71C252.002 257.362 251.75 258.846 251.246 260.162C250.77 261.478 250.07 262.612 249.146 263.564C248.222 264.488 247.116 265.202 245.828 265.706C244.54 266.182 243.098 266.42 241.502 266.42ZM241.502 262.43C242.538 262.43 243.448 262.178 244.232 261.674C245.016 261.17 245.618 260.428 246.038 259.448C246.486 258.44 246.71 257.194 246.71 255.71C246.71 253.47 246.234 251.804 245.282 250.712C244.33 249.592 243.07 249.032 241.502 249.032C240.466 249.032 239.556 249.284 238.772 249.788C237.988 250.264 237.372 251.006 236.924 252.014C236.504 252.994 236.294 254.226 236.294 255.71C236.294 257.922 236.77 259.602 237.722 260.75C238.674 261.87 239.934 262.43 241.502 262.43ZM258.939 266.336C258.099 266.336 257.455 266.112 257.007 265.664C256.559 265.188 256.335 264.516 256.335 263.648V238.7C256.335 237.832 256.559 237.174 257.007 236.726C257.455 236.278 258.099 236.054 258.939 236.054C259.779 236.054 260.423 236.278 260.871 236.726C261.347 237.174 261.585 237.832 261.585 238.7V254.198H261.669L268.599 246.89C269.159 246.33 269.649 245.896 270.069 245.588C270.489 245.28 271.063 245.126 271.791 245.126C272.519 245.126 273.065 245.322 273.429 245.714C273.821 246.078 274.017 246.526 274.017 247.058C274.017 247.59 273.765 248.122 273.261 248.654L265.953 256.382V254.198L273.975 262.85C274.479 263.382 274.703 263.928 274.647 264.488C274.619 265.02 274.395 265.468 273.975 265.832C273.555 266.168 273.023 266.336 272.379 266.336C271.595 266.336 270.965 266.182 270.489 265.874C270.041 265.566 269.537 265.104 268.977 264.488L261.669 256.844H261.585V263.648C261.585 265.44 260.703 266.336 258.939 266.336ZM286.043 266.42C284.839 266.42 283.565 266.294 282.221 266.042C280.877 265.79 279.673 265.356 278.609 264.74C278.161 264.46 277.839 264.138 277.643 263.774C277.475 263.382 277.405 263.004 277.433 262.64C277.489 262.248 277.629 261.912 277.853 261.632C278.105 261.352 278.413 261.17 278.777 261.086C279.169 261.002 279.589 261.072 280.037 261.296C281.157 261.828 282.207 262.206 283.187 262.43C284.167 262.626 285.133 262.724 286.085 262.724C287.429 262.724 288.423 262.5 289.067 262.052C289.739 261.576 290.075 260.96 290.075 260.204C290.075 259.56 289.851 259.07 289.403 258.734C288.983 258.37 288.339 258.104 287.471 257.936L283.271 257.138C281.535 256.802 280.205 256.172 279.281 255.248C278.385 254.296 277.937 253.078 277.937 251.594C277.937 250.25 278.301 249.088 279.029 248.108C279.785 247.128 280.821 246.372 282.137 245.84C283.453 245.308 284.965 245.042 286.673 245.042C287.905 245.042 289.053 245.182 290.117 245.462C291.209 245.714 292.259 246.12 293.267 246.68C293.687 246.904 293.967 247.198 294.107 247.562C294.275 247.926 294.317 248.304 294.233 248.696C294.149 249.06 293.981 249.396 293.729 249.704C293.477 249.984 293.155 250.166 292.763 250.25C292.399 250.306 291.979 250.222 291.503 249.998C290.635 249.55 289.795 249.228 288.983 249.032C288.199 248.836 287.443 248.738 286.715 248.738C285.343 248.738 284.321 248.976 283.649 249.452C283.005 249.928 282.683 250.558 282.683 251.342C282.683 251.93 282.879 252.42 283.271 252.812C283.663 253.204 284.265 253.47 285.077 253.61L289.277 254.408C291.097 254.744 292.469 255.36 293.393 256.256C294.345 257.152 294.821 258.356 294.821 259.868C294.821 261.912 294.023 263.522 292.427 264.698C290.831 265.846 288.703 266.42 286.043 266.42Z" fill="black"/>
</svg>
